<svg width="104" height="42" viewBox="0 0 104 42" fill="none" xmlns="http://www.w3.org/2000/svg">
<path d="M20.7633 14.912C20.8113 15.176 20.6193 15.392 20.3553 15.416C18.4113 15.656 16.6833 16.016 15.1473 16.472C13.3233 24.464 11.3793 33.488 10.9233 35.6C10.2753 38.648 8.97928 40.568 7.29928 40.976C7.05928 41.024 6.81928 41.048 6.60328 41.048C5.49928 41.048 4.41928 40.472 3.48328 39.344C1.49128 36.92 0.675281 31.256 2.81128 26C3.98728 23.072 5.93128 20.6 8.54728 18.704C10.2273 17.48 12.1713 16.496 14.3553 15.776C14.9793 13.04 15.5793 10.472 16.0833 8.36C16.9233 4.904 16.4913 3.944 16.2513 3.872C15.6993 3.704 14.1393 5.24 13.3713 7.304C12.9873 8.336 12.5553 10.16 14.0913 10.832C14.3073 10.952 14.4273 11.216 14.3073 11.456C14.2113 11.672 13.9473 11.792 13.7073 11.672C12.1233 10.976 11.6673 9.224 12.4833 6.992C13.2273 5.024 15.1233 2.552 16.5153 2.984C17.6673 3.344 17.8113 5.168 16.9953 8.576C16.5153 10.544 15.9633 12.92 15.3873 15.464C16.8993 15.032 18.5313 14.72 20.2593 14.504C20.5233 14.48 20.7393 14.648 20.7633 14.912ZM10.0353 35.408C10.4673 33.344 12.3393 24.656 14.1153 16.808C7.89928 19.016 5.01928 23 3.65128 26.336C2.13928 30.128 1.89928 35.96 4.20328 38.768C5.09128 39.824 6.12328 40.304 7.05928 40.088C8.40328 39.752 9.45928 38.096 10.0353 35.408ZM27.7778 20.792C27.9698 20.936 28.0178 21.224 27.8498 21.44C26.6258 23 24.6098 24.248 22.9298 23.888C22.4738 24.992 21.5858 25.616 20.7458 25.616C19.8578 25.616 19.1858 24.992 18.8978 24.008C18.4658 22.352 19.2578 20.816 20.2178 20.216C20.3378 20.12 20.4818 20.12 20.6018 20.168C20.8898 19.448 21.4898 19.016 22.0658 19.136C22.5698 19.232 23.4098 19.784 23.2418 22.496C23.2418 22.664 23.2178 22.832 23.1938 23C24.4658 23.24 26.1218 22.16 27.1298 20.864C27.2738 20.672 27.5618 20.624 27.7778 20.792ZM20.7698 24.704C21.1778 24.704 21.7538 24.296 22.0898 23.528C20.9378 22.904 20.4818 22.016 20.4338 21.2C19.7618 21.824 19.5698 22.952 19.8098 23.768C19.8818 24.104 20.1458 24.68 20.7458 24.704C20.7458 24.704 20.7458 24.704 20.7698 24.704ZM22.3298 22.448C22.4258 20.528 22.0178 20.072 21.8978 20.048C21.7778 20.048 21.5378 20.24 21.4178 20.624C21.2498 21.224 21.3938 21.992 22.3058 22.592C22.3058 22.544 22.3058 22.496 22.3298 22.448ZM36.4253 20.648C36.6413 20.792 36.7373 21.056 36.5933 21.296C35.0813 23.936 33.9773 25.448 32.7533 25.304C31.9373 25.208 31.3133 24.368 30.8333 22.712C30.3773 21.128 30.0413 21.032 29.9933 21.032C29.7773 21.032 28.8653 21.416 26.6093 27.032C26.5373 27.2 26.3693 27.32 26.1773 27.32C26.1293 27.32 26.1053 27.32 26.0573 27.296C25.8413 27.248 25.6973 27.032 25.7213 26.816C25.9613 24.848 26.8973 21.608 27.5213 19.472C27.6173 19.184 27.6893 18.896 27.7613 18.656C27.8333 18.392 28.0973 18.248 28.3373 18.32C28.5773 18.392 28.7213 18.656 28.6493 18.896C28.5773 19.16 28.5053 19.424 28.4093 19.736C28.1693 20.576 27.8573 21.608 27.5693 22.64C28.6733 20.576 29.3933 20.072 30.0413 20.12C30.9293 20.168 31.3853 21.272 31.7213 22.448C32.2013 24.128 32.6813 24.368 32.8493 24.392C33.7133 24.488 35.2253 21.824 35.8013 20.84C35.9213 20.6 36.2093 20.528 36.4253 20.648ZM66.2588 1.424C62.7788 15.176 56.1788 19.952 52.5548 21.56C51.5468 22.016 50.5628 22.352 49.6268 22.544C50.8748 24.056 52.0748 26.072 53.2988 28.16C55.4828 31.832 57.7148 35.648 60.1388 36.176C60.9308 36.344 61.6988 36.152 62.5148 35.6C62.7068 35.456 62.9948 35.504 63.1388 35.72C63.2828 35.936 63.2348 36.224 63.0428 36.368C62.2748 36.896 61.4828 37.16 60.6908 37.16C60.4508 37.16 60.1868 37.136 59.9468 37.064C57.1388 36.464 54.7868 32.48 52.5068 28.64C51.2588 26.528 50.0108 24.392 48.7148 22.904C47.3468 28.784 46.0748 34.544 45.7628 36.992C45.8348 36.872 45.9068 36.704 46.0028 36.536C46.0988 36.296 46.3628 36.176 46.6028 36.296C46.8428 36.392 46.9388 36.656 46.8428 36.896C46.2428 38.24 45.8828 38.888 45.4268 38.888C45.3548 38.888 45.2828 38.864 45.2348 38.84C44.7308 38.672 44.6348 38.144 45.0668 35.552C45.3308 33.992 45.7628 31.808 46.4108 28.904C46.8188 26.984 47.2988 24.896 47.8028 22.76C47.5388 22.784 47.2748 22.76 47.0348 22.76C45.7628 22.664 44.7068 22.208 44.1788 21.56C43.8428 21.128 43.8188 20.648 44.0828 20.312C44.5148 19.736 45.5948 19.76 47.0108 20.384C47.4188 20.552 47.8028 20.792 48.1868 21.104C48.9548 17.84 49.7468 14.552 50.4428 11.648C51.1388 8.792 51.7388 6.32 52.1468 4.544C52.1948 4.304 52.4588 4.16 52.6988 4.208C52.9388 4.256 53.1068 4.52 53.0588 4.76C52.6268 6.536 52.0508 9.008 51.3548 11.864C50.6828 14.624 49.8428 18.152 49.0028 21.728C50.0828 21.536 51.2108 21.152 52.1708 20.72C55.6508 19.16 61.9628 14.552 65.3708 1.208C65.4188 0.943999 65.6828 0.799998 65.9228 0.871999C66.1628 0.919998 66.3308 1.184 66.2588 1.424ZM45.2588 21.296C45.9068 21.728 46.7468 21.872 47.6588 21.848C47.3228 21.584 46.9868 21.368 46.6508 21.224C45.4988 20.72 44.9708 20.792 44.8268 20.864C44.8508 20.936 44.9708 21.104 45.2588 21.296ZM69.1057 20.552C69.3217 20.672 69.3937 20.96 69.2737 21.176C68.0497 23.12 65.2897 26.336 63.4897 26.336C63.3217 26.336 63.1537 26.312 62.9857 26.24C61.9057 25.784 61.7857 23.984 62.6497 20.6C62.7217 20.36 62.9617 20.216 63.2257 20.264C63.4657 20.336 63.6097 20.576 63.5617 20.84C62.5057 24.896 63.2737 25.352 63.3697 25.4C64.1857 25.736 66.8737 23.288 68.4817 20.696C68.6257 20.48 68.8897 20.408 69.1057 20.552ZM63.4417 18.608C62.5057 18.56 63.1537 17.624 63.6577 17.48C64.6417 17.144 64.6657 18.68 63.4417 18.608ZM78.296 20.624C78.512 20.768 78.56 21.056 78.44 21.272C75.728 25.664 71.168 27.776 68.696 28.664C68.48 28.736 68.264 28.64 68.144 28.472C67.904 29.096 67.688 29.72 67.472 30.344C67.424 30.56 67.232 30.68 67.04 30.68C67.016 30.68 66.992 30.68 66.968 30.68C66.728 30.632 66.56 30.44 66.584 30.2C66.608 29.408 68.72 20 70.016 14.432C70.04 14.384 70.04 14.336 70.064 14.288C70.328 13.16 70.544 12.176 70.736 11.504C71.816 7.064 73.424 3.56 74.456 3.368C74.696 3.32 74.936 3.392 75.08 3.608C75.752 4.544 74.12 8.864 70.928 14.6C70.184 17.816 69.2 22.112 68.48 25.4C68.936 24.488 69.368 23.72 69.8 23.144C71.048 21.368 72.032 20.624 72.776 20.864C73.04 20.936 73.472 21.2 73.496 22.112C73.52 23.096 73.016 24.704 71.984 26.12C74.384 24.704 76.376 22.856 77.648 20.792C77.792 20.576 78.08 20.504 78.296 20.624ZM74.288 4.688C73.712 5.504 72.728 7.472 71.816 10.952C73.424 7.712 74.096 5.648 74.288 4.688ZM68.408 27.776C70.88 26.864 72.2 24.32 72.512 22.832C72.656 22.112 72.536 21.8 72.488 21.752C72.416 21.752 71.84 21.848 70.544 23.672C69.872 24.608 69.104 26.12 68.408 27.776ZM87.7274 20.576C87.9434 20.672 88.0394 20.96 87.9434 21.2C86.3834 24.488 83.0474 30.392 81.1274 30.392C81.0074 30.392 80.9114 30.368 80.7914 30.344C80.1194 30.08 79.9274 29.144 80.1914 27.368C80.4074 25.76 81.0074 23.432 81.9434 20.48C81.9194 20.504 81.9194 20.504 81.8954 20.528C80.9114 21.176 79.2554 22.256 77.9834 21.368C76.7354 20.528 76.7114 18.872 77.8874 17.048C78.4634 16.208 79.7114 14.744 80.5754 15.248C81.1274 15.608 81.3674 16.544 78.9194 20.768C79.6874 20.864 80.6714 20.216 81.3914 19.76C82.0634 19.304 82.4714 19.04 82.8314 19.328C83.2154 19.592 83.0474 20.096 82.9754 20.312C80.2634 28.64 81.1034 29.456 81.1514 29.48C81.7274 29.576 84.3434 26.6 87.1034 20.792C87.1994 20.552 87.4874 20.456 87.7274 20.576ZM78.0314 18.92C77.8634 19.592 77.9834 20 78.1514 20.264C79.6874 17.6 79.9514 16.52 79.9994 16.136C79.4954 16.424 78.3674 17.624 78.0314 18.92ZM93.6447 20.552C93.8607 20.672 93.9327 20.96 93.8127 21.176C92.5887 23.12 89.8287 26.336 88.0287 26.336C87.8607 26.336 87.6927 26.312 87.5247 26.24C86.4447 25.784 86.3247 23.984 87.1887 20.6C87.2607 20.36 87.5007 20.216 87.7647 20.264C88.0047 20.336 88.1487 20.576 88.1007 20.84C87.0447 24.896 87.8127 25.352 87.9087 25.4C88.7247 25.736 91.4127 23.288 93.0207 20.696C93.1647 20.48 93.4287 20.408 93.6447 20.552ZM87.9807 18.608C87.0447 18.56 87.6927 17.624 88.1967 17.48C89.1807 17.144 89.2047 18.68 87.9807 18.608ZM102.739 20.672C102.979 20.792 103.075 21.056 102.955 21.296C101.779 23.744 100.027 26.6 98.395 26.6C98.299 26.6 98.203 26.576 98.107 26.576C97.027 26.336 96.379 24.968 96.115 22.232C95.587 22.976 94.843 23.936 94.027 24.824C93.835 25.04 93.235 25.688 92.635 25.448C92.251 25.304 92.059 24.872 92.083 24.2C92.131 22.568 93.379 19.016 95.227 18.368C95.803 18.176 96.667 18.152 97.579 19.208C97.723 19.4 97.699 19.712 97.507 19.856C97.315 20.024 97.027 20 96.859 19.808C96.115 18.944 95.563 19.16 95.155 19.448C93.739 20.456 92.851 23.672 93.019 24.512C93.091 24.464 93.211 24.368 93.355 24.2C94.315 23.168 95.107 22.064 95.707 21.248C95.851 21.032 95.995 20.84 96.139 20.672C96.235 20.504 96.451 20.456 96.643 20.504C96.811 20.552 96.955 20.72 96.955 20.912C97.171 25.112 98.035 25.616 98.299 25.664C98.947 25.784 100.315 24.608 102.139 20.888C102.235 20.672 102.523 20.576 102.739 20.672Z" fill="#FF6D1C"/>
</svg>
