<svg width="85" height="102" viewBox="0 0 85 102" fill="none" xmlns="http://www.w3.org/2000/svg">
<path d="M56.9468 69.6099C57.3492 70.5433 58.5287 70.3889 58.8157 69.4704C60.2929 64.7431 63.8793 59.2085 69.4723 59.3241C72.6079 59.3889 75.5237 61.2069 77.9267 63.0573C79.9664 64.628 81.7776 66.4393 82.7089 68.7946C82.7216 69.2665 82.7343 69.7382 82.7471 70.2094C82.7695 71.0557 83.7017 71.2337 84.2409 70.8471C84.7029 70.6947 85.1053 70.233 84.9752 69.6277C84.8701 69.1377 84.7276 68.667 84.5579 68.2107C83.8798 47.941 81.6343 23.602 61.7239 12.8009C57.3886 10.449 52.6494 9.14131 47.7706 8.71426C47.8434 8.58451 47.8911 8.43306 47.8938 8.25551C47.9234 6.29561 47.9185 4.33497 47.9295 2.37482C47.931 2.12289 47.8371 1.93021 47.6934 1.79437C47.7178 1.54657 47.7452 1.29854 47.7774 1.04978C47.9275 -0.0994336 46.1509 -0.441844 45.9917 0.719071C45.9529 0.984423 45.9199 1.24978 45.8903 1.51514C45.6118 3.85282 45.5207 6.26438 45.8624 8.59401C45.7727 8.59036 45.6834 8.5845 45.5937 8.58133C40.0847 8.39158 34.2331 8.81962 28.9823 10.5878C19.5444 13.7657 12.5179 21.6221 7.80389 30.1017C1.68036 41.1162 -0.874639 53.7712 0.26353 66.2859C0.286998 66.5437 0.412144 66.722 0.579838 66.8303C0.516281 67.4861 1.54739 68.0631 1.98496 67.4165C5.12031 62.7851 9.14151 57.4695 15.2707 57.191C22.4336 56.8654 25.9843 64.2345 28.3948 69.7557C28.6889 70.4291 29.8432 70.7042 30.1549 69.8609C32.3437 63.9397 36.9191 58.5175 43.6435 58.1102C43.8308 58.0988 44.0136 58.0946 44.1957 58.0917C43.9862 67.1871 44.0491 76.2922 44.019 85.3895C44.0055 89.5096 44.259 94.3259 41.374 97.6577C40.1439 99.0784 38.3076 100.203 36.36 99.9205C34.378 99.6327 32.7578 98.0806 32.7258 96.0582C32.705 94.7483 30.677 94.9081 30.6932 96.2136C30.7372 99.8098 34.3336 102.402 37.8028 101.948C41.9458 101.407 44.5433 97.4582 45.3865 93.6935C45.9433 91.2073 45.9042 88.6206 45.9032 86.0876C45.902 82.8599 45.8983 79.6323 45.8959 76.4049C45.8912 70.3301 45.9186 64.2523 45.7998 58.1785C51.684 58.9258 54.6786 64.3499 56.9468 69.6099ZM78.057 35.6541C81.4979 44.9892 82.252 54.9531 82.5899 64.8358C81.5478 63.5502 80.281 62.4224 78.9456 61.4159C76.1688 59.3231 72.9096 57.4037 69.3237 57.3937C64.6205 57.3807 61.1668 60.5547 58.9479 64.4172C59.5757 54.5226 59.1376 44.5544 57.7643 34.7412C56.5809 26.2865 54.6935 17.1506 48.767 10.6544C52.0747 11.0417 55.3136 11.8458 58.4196 13.2157C68.0352 17.4567 74.4978 25.9982 78.057 35.6541ZM16.0767 55.3974C9.65416 55.193 5.02958 60.0287 1.68841 64.9884C1.10954 54.9302 2.9361 44.7088 7.0737 35.5158C11.125 26.5148 17.5395 17.6809 26.7331 13.4189C31.5094 11.2046 36.8064 10.5698 42.0206 10.3954C42.784 10.3698 43.546 10.3625 44.3058 10.372C26.3906 21.5212 25.9036 44.4458 27.2733 63.3651C24.752 59.1709 21.3065 55.564 16.0767 55.3974ZM29.2448 67.0736C29.1399 66.8549 29.0333 66.6357 28.9248 66.4162C28.9876 66.302 29.0243 66.1654 29.016 66.0028C28.0281 47.1381 27.1249 22.9921 45.6962 11.7287C46.2413 11.3983 46.2105 10.8149 45.911 10.421C46.2029 10.4349 46.494 10.4522 46.7852 10.472C46.7392 10.6627 46.7725 10.8668 46.9321 11.0498C53.0625 18.0631 54.9753 27.0443 56.1604 36.0355C57.4585 45.8823 57.7286 55.7928 57.2414 65.7018C54.5454 60.4801 50.7784 56.0828 44.1505 56.162C37.2653 56.244 32.0007 61.1496 29.2448 67.0736Z" fill="#457BD2" fill-opacity="0.5"/>
</svg>
