<svg width="84" height="98" viewBox="0 0 84 98" fill="none" xmlns="http://www.w3.org/2000/svg">
<g opacity="0.2">
<path d="M77.0218 52.1975C79.7975 48.8156 81.6673 44.7585 82.5798 40.4868C84.4729 31.6264 82.4073 21.9802 76.912 14.7619C71.0532 7.06627 62.0484 2.18425 52.585 0.575514C34.1935 -2.55078 15.2683 7.3442 6.08401 23.349C-4.12142 41.1336 0.134254 63.9173 11.9028 79.857C17.7988 87.8424 26.2097 95.085 36.1167 97.3169C44.3923 99.1812 53.8552 97.1805 60.5341 91.9139C62.2227 90.5823 63.6728 89.0455 64.9363 87.3074C65.041 87.1635 65.0878 87.0213 65.0916 86.8877C66.3776 85.0866 67.3268 83.0741 67.699 80.8578C68.5689 75.6768 64.6172 71.0428 65.9312 65.9417C67.4642 59.9913 73.3389 56.6847 77.0218 52.1975ZM64.4859 71.2659C65.0841 73.6775 66.2103 75.975 66.3423 78.488C66.4782 81.0747 65.5482 83.56 64.1564 85.7025C64.0503 85.8656 63.9411 86.0262 63.8298 86.1857C63.6947 86.2447 63.5692 86.3407 63.4664 86.4821C58.4257 93.416 49.3079 96.6289 40.9546 96.265C31.3699 95.8475 22.7181 89.8166 16.5119 82.8781C3.80957 68.6768 -2.35887 46.7448 5.31529 28.676C12.0912 12.7222 28.8028 1.38942 46.2276 1.6808C55.5492 1.83663 64.9803 5.26375 71.8438 11.6525C78.4683 17.8189 82.0291 26.564 81.5815 35.6091C81.3677 39.9299 80.1981 44.2311 78.0225 47.9812C75.4179 52.4706 71.163 55.3435 67.8773 59.2513C64.9709 62.7078 63.3706 66.7705 64.4859 71.2659Z" fill="#87CFF8"/>
<path d="M54.0431 69.3705C53.0487 69.0088 52.2036 68.3837 51.1825 68.0602C49.9778 67.6784 48.6825 67.5969 47.4361 67.7838C45.0424 68.1427 42.8844 69.5004 41.3468 71.3491C38.5482 74.714 37.6576 80.2848 41.4365 83.3131C45.0735 86.2275 50.6556 85.4829 53.8481 82.2622C57.0822 78.9996 57.1907 73.729 54.5921 70.0854C54.5719 69.7912 54.4002 69.5004 54.0431 69.3705ZM53.1101 80.8649C50.4642 83.8322 45.1171 84.7955 42.0878 81.8104C39.1055 78.8717 40.6754 74.0479 43.387 71.5276C44.9815 70.0456 47.0618 69.1612 49.2567 69.342C50.904 69.4775 52.0765 70.4882 53.617 70.8648C55.5793 73.8756 55.5727 78.1035 53.1101 80.8649Z" fill="#87CFF8"/>
<path d="M20.4465 53.4916C20.088 53.2884 19.7492 53.3872 19.5239 53.6109C17.0939 52.2687 14.1164 53.6762 13.0539 56.2552C11.953 58.9273 12.9364 62.1004 15.6657 63.2751C18.1843 64.3591 21.4463 63.5111 22.7601 61.0085C24.1539 58.3536 22.9914 54.9341 20.4465 53.4916ZM21.4626 59.9388C20.7435 61.768 18.6158 62.4713 16.8065 61.9863C11.7815 60.6394 14.9733 52.2654 19.385 54.9899C19.5436 55.0879 19.7107 55.0909 19.8599 55.0371C21.4425 56.0667 22.1679 58.1455 21.4626 59.9388Z" fill="#E86300"/>
<path d="M73.111 37.3784C74.5046 34.7238 73.3423 31.3043 70.7974 29.8619C70.5582 29.7263 70.214 29.7135 69.9815 29.8747C69.9371 29.9055 69.8927 29.9362 69.8485 29.9669C67.4231 28.6508 64.4645 30.0561 63.4056 32.6255C62.3045 35.2975 63.2879 38.4698 66.0168 39.6448C68.5352 40.7292 71.7972 39.8806 73.111 37.3784ZM67.1576 38.3566C62.285 37.0511 65.1378 29.1396 69.3342 31.1405C69.5035 31.5463 69.9479 31.8251 70.4094 31.5445C71.8531 32.6139 72.489 34.5921 71.8139 36.3091C71.0946 38.1385 68.9671 38.8415 67.1576 38.3566Z" fill="#EF2800"/>
<path d="M33.6769 11.6479C33.3183 11.4446 32.9797 11.5437 32.7542 11.7672C30.3241 10.4249 27.3466 11.8324 26.2843 14.4115C25.1835 17.0835 26.1669 20.2566 28.8961 21.4312C31.4148 22.5152 34.6768 21.6671 35.9905 19.1646C37.3844 16.51 36.2219 13.0905 33.6769 11.6479ZM34.6931 18.0953C33.974 19.9243 31.8463 20.6277 30.037 20.1428C25.012 18.7959 28.2037 10.4219 32.6154 13.1466C32.7743 13.2446 32.9414 13.2474 33.0904 13.1937C34.673 14.2231 35.3983 16.3018 34.6931 18.0953Z" fill="#11AD00"/>
<path d="M20.1468 36.7779C21.5404 34.1231 20.3781 30.7036 17.8332 29.2612C17.4745 29.0579 17.136 29.1567 16.9104 29.3804C14.4804 28.0382 11.5029 29.4457 10.4406 32.0248C9.33971 34.6968 10.3231 37.8699 13.0524 39.0447C15.571 40.1285 18.8329 39.2804 20.1468 36.7779ZM16.7715 30.7596C16.9303 30.8576 17.0974 30.8604 17.2466 30.8068C18.8292 31.8362 19.5544 33.915 18.8493 35.7085C18.1302 37.5376 16.0026 38.241 14.1932 37.756C9.16802 36.409 12.36 28.035 16.7715 30.7596Z" fill="#457BD2"/>
<path d="M57.0912 11.4994C56.7326 11.2962 56.394 11.3952 56.1685 11.6187C53.7384 10.2765 50.7609 11.684 49.6984 14.2631C48.5975 16.9351 49.5809 20.1082 52.3102 21.283C54.829 22.367 58.0909 21.5189 59.4046 19.0164C60.7985 16.3614 59.6361 12.9419 57.0912 11.4994ZM58.1073 17.9466C57.3882 19.7758 55.2606 20.4791 53.4512 19.9941C48.4262 18.6473 51.618 10.2733 56.0297 12.9977C56.1885 13.0957 56.3556 13.0987 56.5046 13.0449C58.0873 14.0745 58.8126 16.1533 58.1073 17.9466Z" fill="#FFBD17"/>
</g>
</svg>
