<svg width="19" height="89" viewBox="0 0 19 89" fill="none" xmlns="http://www.w3.org/2000/svg">
<path d="M6.51125 89H9.25396C13.127 82.9508 15.5295 76.0531 15.2661 68.4761C15.1078 63.9195 13.9364 57.6479 10.0126 54.7938C17.5077 47.0376 21.799 34.5022 16.9286 25.022C15.6388 22.5115 13.0789 20.1357 10.2581 18.9371C12.7676 12.523 14.0192 3.04999 7.73017 0.0940871C6.66952 -0.404364 5.84932 1.21374 6.90035 1.7629C10.4055 3.59406 10.3607 8.69829 9.91909 12.1703C9.65065 14.2818 9.10239 16.353 8.2927 18.3099C5.55115 17.7376 2.78163 18.4443 0.84599 21.3306C-0.406737 23.1987 -0.457737 26.1315 1.99642 26.9564C4.74641 27.8807 7.09739 24.8726 8.36673 22.8209C8.72319 22.2444 9.08345 21.5782 9.4335 20.8448C12.3671 21.8357 14.5689 24.7355 15.6651 27.6409C18.8811 36.1653 14.6225 47.1031 7.86919 53.6982C4.21069 52.5599 -0.442003 55.3682 0.11878 59.619C0.21205 60.3257 0.885926 60.9892 1.628 60.6852C3.95974 59.7297 6.209 58.2728 8.27288 56.4551C10.0975 57.591 11.2187 59.9502 11.8515 61.9056C13.2914 66.3563 13.245 71.2886 12.2978 75.8359C11.2904 80.6716 9.22947 85.0553 6.51125 89ZM6.47394 21.8225C5.89421 22.7369 5.23636 23.7172 4.32349 24.3246C2.88743 25.2798 2.09289 23.5087 2.81252 22.3773C3.6435 21.071 5.72953 20.5194 7.11721 20.4867C7.16355 20.4855 7.20873 20.4877 7.25478 20.4874C7.00907 20.9411 6.74996 21.3871 6.47394 21.8225ZM5.34887 55.8642C4.54355 56.4683 3.7152 57.0102 2.86994 57.4793C3.40595 56.6408 4.33981 56.0593 5.34887 55.8642Z" fill="#FFBD17"/>
</svg>
