<svg width="101" height="91" viewBox="0 0 101 91" fill="none" xmlns="http://www.w3.org/2000/svg">
<g opacity="0.2">
<path d="M80.8052 82.3232C82.9705 76.2472 85.3279 70.1981 87.2291 64.0321C87.4212 63.7642 87.4752 63.4044 87.3282 63.1285C87.201 62.8362 86.8827 62.6652 86.5733 62.6872C80.3513 60.9259 74.2553 58.7725 68.2115 56.479C68.1641 56.461 68.1169 56.4427 68.0696 56.4245C68.0678 56.4033 68.0676 56.3819 68.0638 56.3609C72.1587 45.3948 75.1292 33.8952 78.0157 22.5677C78.1416 22.0736 77.8866 21.6763 77.5338 21.4776C77.6855 21.1497 77.5965 20.7052 77.1541 20.483C71.6651 17.7256 65.5441 15.8971 59.8019 13.7219C54.396 11.6742 48.7351 9.21993 42.9716 8.42824C42.1814 8.31969 41.8164 9.34261 42.236 9.86008C41.9242 9.6284 41.4191 9.66258 41.2112 10.1428C38.9068 15.4627 37.1344 21.0711 35.1851 26.5297C33.2785 31.8686 31.1077 37.1904 29.5068 42.6317C29.44 42.6091 29.3734 42.586 29.3066 42.5636C26.1268 41.4876 22.9363 40.4431 19.7347 39.4351C16.9009 38.5428 14.0201 37.4411 11.0134 37.4442C10.4 37.4449 10.0666 37.9439 10.0586 38.421C9.82991 38.4798 9.6232 38.638 9.51148 38.9284C7.26822 44.7619 5.29733 50.7161 3.21648 56.6095C2.44123 58.8053 1.61098 61.0032 0.791536 63.2093L2.5188 63.8247C3.27672 61.5967 4.02121 59.3685 4.80689 57.1762C6.91597 51.2928 9.14847 45.4316 11.0938 39.4921C11.1173 39.4202 11.1297 39.3514 11.1361 39.2848C14.1212 39.3827 16.9995 40.5243 19.8219 41.4113C22.9057 42.3806 25.9802 43.3808 29.0439 44.412C32.1076 45.4434 35.1588 46.5109 38.2029 47.5989C41.2184 48.6767 44.2554 50.0094 47.3698 50.7619C47.6307 50.8249 47.891 50.7178 48.0709 50.5411C48.2294 50.5974 48.3886 50.6528 48.5467 50.7093C48.5729 50.7187 48.5988 50.7281 48.625 50.7375C46.5995 56.6767 44.8687 62.727 42.8601 68.6746C41.9031 71.5083 40.9431 74.3408 39.9884 77.1751L41.4927 77.7111C42.455 74.8792 43.4238 72.0497 44.3764 69.2148C46.365 63.2976 48.5638 57.327 50.0261 51.244C50.9707 51.5883 51.915 51.9381 52.86 52.2899C57.7237 54.3592 62.7369 56.1628 67.6543 58.0434C73.5472 60.2973 79.4935 62.4073 85.5576 64.1531C83.2445 69.9365 81.3075 75.8939 79.2185 81.7583C78.2324 84.5266 77.1866 87.2909 76.1654 90.065L77.9177 90.6894C78.8809 87.8942 79.8188 85.0916 80.8052 82.3232ZM31.1222 42.8442C33.2582 37.7111 34.9121 32.3293 36.7727 27.0952C38.714 21.6339 40.8875 16.1682 42.4662 10.5897C42.537 10.3396 42.4799 10.1286 42.3581 9.97655C42.4312 10.0323 42.5154 10.0791 42.6176 10.1084C48.3512 11.7643 53.9451 13.4553 59.5401 15.5665C65.0649 17.6512 70.642 20.2168 76.3503 21.7582C76.3223 21.8155 76.2989 21.8788 76.2808 21.9493C73.4113 33.2112 69.8701 44.2604 66.7635 55.4495C61.2426 53.1735 55.4719 51.3769 49.8371 49.3967C49.7915 49.3756 49.7445 49.3586 49.6964 49.347C49.4996 49.2778 49.3026 49.209 49.106 49.1389C43.1595 47.0264 37.209 44.5328 31.1222 42.8442Z" fill="#E86300"/>
<path d="M55.1451 37.3468C56.2395 33.823 57.4451 30.3496 58.8154 26.923C59.1091 26.1887 58.145 25.5532 57.5628 26.0536C55.5941 27.7454 53.4499 29.2051 51.4657 30.8694C50.903 31.3415 51.5022 32.3408 52.1754 31.9734C53.5975 31.1974 54.9325 30.2343 56.2168 29.2147C55.2665 31.7145 54.3967 34.2441 53.6294 36.8069C53.3341 37.7938 54.8369 38.3397 55.1451 37.3468Z" fill="#EF2800"/>
<path d="M25.3215 63.342C26.9229 62.1244 27.7903 60.0039 27.3651 58.0187C26.5762 54.3356 20.9521 53.4679 20.0143 57.5026C19.8561 58.1829 20.8382 58.8859 21.2314 58.1312C22.5299 55.6377 25.9706 56.037 25.8331 59.2074C25.7305 61.573 23.7418 62.4904 21.7977 63.1C19.496 63.8219 17.2856 64.7738 16.8524 67.3955C16.7431 68.0562 17.5071 68.4117 18.0334 68.2042C20.3072 67.3077 22.8165 68.2992 23.9403 70.4441C24.442 71.4016 25.9581 70.6884 25.4603 69.7227C24.2048 67.2867 21.6461 66.0053 19.0614 66.2805C20.412 64.6364 23.7022 64.5734 25.3215 63.342Z" fill="#11AD00"/>
<path d="M56.32 79.4708C55.534 78.687 54.2024 79.8026 54.994 80.5865C57.3935 82.9624 62.0102 85.046 64.4624 81.4602C66.0014 79.2096 65.0094 76.9089 63.1796 75.5472C65.2727 74.8893 66.9771 73.4006 66.6384 70.8352C66.1311 66.9911 61.7966 67.6198 59.8745 69.9493C59.3935 70.5324 60.3081 71.3723 60.8554 70.8471C61.546 70.1844 62.5902 69.3257 63.6539 69.5068C65.052 69.7447 65.3316 71.1683 64.9341 72.2544C64.2323 74.172 61.8622 74.428 60.1204 74.3415C59.089 74.2903 58.9703 75.8444 60.0027 75.9443C61.2433 76.0643 62.4943 76.5411 63.1609 77.6833C63.8566 78.8753 63.5515 80.4187 62.3716 81.165C60.2261 82.5219 57.8637 81.0101 56.32 79.4708Z" fill="#457BD2"/>
</g>
</svg>
