<svg width="147" height="431" viewBox="0 0 147 431" fill="none" xmlns="http://www.w3.org/2000/svg">
<g opacity="0.2">
<path d="M21.0078 20.346C10.1345 32.5374 2.36701 48.0116 0.0195052 64.2294C-0.0525523 64.727 0.0807717 65.1569 0.324885 65.4892C0.505274 66.1093 1.01801 66.6294 1.87437 66.6637C14.4035 67.1657 26.9891 67.175 39.5742 67.076C39.1217 74.7175 39.3992 82.4541 39.3884 90.101C39.3771 98.0881 38.9286 106.232 39.4903 114.199C29.2665 113.97 19.0422 113.774 8.81983 113.684C7.43505 113.672 6.9277 114.994 7.28602 115.996C6.99534 116.277 6.78261 116.677 6.72672 117.206C5.82723 125.701 6.53702 134.612 6.56104 143.155C6.58407 151.427 5.97332 160.058 6.88212 168.297C6.71056 168.922 6.88115 169.629 7.39633 170.075C7.76005 170.476 8.29141 170.63 8.78405 170.53C18.9873 171.299 29.3969 170.856 39.6403 170.814C39.6394 170.823 39.6369 170.83 39.6359 170.839C39.0844 178.839 39.3992 186.955 39.3879 194.97C39.3766 202.969 38.9261 211.123 39.4918 219.101C39.535 219.708 39.806 220.143 40.1741 220.417C29.7224 220.162 19.2701 219.941 8.81935 219.849C7.43458 219.836 6.92722 221.158 7.28554 222.16C6.99486 222.441 6.78213 222.841 6.72625 223.371C5.82675 231.865 6.53654 240.777 6.56056 249.32C6.5836 257.591 5.97284 266.222 6.88164 274.461C6.71008 275.086 6.88066 275.793 7.39633 276.239C7.76005 276.641 8.29139 276.794 8.78354 276.694C18.9618 277.461 29.3454 277.022 39.5643 276.978C39.1251 284.566 39.3982 292.247 39.3874 299.84C39.3761 307.838 38.9256 315.992 39.4913 323.971C39.5094 324.23 39.5722 324.456 39.6624 324.655C29.3807 324.711 19.0986 324.793 8.81884 324.718C7.43505 324.708 6.92722 326.029 7.28408 327.03C6.99389 327.312 6.78163 327.711 6.72526 328.24C5.82577 336.735 6.53555 345.646 6.55957 354.189C6.58261 362.46 5.97185 371.091 6.88066 379.33C6.70909 379.955 6.87967 380.663 7.39535 381.108C7.75907 381.51 8.29044 381.663 8.78258 381.563C18.953 382.329 29.3283 381.892 39.5394 381.848C39.1354 389.295 39.3972 396.829 39.3869 404.277C39.3756 412.276 38.9252 420.43 39.4908 428.408C39.5232 428.864 39.6854 429.22 39.9183 429.488C40.0977 430.111 40.6114 430.634 41.4722 430.672C51.8578 431.117 62.3154 430.799 72.7103 430.808C83.0831 430.817 93.5937 431.307 103.948 430.685C105.381 430.599 105.871 429.226 105.428 428.249C106.354 412.854 105.84 397.266 105.505 381.844C110.321 381.844 115.137 381.843 119.954 381.843C125.116 381.843 130.643 382.434 135.702 381.308C136.411 381.202 137.054 380.674 137.109 379.717C137.619 370.845 137.373 361.875 137.524 352.987C137.672 344.371 138.616 335.233 137.604 326.659C137.814 325.623 137.24 324.384 135.868 324.357C125.707 324.156 115.545 324.265 105.383 324.416C105.388 324.379 105.398 324.347 105.4 324.308C106.377 308.609 105.833 292.703 105.496 276.975C110.315 276.974 115.134 276.974 119.953 276.974C125.115 276.973 130.643 277.565 135.702 276.439C136.41 276.333 137.054 275.804 137.109 274.848C137.619 265.976 137.372 257.006 137.524 248.118C137.671 239.501 138.616 230.363 137.604 221.788C137.815 220.752 137.24 219.512 135.868 219.488C125.614 219.304 115.375 219.761 105.137 220.27C105.28 220.042 105.379 219.77 105.399 219.439C106.403 203.309 105.802 186.961 105.468 170.811C110.296 170.811 115.124 170.81 119.953 170.81C125.115 170.809 130.642 171.401 135.701 170.275C136.41 170.169 137.053 169.64 137.108 168.684C137.618 159.812 137.372 150.843 137.523 141.954C137.671 133.338 138.615 124.2 137.603 115.626C137.813 114.59 137.238 113.351 135.867 113.324C125.734 113.124 115.6 113.231 105.466 113.381C106.352 97.9367 105.815 82.3031 105.486 66.8431C106.283 66.8436 107.08 66.8441 107.877 66.8446C119.982 66.8519 132.258 67.4436 144.342 66.7127C145.711 66.6299 146.237 65.3917 145.923 64.4182C146.099 64.0696 146.18 63.6569 146.11 63.1927C142.228 37.3059 124.099 14.7838 99.7421 5.26436C74.1426 -4.74428 39.9477 -0.889924 21.0078 20.346ZM10.2281 166.916C10.932 159.097 10.3884 150.966 10.4105 143.155C10.4345 134.612 11.1443 125.701 10.2448 117.206C10.2423 117.184 10.2355 117.165 10.2326 117.143C30.1562 117.843 50.1029 118.16 70.0344 118.608C69.3447 126.678 69.978 135.081 70.0005 143.155C70.0226 150.963 69.479 159.092 70.1824 166.909C65.9845 166.35 61.5649 166.739 57.3724 166.738C51.9406 166.738 46.5088 166.737 41.0766 166.737C30.8537 166.737 20.4456 166.259 10.2281 166.916ZM10.2281 273.08C10.932 265.261 10.3884 257.13 10.4105 249.32C10.4345 240.777 11.1443 231.866 10.2448 223.371C10.2423 223.348 10.2355 223.329 10.2326 223.307C30.1542 224.012 50.0975 224.395 70.027 224.85C69.3481 232.896 69.978 241.271 70.0005 249.319C70.0226 257.127 69.479 265.256 70.1824 273.074C65.9845 272.514 61.5654 272.903 57.3724 272.902C51.9406 272.902 46.5088 272.902 41.0766 272.901C30.8537 272.901 20.4456 272.423 10.2281 273.08ZM10.2281 377.95C10.932 370.13 10.3884 361.999 10.4105 354.189C10.4345 345.646 11.1443 336.735 10.2448 328.24C10.2423 328.216 10.2345 328.195 10.2316 328.172C30.1915 328.798 50.1803 328.092 70.1476 328.439C69.28 336.874 69.9765 345.712 70.0005 354.189C70.0226 361.997 69.479 370.126 70.1824 377.944C65.9845 377.384 61.5649 377.773 57.3724 377.773C51.9406 377.772 46.5088 377.772 41.0766 377.771C30.8537 377.77 20.4456 377.292 10.2281 377.95ZM72.7113 427.157C62.8237 427.166 52.8798 426.886 42.9942 427.241C43.4417 419.635 43.0437 411.886 43.0329 404.277C43.0226 396.827 43.2844 389.292 42.8805 381.843C47.425 381.842 51.9695 381.842 56.5145 381.842C61.3757 381.841 66.5614 382.367 71.375 381.488C71.6456 381.596 71.9407 381.621 72.2236 381.563C81.9503 382.296 91.8644 381.928 101.644 381.855C101.97 396.961 101.617 412.096 102.076 427.192C92.3276 426.728 82.4596 427.149 72.7113 427.157ZM134.346 328.023C133.524 336.207 134.11 344.792 133.966 352.986C133.82 361.27 133.355 369.661 133.692 377.953C129.473 377.379 125.028 377.773 120.812 377.773C115.38 377.772 109.948 377.772 104.517 377.771C94.2937 377.77 83.8856 377.292 73.6676 377.95C74.3716 370.13 73.8279 361.999 73.85 354.189C73.874 345.646 74.5838 336.735 73.6843 328.24C73.6819 328.215 73.674 328.194 73.6706 328.169C93.8854 328.775 114.124 327.673 134.346 328.023ZM72.2593 324.718C72.0897 324.717 71.9378 324.742 71.7941 324.778C62.1193 324.59 52.4416 324.595 42.7638 324.641C42.8511 324.445 42.9119 324.224 42.9295 323.971C43.4952 315.992 43.0447 307.837 43.0334 299.84C43.0231 292.246 43.2957 284.563 42.8564 276.974C47.4093 276.973 51.9622 276.973 56.515 276.973C61.3762 276.972 66.5619 277.498 71.3755 276.619C71.6461 276.726 71.9412 276.752 72.224 276.694C81.9479 277.427 91.859 277.059 101.635 276.986C101.99 292.754 101.577 308.553 102.118 324.307C102.12 324.363 102.132 324.41 102.138 324.463C92.1781 324.617 82.2185 324.785 72.2593 324.718ZM134.345 223.162C133.525 231.344 134.11 239.926 133.966 248.117C133.82 256.401 133.355 264.792 133.693 273.083C129.474 272.51 125.028 272.904 120.812 272.904C115.381 272.903 109.949 272.902 104.517 272.902C94.2942 272.901 83.8861 272.423 73.6681 273.081C74.372 265.261 73.8284 257.13 73.8505 249.32C73.873 241.253 74.5054 232.859 73.8186 224.796C94.0035 225.309 114.154 222.912 134.345 223.162ZM73.1044 221.352C72.9049 221.272 72.6838 221.218 72.4299 221.213C62.3477 220.992 52.2636 220.716 42.1785 220.467C42.5819 220.198 42.8834 219.747 42.929 219.102C43.4947 211.123 43.0442 202.969 43.0329 194.971C43.0221 186.955 43.3363 178.839 42.7849 170.84C42.7839 170.829 42.7809 170.82 42.78 170.81C47.3578 170.809 51.9362 170.809 56.514 170.808C61.3752 170.808 66.5609 171.333 71.374 170.454C71.6446 170.562 71.9397 170.588 72.2226 170.53C81.9381 171.262 91.8403 170.896 101.608 170.822C102.018 187.019 101.561 203.252 102.117 219.437C102.13 219.833 102.248 220.155 102.433 220.402C92.6634 220.891 82.8915 221.376 73.1044 221.352ZM134.346 116.989C133.524 125.174 134.11 133.759 133.966 141.952C133.82 150.237 133.355 158.628 133.692 166.919C129.473 166.346 125.028 166.739 120.812 166.739C115.38 166.739 109.948 166.738 104.517 166.738C94.3226 166.737 83.9444 166.261 73.7549 166.91C73.7946 166.059 73.8309 165.208 73.8588 164.356C74.0387 161.224 74.0525 158.053 74.0142 154.883C74.0319 150.567 74.0127 146.25 74.0863 141.952C74.225 133.847 75.0696 125.28 74.3274 117.154C94.3236 117.718 114.343 116.643 134.346 116.989ZM102.06 112.447C92.2859 111.972 82.391 112.393 72.6137 112.401C62.8017 112.409 52.8313 111.934 43.0251 112.519C43.4226 105.088 43.0437 97.5274 43.0334 90.1005C43.0231 82.4443 43.3006 74.6984 42.8461 67.048C52.9469 66.9554 63.0448 66.8137 73.1098 66.8201C82.6155 66.826 92.1212 66.8318 101.627 66.8377C101.981 82.034 101.619 97.2597 102.06 112.447ZM53.8484 6.02172C79.5509 -0.190912 107.293 7.64421 125.054 27.411C134.068 37.4437 140.004 49.8503 142.207 63.1314C131.095 62.6001 119.839 63.1074 108.727 63.1143C96.8544 63.1216 84.9817 63.129 73.1093 63.1363C49.9647 63.1505 26.6484 62.3863 3.51454 63.2349C6.63409 50.4488 11.7188 38.3956 19.7775 27.8752C28.5386 16.4377 39.8447 9.40695 53.8484 6.02172Z" fill="#457BD2"/>
<path d="M72.4404 395.759C70.4322 399.707 67.6925 402.65 64.6313 405.783C63.4499 406.992 64.994 409.169 66.4866 408.188C68.6621 406.758 70.5214 404.907 72.113 402.84C72.0517 407.125 71.9954 411.411 71.9753 415.696C71.9645 418.005 75.5267 418.005 75.56 415.696C75.6531 409.345 75.6673 402.994 75.7012 396.642C75.71 394.967 73.2439 394.179 72.4404 395.759Z" fill="#FFBD17"/>
<path d="M44.0483 361.379C42.164 361.285 40.2694 361.294 38.3758 361.313C42.6826 356.332 49.684 350.671 43.5346 344.511C38.9503 339.918 30.1559 343.965 32.3382 350.628C32.8715 352.256 35.5185 352.067 35.4445 350.207C35.3205 347.082 38.3131 344.704 40.8723 347.178C43.2326 349.459 41.5243 352.691 39.7047 354.732C37.4308 357.281 34.7769 359.226 33.0754 362.261C32.3916 363.481 33.2504 365.065 34.6808 365.059C37.7969 365.046 40.9376 365.155 44.0488 364.991C46.3688 364.868 46.3762 361.494 44.0483 361.379Z" fill="#EF2800"/>
<path d="M99.1535 362.188C96.6835 361.951 96.709 365.796 99.1535 366.041C103.976 366.525 111.503 365.262 112.211 359.247C112.652 355.503 110.126 353.517 107.103 352.898C109.909 349.703 112.15 345.663 108.705 342.144C105.105 338.467 97.7555 342.158 97.4893 346.853C97.3874 348.65 100.187 349.008 100.615 347.276C100.823 346.438 102.023 345.1 102.831 344.926C104.074 345.173 105.317 345.42 106.559 345.667C106.718 347.064 106.355 348.233 105.47 349.174C104.376 350.864 102.547 352.217 101.094 353.58C99.7084 354.88 101.145 357.263 102.936 356.745C105.166 355.717 106.697 356.977 107.526 360.526C106.781 361.17 105.945 361.605 105.02 361.83C103.099 362.488 101.126 362.377 99.1535 362.188Z" fill="#E86300"/>
<path d="M78.3341 302.234C78.4439 299.487 78.5141 296.74 78.4866 293.995C78.466 291.889 75.519 292 75.2906 293.995C75.0043 296.492 74.7975 298.999 74.6278 301.509C73.5602 301.594 72.4921 301.666 71.4161 301.672C70.6005 301.677 69.7848 301.658 68.9701 301.615C68.5819 301.595 67.1486 301.449 67.1677 301.472C66.7956 301.021 68.0103 297.11 68.1363 296.424C68.5083 294.395 68.8304 292.362 69.1275 290.32C69.399 288.453 66.727 287.582 66.2133 289.516C65.4667 292.327 64.7952 295.149 64.179 297.99C63.8226 299.633 62.6339 302.416 63.8226 303.996C64.9006 305.428 67.4118 305.256 68.9706 305.352C70.775 305.463 72.5921 305.453 74.396 305.303C74.2528 307.864 74.1288 310.426 73.9847 312.983C73.8465 315.435 77.6856 315.436 77.8043 312.983C77.9435 310.104 78.1087 307.221 78.2435 304.337C78.6621 303.756 78.6719 302.891 78.3341 302.234Z" fill="#457BD2"/>
<path d="M47.8465 253.039C48.3524 246.555 41.6922 245.517 36.6011 246.058C36.5904 243.767 36.5742 241.468 36.3992 239.187C39.5668 239.268 42.7402 239.221 45.9063 239.15C48.1882 239.098 48.1965 235.546 45.9063 235.598C42.1824 235.684 38.4496 235.792 34.7379 236.118C33.985 236.184 33.5238 236.653 33.3561 237.202C33.2777 237.375 33.2198 237.569 33.1968 237.793C32.8404 241.247 32.9242 244.751 32.9061 248.22C32.8992 249.491 34.0919 250.245 35.2536 250.008C37.6614 249.518 45.8485 248.091 43.7147 254.128C42.5711 257.363 37.5933 257.604 35.0497 256.501C32.4625 255.38 30.9037 259 33.5394 260.084C38.9957 262.327 47.3176 259.825 47.8465 253.039Z" fill="#87CFF8"/>
<path d="M99.8636 255.978C103.742 258.017 111.404 256.928 110.991 251.2C110.576 245.422 103.072 245.616 99.5013 248.201C99.2425 246.515 99.3984 244.695 99.8778 243.316C101.34 239.109 105.707 237.98 109.672 238.512C111.152 238.711 111.801 236.247 110.445 235.659C105.798 233.643 100.194 235.654 97.4749 239.889C94.7078 244.198 94.7308 253.279 99.8636 255.978ZM101.785 251.235C102.54 250.425 103.429 250.082 104.453 250.208C106.251 249.847 106.27 250.849 104.512 253.215C103.284 253.633 101.905 252.61 101.158 251.883C101.088 251.816 101.025 251.739 100.96 251.666C101.242 251.596 101.523 251.462 101.785 251.235Z" fill="#FFBD17"/>
<path d="M68.722 207.154C68.1739 209.517 71.819 210.525 72.3597 208.157C72.8984 205.796 73.5714 203.519 74.3571 201.278C73.0694 201.244 71.7587 201.121 70.4616 200.967C69.7827 202.996 69.2082 205.057 68.722 207.154Z" fill="#11AD00"/>
<path d="M78.9305 186.111C78.8863 185.395 78.4109 184.509 77.6143 184.383C73.7477 183.771 69.9189 183.419 66.0067 183.756C64.0175 183.927 63.9626 186.813 66.0067 186.892C69.1385 187.012 72.2134 187.172 75.3041 187.623C74.9953 190.916 73.3085 193.769 72.0178 196.831C71.9502 196.992 71.8865 197.154 71.8203 197.316C73.1531 197.334 74.4825 197.403 75.7737 197.57C76.0589 196.876 76.3511 196.184 76.6575 195.492C78.0271 192.398 79.1427 189.546 78.9305 186.111Z" fill="#11AD00"/>
<path d="M66.7389 197.368C64.6737 197.397 64.7982 200.25 66.7389 200.49C67.9447 200.64 69.1971 200.818 70.4628 200.968C71.7598 201.122 73.0706 201.246 74.3583 201.279C75.1843 201.3 76.0009 201.285 76.7985 201.215C78.6078 201.055 79.318 198.218 77.2597 197.806C76.7725 197.708 76.2754 197.633 75.7745 197.569C74.4828 197.402 73.1539 197.333 71.8211 197.315C70.1035 197.291 68.383 197.344 66.7389 197.368Z" fill="#457BD2"/>
<path d="M48.1965 149.763C51.3597 145.997 49.4607 141.523 45.4819 139.426C45.1784 139.266 44.802 139.101 44.3833 138.929C46.7701 136.604 48.672 133.775 47.9298 130.651C46.8583 126.142 41.8148 125.974 38.4482 128.008C34.858 130.178 32.6782 134.76 35.5531 138.393C36.2065 139.219 37.0198 139.838 37.9065 140.348C37.8859 140.368 37.8649 140.387 37.8443 140.407C37.6502 140.592 37.5359 140.807 37.4756 141.032C34.213 142.684 33.4159 146.928 35.9105 149.847C38.9295 153.38 45.2446 153.277 48.1965 149.763ZM39.4065 132.065C40.9422 130.341 42.5702 130.646 44.2897 132.979C43.8167 134.153 43.1373 135.178 42.2515 136.054C41.8456 136.546 41.4065 137.016 40.9516 137.474C38.5369 136.272 36.7511 134.629 39.4065 132.065ZM39.4702 143.979C40.0084 143.595 40.2413 142.975 40.2305 142.372C40.4996 142.17 40.7785 141.96 41.0658 141.74C42.5471 142.206 44.7476 142.715 45.3804 143.934C45.9515 147.191 44.7873 148.753 41.8883 148.619C39.2379 148.651 38.432 147.104 39.4702 143.979Z" fill="#FF7BA7"/>
<path d="M97.5925 142.101C100.184 143.923 103.944 143.642 106.411 141.74C106.615 141.583 106.805 141.417 106.987 141.246C106.994 141.53 107.003 141.812 107.007 142.098C107.027 143.905 107.262 147.114 106.056 148.463C104.349 150.371 101.406 150.104 99.1356 149.97C96.6592 149.823 96.6548 153.709 99.1356 153.829C103.477 154.04 108.703 153.177 110.311 148.446C112.074 143.259 110.639 135.208 108.973 130.166C108.605 129.053 107.56 128.717 106.674 128.934C106.489 128.742 106.235 128.599 105.902 128.54C102.087 127.86 98.1655 129.347 96.1376 132.793C94.3808 135.779 94.6038 140 97.5925 142.101ZM100.455 133.272C101.851 132.046 103.691 131.711 105.475 131.693C105.487 131.693 105.498 131.689 105.51 131.689C106.257 134.844 105.72 140.175 101.396 139.606C97.9709 139.155 98.4204 135.058 100.455 133.272Z" fill="#EF2800"/>
<path d="M63.7112 80.728C63.1264 86.6225 63.2892 92.6885 63.5421 98.6002C63.6431 100.963 67.2783 100.988 67.2342 98.6002C67.1244 92.6571 67.2258 86.6602 66.8739 80.728C66.7518 78.6702 63.9102 78.7197 63.7112 80.728Z" fill="#457BD2"/>
<path d="M78.0112 99.4441C82.7135 100.81 86.9571 97.3201 88.3668 93.0437C89.6845 89.0467 90.3256 81.5527 85.5659 79.517C85.1576 79.3425 84.7596 79.3116 84.3939 79.3797C84.2723 79.2832 84.137 79.1998 83.9802 79.1435C78.8528 77.3092 74.4392 81.8444 73.473 86.5669C72.5711 90.9712 72.7814 97.9255 78.0112 99.4441ZM77.0475 87.7854C77.5411 84.5865 79.5646 82.0861 82.7929 82.0826C82.9478 82.3787 83.2184 82.6385 83.6346 82.8208C86.0394 83.8743 85.5321 88.0394 85.1591 90.154C84.6689 92.9285 82.8596 96.4363 79.4822 95.8461C76.4068 95.3089 76.6744 90.2001 77.0475 87.7854Z" fill="#87CFF8"/>
</g>
</svg>
