<svg width="172" height="142" viewBox="0 0 172 142" fill="none" xmlns="http://www.w3.org/2000/svg">
<path d="M79.3601 122.469C99.2322 126.042 123.006 119.768 134.7 102.357C145.766 85.8803 142.398 59.8231 125.735 48.3338C109.205 36.9364 84.1318 40.8523 70.0019 54.5858C56.5493 67.6608 58.7203 90.0815 73.3387 101.215C88.514 112.773 110.806 108.271 120.998 92.2896C126.379 83.8528 125.627 74.3878 118.628 67.1528C112.328 60.6397 101.994 56.9877 93.3571 60.8422C86.0757 64.0917 79.788 73.7272 84.5382 81.4966C87.8549 86.9219 97.9198 87.7222 100.745 81.3475C101.887 78.7715 101.308 75.5165 98.3826 74.6343C96.6558 74.1135 95.9183 76.8109 97.6392 77.3311C100.188 78.1019 97.3292 81.5652 96.3424 82.1509C94.8326 83.0469 92.9515 83.2477 91.25 82.8985C86.257 81.8735 84.9868 76.476 86.3825 72.119C89.2134 63.2827 99.4066 60.398 107.502 63.223C115.843 66.1337 123.725 74.658 121.632 84.0297C119.841 92.0543 112.905 98.7341 105.683 102.143C91.1383 109.007 73.0488 102.958 66.1671 88.1938C62.7748 80.9158 62.9469 72.1509 66.2005 64.8559C69.7412 56.917 76.8701 51.895 84.6408 48.5103C99.9593 41.8381 119.313 42.9317 130.654 56.4145C136.647 63.5386 138.648 73.6412 138.275 82.7501C137.904 91.7993 134.234 100.1 127.89 106.544C115.469 119.158 94.8749 123.321 77.936 119.546C69.7079 117.712 62.0179 113.674 56.3637 107.348C50.0993 100.34 47.9009 91.2681 47.593 82.0594C47.2802 72.7092 49.0812 63.0191 54.4809 55.212C59.824 47.487 68.2369 42.4591 77.0139 39.5343C94.698 33.6412 119.897 33.3041 130.367 51.7334C131.055 52.9446 132.901 51.8637 132.233 50.6425C121.733 31.4365 96.2019 30.967 77.6978 36.6739C68.626 39.4718 59.868 44.2838 53.8817 51.8069C47.6398 59.6508 45.0939 69.656 45.0159 79.5524C44.9354 89.7688 47.0368 100.104 53.6702 108.132C60.0976 115.911 69.5224 120.7 79.3601 122.469Z" fill="#FFBD17"/>
<path d="M78.3232 21.8893C76.2871 15.0867 75.4226 8.19287 75.2246 1.11009C75.1833 -0.368469 72.9655 -0.371589 72.9257 1.11009C72.7304 8.36729 74.0193 15.5722 76.2524 22.4601C76.6762 23.7666 78.722 23.2219 78.3232 21.8893Z" fill="#FFBD17"/>
<path d="M139.287 12.56C135.7 16.653 132.535 21.1879 129.611 25.7706C128.836 26.9853 130.718 28.0422 131.522 26.8878C134.594 22.4796 137.879 18.2554 141.092 13.9529C141.871 12.9109 140.143 11.5828 139.287 12.56Z" fill="#FFBD17"/>
<path d="M156.58 74.5454C161.158 73.8759 165.707 73.4629 170.319 73.1401C171.776 73.0381 171.812 70.8501 170.319 70.846C165.529 70.8317 160.679 71.4271 156.003 72.4521C154.61 72.7572 155.235 74.7421 156.58 74.5454Z" fill="#FFBD17"/>
<path d="M153.337 139.537C149.567 135.869 146.522 132.02 143.929 127.436C143.235 126.208 141.533 127.286 142.079 128.517C144.205 133.316 147.619 137.865 151.708 141.166C151.758 141.206 151.809 141.236 151.86 141.267H153.114C153.688 140.924 153.977 140.159 153.337 139.537Z" fill="#FFBD17"/>
<path d="M45.3156 138.689C46.2986 137.68 44.784 136.166 43.7704 137.144C42.3508 138.512 40.9382 139.888 39.5293 141.268H42.786C43.6303 140.409 44.475 139.552 45.3156 138.689Z" fill="#FFBD17"/>
<path d="M1.3367 78.9586C-0.0121666 78.7453 -0.572182 80.5797 0.764553 81.0336C5.01644 82.4775 10.0187 82.775 14.4488 82.2289C15.8757 82.0531 15.969 79.8664 14.4488 79.925C9.94277 80.0998 5.77758 79.6601 1.3367 78.9586Z" fill="#FFBD17"/>
<path d="M17.9541 27.7887C21.6584 30.9937 25.4894 34.1558 29.4223 37.0769C30.4545 37.8436 31.7729 36.134 30.8009 35.29C27.1028 32.0794 23.1817 29.0287 19.2551 26.1024C18.2821 25.3774 17.0352 26.9936 17.9541 27.7887Z" fill="#FFBD17"/>
</svg>
