<?xml version="1.0" standalone="no"?>
<!DOCTYPE svg PUBLIC "-//W3C//DTD SVG 1.1//EN" "http://www.w3.org/Graphics/SVG/1.1/DTD/svg11.dtd">
<svg xmlns="http://www.w3.org/2000/svg">
<metadata>Copyright (C) 2025 by original authors @ fontello.com</metadata>
<defs>
<font id="rt_icon" horiz-adv-x="1000" >
<font-face font-family="rt_icon" font-weight="400" font-stretch="normal" units-per-em="1000" ascent="850" descent="-150" />
<missing-glyph horiz-adv-x="1000" />
<glyph glyph-name="wallet" unicode="&#xe800;" d="M125 600h750c17 0 33-7 44-18 12-12 19-28 19-44v-500c0-17-7-33-19-45-11-11-27-18-44-18h-750c-17 0-32 7-44 18-12 12-18 28-18 45v656c0 16 6 32 18 44 12 12 27 18 44 18h688v-62h-688v-94z m0-62v-500h750v93h-250c-17 0-32 7-44 19-12 11-18 27-18 44v187c0 17 6 33 18 44 12 12 27 19 44 19h250v94h-750z m750-344v187h-250v-187h250z m-187 125h62v-63h-62v63z m-563 281h750c17 0 33-7 44-18 12-12 19-28 19-44v-500c0-17-7-33-19-45-11-11-27-18-44-18h-750c-17 0-32 7-44 18-12 12-18 28-18 45v656c0 16 6 32 18 44 12 12 27 18 44 18h688v-62h-688v-94z m0-62v-500h750v93h-250c-17 0-32 7-44 19-12 11-18 27-18 44v187c0 17 6 33 18 44 12 12 27 19 44 19h250v94h-750z m750-344v187h-250v-187h250z m-187 125h62v-63h-62v63z" horiz-adv-x="1000" />

<glyph glyph-name="warning" unicode="&#xe801;" d="M500 788c-86 0-171-26-243-74-72-48-128-117-161-197-33-79-42-167-25-252 17-85 59-163 120-224 61-62 139-103 224-120 85-17 173-8 252 25 80 33 149 89 197 161 48 72 74 157 74 243 0 116-47 227-129 309-82 82-193 129-309 129z m0-813c-74 0-147 22-208 63-62 41-110 100-138 169-29 68-36 143-22 216 15 73 50 140 103 192 52 53 119 88 192 103 73 14 148 7 217-21 68-29 127-77 168-139 41-61 63-134 63-208 0-99-39-195-110-265-70-70-165-110-265-110z m31 625h-62v-344h62v344z m-57-445c8 5 17 8 26 8 12 0 24-5 33-14 9-9 14-21 14-33 0-10-3-19-8-26-5-8-12-14-21-18-9-3-18-4-27-2-9 2-18 6-24 13-7 6-11 14-13 24-2 9-1 18 3 27 3 8 9 16 17 21z m26 633c-86 0-171-26-243-74-72-48-128-117-161-197-33-79-42-167-25-252 17-85 59-163 120-224 61-62 139-103 224-120 85-17 173-8 252 25 80 33 149 89 197 161 48 72 74 157 74 243 0 116-47 227-129 309-82 82-193 129-309 129z m0-813c-74 0-147 22-208 63-62 41-110 100-138 169-29 68-36 143-22 216 15 73 50 140 103 192 52 53 119 88 192 103 73 14 148 7 217-21 68-29 127-77 168-139 41-61 63-134 63-208 0-99-39-195-110-265-70-70-165-110-265-110z m31 625h-62v-344h62v344z m-57-445c8 5 17 8 26 8 12 0 24-5 33-14 9-9 14-21 14-33 0-10-3-19-8-26-5-8-12-14-21-18-9-3-18-4-27-2-9 2-18 6-24 13-7 6-11 14-13 24-2 9-1 18 3 27 3 8 9 16 17 21z" horiz-adv-x="1000" />

<glyph glyph-name="warning--alt" unicode="&#xe802;" d="M78-84c5-2 10-4 16-4h812c6 0 11 2 16 4 4 3 8 7 11 11 3 5 4 10 5 16 0 5-1 10-4 15l-406 781c-3 6-7 10-12 13-5 3-10 4-16 4-6 0-11-1-16-4-5-3-9-7-12-13l-406-781c-2-5-4-10-3-15 0-6 1-11 4-16 3-4 7-8 11-11z m777 59h-710l0 0 355 682h0l355-682 0 0z m-324 500h-62v-281h62v281z m-31-344c-9 0-18-2-26-8-8-5-14-12-17-21-4-8-5-18-3-27 2-9 6-17 13-24 6-6 15-11 24-13 9-1 18 0 27 3 9 4 16 10 21 17 5 8 8 17 8 26 0 13-5 25-14 34-9 8-21 13-33 13z m-422-215c5-2 10-4 16-4h812c6 0 11 2 16 4 4 3 8 7 11 11 3 5 4 10 5 16 0 5-1 10-4 15l-406 781c-3 6-7 10-12 13-5 3-10 4-16 4-6 0-11-1-16-4-5-3-9-7-12-13l-406-781c-2-5-4-10-3-15 0-6 1-11 4-16 3-4 7-8 11-11z m777 59h-710l0 0 355 682h0l355-682 0 0z m-324 500h-62v-281h62v281z m-31-344c-9 0-18-2-26-8-8-5-14-12-17-21-4-8-5-18-3-27 2-9 6-17 13-24 6-6 15-11 24-13 9-1 18 0 27 3 9 4 16 10 21 17 5 8 8 17 8 26 0 13-5 25-14 34-9 8-21 13-33 13z" horiz-adv-x="1000" />

<glyph glyph-name="warning--alt--filled" unicode="&#xe803;" d="M934-42l-406 781c-3 6-7 10-12 13-5 3-10 4-16 4-6 0-11-1-16-4-5-3-9-7-12-13l-406-781c-2-5-4-10-3-15 0-6 1-11 4-16 3-4 7-8 11-11 5-2 10-4 16-4h812c6 0 11 2 16 4 4 3 8 7 11 11 3 5 4 10 5 16 0 5-1 10-4 15z m-469 548h70v-312h-70v312z m35-500c-9 0-18 3-26 8-8 5-14 13-17 21-4 9-5 18-3 27 2 9 6 18 13 24 6 7 15 11 24 13 9 2 18 1 27-3 9-3 16-9 21-17 5-7 8-17 8-26 0-12-5-24-14-33-9-9-21-14-33-14z m434-48l-406 781c-3 6-7 10-12 13-5 3-10 4-16 4-6 0-11-1-16-4-5-3-9-7-12-13l-406-781c-2-5-4-10-3-15 0-6 1-11 4-16 3-4 7-8 11-11 5-2 10-4 16-4h812c6 0 11 2 16 4 4 3 8 7 11 11 3 5 4 10 5 16 0 5-1 10-4 15z m-469 548h70v-312h-70v312z m35-500c-9 0-18 3-26 8-8 5-14 13-17 21-4 9-5 18-3 27 2 9 6 18 13 24 6 7 15 11 24 13 9 2 18 1 27-3 9-3 16-9 21-17 5-7 8-17 8-26 0-12-5-24-14-33-9-9-21-14-33-14z" horiz-adv-x="1000" />

<glyph glyph-name="warning--filled" unicode="&#xe804;" d="M500 788c-241 0-437-197-437-438 0-241 196-438 437-438 241 0 438 197 438 438 0 241-197 438-438 438z m-34-188h68v-344h-68v344z m34-531c-25 0-47 22-47 47 0 25 22 47 47 47 25 0 47-22 47-47 0-25-22-47-47-47z m0 719c-241 0-437-197-437-438 0-241 196-438 437-438 241 0 438 197 438 438 0 241-197 438-438 438z m-34-188h68v-344h-68v344z m34-531c-25 0-47 22-47 47 0 25 22 47 47 47 25 0 47-22 47-47 0-25-22-47-47-47z" horiz-adv-x="1000" />

<glyph glyph-name="wheat" unicode="&#xe805;" d="M656 756v-81l-125-125v269h-62v-269l-125 125v81h-63v-500c0-52 19-103 54-143 34-39 82-65 134-73v-128h62v128c52 8 100 34 134 73 35 40 54 91 54 143v500h-63z m-187-653c-35 7-67 27-90 55-23 27-35 62-35 98v81l125-125v-109z m0 197l-125 125v162l125-125v-162z m62 162l125 125v-162l-125-125v162z m0-359v109l125 125v-81c0-36-12-71-35-98-23-28-54-48-90-55z m125 653v-81l-125-125v269h-62v-269l-125 125v81h-63v-500c0-52 19-103 54-143 34-39 82-65 134-73v-128h62v128c52 8 100 34 134 73 35 40 54 91 54 143v500h-63z m-187-653c-35 7-67 27-90 55-23 27-35 62-35 98v81l125-125v-109z m0 197l-125 125v162l125-125v-162z m62 162l125 125v-162l-125-125v162z m0-359v109l125 125v-81c0-36-12-71-35-98-23-28-54-48-90-55z" horiz-adv-x="1000" />

<glyph glyph-name="wifi" unicode="&#xe806;" d="M500 694c164 0 321-65 438-180v0l-45-44c-105 103-246 161-393 161-147 0-289-58-394-161l-43 44v0c116 115 273 180 437 180z m-305-312l44-45c70 69 163 107 261 107 97 0 191-38 261-106l44 44c-81 80-191 124-305 124-114 0-224-45-305-124l0 0z m132-133l0 0v0l0 0z m0 0l44-44c35 33 81 51 129 51 48 0 94-18 128-51l45 44c-47 45-109 70-173 70-65 0-126-25-173-70z m236-180c0-35-28-63-63-63-34 0-62 28-62 63 0 34 28 62 62 62 35 0 63-28 63-62z m-63 625c164 0 321-65 438-180v0l-45-44c-105 103-246 161-393 161-147 0-289-58-394-161l-43 44v0c116 115 273 180 437 180z m-305-312l44-45c70 69 163 107 261 107 97 0 191-38 261-106l44 44c-81 80-191 124-305 124-114 0-224-45-305-124l0 0z m132-133l0 0v0l0 0z m0 0l44-44c35 33 81 51 129 51 48 0 94-18 128-51l45 44c-47 45-109 70-173 70-65 0-126-25-173-70z m236-180c0-35-28-63-63-63-34 0-62 28-62 63 0 34 28 62 62 62 35 0 63-28 63-62z" horiz-adv-x="1000" />

<glyph glyph-name="wikis" unicode="&#xe807;" d="M500 788c-86 0-171-26-243-74-72-48-128-117-161-197-33-79-42-167-25-252 17-85 59-163 120-224 61-62 139-103 224-120 85-17 173-8 252 25 80 33 149 89 197 161 48 72 74 157 74 243 0 116-47 227-129 309-82 82-193 129-309 129z m375-407h-187c-4 115-34 228-88 330 74-20 140-63 190-122 49-59 78-131 85-208z m-375-406c-7-1-14-1-21 0-65 103-101 222-104 344h250c-3-122-39-241-103-344-7-1-15-1-22 0z m-125 406c3 122 39 241 103 344 14 2 28 2 42 0 65-103 101-222 105-344h-250z m24 330c-54-102-83-215-86-330h-188c7 77 36 149 86 208 49 59 115 102 189 122h-1z m-272-392h187c3-115 33-228 86-330-74 21-139 63-188 122-49 59-79 132-85 208z m473-330c54 102 84 215 88 330h187c-7-77-36-149-85-208-50-59-116-102-190-122z m-100 799c-86 0-171-26-243-74-72-48-128-117-161-197-33-79-42-167-25-252 17-85 59-163 120-224 61-62 139-103 224-120 85-17 173-8 252 25 80 33 149 89 197 161 48 72 74 157 74 243 0 116-47 227-129 309-82 82-193 129-309 129z m375-407h-187c-4 115-34 228-88 330 74-20 140-63 190-122 49-59 78-131 85-208z m-375-406c-7-1-14-1-21 0-65 103-101 222-104 344h250c-3-122-39-241-103-344-7-1-15-1-22 0z m-125 406c3 122 39 241 103 344 14 2 28 2 42 0 65-103 101-222 105-344h-250z m24 330c-54-102-83-215-86-330h-188c7 77 36 149 86 208 49 59 115 102 189 122h-1z m-272-392h187c3-115 33-228 86-330-74 21-139 63-188 122-49 59-79 132-85 208z m473-330c54 102 84 215 88 330h187c-7-77-36-149-85-208-50-59-116-102-190-122z" horiz-adv-x="1000" />

<glyph glyph-name="word-cloud" unicode="&#xe808;" d="M659 574c-45 37-101 57-159 57-58 0-114-20-159-57-45-37-76-89-87-146l-8-42-42-7c-42-8-80-31-106-65-26-34-39-77-35-120 4-42 24-82 55-111 32-29 73-45 116-45h532c43 0 84 16 116 45 31 29 51 69 55 111 4 43-9 86-35 120-26 34-64 57-106 65l-42 7-8 42c-11 57-42 109-87 146z m-358 48c56 46 126 72 199 72 73 0 143-26 199-72 56-46 94-110 108-182 58-10 109-42 145-88 35-47 52-105 47-163-5-59-32-113-75-152-43-40-100-62-158-62h-532c-58 0-115 22-158 62-43 39-70 93-75 152-5 58 12 116 47 163 36 46 87 78 145 88 14 72 52 136 108 182z m199 72c0 0 0 0 0 0h0c0 0 0 0 0 0z m188-406v62h-375v-62h375z m-125-63h-250v-62h250v62z m96 349c-45 37-101 57-159 57-58 0-114-20-159-57-45-37-76-89-87-146l-8-42-42-7c-42-8-80-31-106-65-26-34-39-77-35-120 4-42 24-82 55-111 32-29 73-45 116-45h532c43 0 84 16 116 45 31 29 51 69 55 111 4 43-9 86-35 120-26 34-64 57-106 65l-42 7-8 42c-11 57-42 109-87 146z m-358 48c56 46 126 72 199 72 73 0 143-26 199-72 56-46 94-110 108-182 58-10 109-42 145-88 35-47 52-105 47-163-5-59-32-113-75-152-43-40-100-62-158-62h-532c-58 0-115 22-158 62-43 39-70 93-75 152-5 58 12 116 47 163 36 46 87 78 145 88 14 72 52 136 108 182z m199 72c0 0 0 0 0 0h0c0 0 0 0 0 0z m188-406v62h-375v-62h375z m-125-63h-250v-62h250v62z" horiz-adv-x="1000" />

<glyph glyph-name="workspace" unicode="&#xe809;" d="M844 506v157h-313v-157h313z m-313 219h313c16 0 32-7 44-18 12-12 18-28 18-44v-157c0-16-6-32-18-44-12-12-28-18-44-18h-313c-16 0-32 6-44 18-12 12-18 28-18 44v157c0 16 6 32 18 44 12 11 28 18 44 18z m-31-656v250h-312v-250h312z m-312 312h312c17 0 33-6 44-18 12-12 19-28 19-44v-250c0-17-7-33-19-44-11-12-27-19-44-19h-312c-17 0-33 7-45 19-11 11-18 27-18 44v250c0 16 7 32 18 44 12 12 28 18 45 18z m656-62v-156h-156v156h156z m0 62h-156c-17 0-33-6-45-18-11-12-18-28-18-44v-156c0-17 7-33 18-45 12-11 28-18 45-18h156c16 0 32 7 44 18 12 12 18 28 18 45v156c0 16-6 32-18 44-12 12-28 18-44 18z m-500 125v157h-156v-157h156z m-156 219h156c16 0 32-7 44-18 12-12 18-28 18-44v-157c0-16-6-32-18-44-12-12-28-18-44-18h-156c-17 0-33 6-45 18-11 12-18 28-18 44v157c0 16 7 32 18 44 12 11 28 18 45 18z m656-219v157h-313v-157h313z m-313 219h313c16 0 32-7 44-18 12-12 18-28 18-44v-157c0-16-6-32-18-44-12-12-28-18-44-18h-313c-16 0-32 6-44 18-12 12-18 28-18 44v157c0 16 6 32 18 44 12 11 28 18 44 18z m-31-656v250h-312v-250h312z m-312 312h312c17 0 33-6 44-18 12-12 19-28 19-44v-250c0-17-7-33-19-44-11-12-27-19-44-19h-312c-17 0-33 7-45 19-11 11-18 27-18 44v250c0 16 7 32 18 44 12 12 28 18 45 18z m656-62v-156h-156v156h156z m0 62h-156c-17 0-33-6-45-18-11-12-18-28-18-44v-156c0-17 7-33 18-45 12-11 28-18 45-18h156c16 0 32 7 44 18 12 12 18 28 18 45v156c0 16-6 32-18 44-12 12-28 18-44 18z m-500 125v157h-156v-157h156z m-156 219h156c16 0 32-7 44-18 12-12 18-28 18-44v-157c0-16-6-32-18-44-12-12-28-18-44-18h-156c-17 0-33 6-45 18-11 12-18 28-18 44v157c0 16 7 32 18 44 12 11 28 18 45 18z" horiz-adv-x="1000" />

<glyph glyph-name="zoom--area" unicode="&#xe80a;" d="M750 600h63v125c0 17-7 33-19 44-11 12-27 19-44 19h-125v-63h125v-125z m72-528l147-147-44-44-147 147c-50-39-114-58-177-52-64 6-123 36-165 84-42 48-65 110-63 174 2 64 29 124 74 169 45 45 106 72 169 74 64 2 126-21 174-63 48-42 78-101 84-165 6-63-13-127-52-177z m-301-3c31-20 67-31 104-31 50 0 97 19 133 55 35 35 54 82 55 132 0 37-11 73-32 104-21 31-50 55-84 69-34 14-72 18-109 11-36-7-69-25-96-51-26-27-44-60-51-96-7-37-3-74 11-109 14-34 38-63 69-84z m-396-31h125v62h-125v125h-62v-125c0-17 6-32 18-44 12-12 27-18 44-18z m0 437h-62v-125h62v125z m375 313h-125v-63h125v63z m-437-188h62v125h125v63h-125c-17 0-32-7-44-19-12-11-18-27-18-44v-125z m687 0h63v125c0 17-7 33-19 44-11 12-27 19-44 19h-125v-63h125v-125z m72-528l147-147-44-44-147 147c-50-39-114-58-177-52-64 6-123 36-165 84-42 48-65 110-63 174 2 64 29 124 74 169 45 45 106 72 169 74 64 2 126-21 174-63 48-42 78-101 84-165 6-63-13-127-52-177z m-301-3c31-20 67-31 104-31 50 0 97 19 133 55 35 35 54 82 55 132 0 37-11 73-32 104-21 31-50 55-84 69-34 14-72 18-109 11-36-7-69-25-96-51-26-27-44-60-51-96-7-37-3-74 11-109 14-34 38-63 69-84z m-396-31h125v62h-125v125h-62v-125c0-17 6-32 18-44 12-12 27-18 44-18z m0 437h-62v-125h62v125z m375 313h-125v-63h125v63z m-437-188h62v125h125v63h-125c-17 0-32-7-44-19-12-11-18-27-18-44v-125z" horiz-adv-x="1000" />

<glyph glyph-name="zoom--in" unicode="&#xe80b;" d="M750 444c0-80-28-158-80-219l236-237-44-44-237 236c-61-52-139-80-219-80-68 0-134 20-191 58-56 38-100 91-126 154-26 63-33 132-20 199 13 67 46 128 94 176 48 48 110 81 176 94 67 13 136 6 199-20 63-26 116-70 154-126 38-57 58-123 58-191z m-500-234c46-31 101-47 156-47 75 0 146 29 199 82 53 53 82 124 83 199 0 55-17 110-48 156-31 46-75 82-126 104-51 21-108 26-163 16-54-11-104-38-144-77-39-40-66-90-77-144-10-55-5-111 16-163 22-51 58-95 104-126z m188 265h125v-62h-125v-125h-63v125h-125v62h125v125h63v-125z m312-31c0-80-28-158-80-219l236-237-44-44-237 236c-61-52-139-80-219-80-68 0-134 20-191 58-56 38-100 91-126 154-26 63-33 132-20 199 13 67 46 128 94 176 48 48 110 81 176 94 67 13 136 6 199-20 63-26 116-70 154-126 38-57 58-123 58-191z m-500-234c46-31 101-47 156-47 75 0 146 29 199 82 53 53 82 124 83 199 0 55-17 110-48 156-31 46-75 82-126 104-51 21-108 26-163 16-54-11-104-38-144-77-39-40-66-90-77-144-10-55-5-111 16-163 22-51 58-95 104-126z m188 265h125v-62h-125v-125h-63v125h-125v62h125v125h63v-125z" horiz-adv-x="1000" />

<glyph glyph-name="zoom--in-area" unicode="&#xe80c;" d="M63 600h62v125h125v63h-125c-17 0-32-7-44-19-12-11-18-27-18-44v-125z m906-675l-147 147c39 50 58 114 52 177-6 64-36 123-84 165-48 42-110 65-174 63-63-2-124-29-169-74-45-45-72-105-74-169-2-64 21-126 63-174 42-48 101-78 165-84 63-6 127 13 177 52l147-147 44 44z m-344 113c-37 0-73 11-104 31-31 21-55 50-69 84-14 35-18 72-11 109 7 36 25 69 51 96 27 26 60 44 96 51 37 7 75 3 109-11 34-14 63-38 84-69 21-31 32-67 32-104-1-50-20-97-55-132-36-36-83-55-133-55z m125 218h-94v94h-62v-94h-94v-62h94v-94h62v94h94v62z m63 344h-63v125h-125v63h125c17 0 33-7 44-19 12-11 19-27 19-44v-125z m-438 188h125v-63h-125v63z m-125-750h-125c-17 0-32 6-44 18-12 12-18 27-18 44v125h62v-125h125v-62z m-187 437h62v-125h-62v125z m0 125h62v125h125v63h-125c-17 0-32-7-44-19-12-11-18-27-18-44v-125z m906-675l-147 147c39 50 58 114 52 177-6 64-36 123-84 165-48 42-110 65-174 63-63-2-124-29-169-74-45-45-72-105-74-169-2-64 21-126 63-174 42-48 101-78 165-84 63-6 127 13 177 52l147-147 44 44z m-344 113c-37 0-73 11-104 31-31 21-55 50-69 84-14 35-18 72-11 109 7 36 25 69 51 96 27 26 60 44 96 51 37 7 75 3 109-11 34-14 63-38 84-69 21-31 32-67 32-104-1-50-20-97-55-132-36-36-83-55-133-55z m125 218h-94v94h-62v-94h-94v-62h94v-94h62v94h94v62z m63 344h-63v125h-125v63h125c17 0 33-7 44-19 12-11 19-27 19-44v-125z m-438 188h125v-63h-125v63z m-125-750h-125c-17 0-32 6-44 18-12 12-18 27-18 44v125h62v-125h125v-62z m-187 437h62v-125h-62v125z" horiz-adv-x="1000" />

<glyph glyph-name="zoom--out" unicode="&#xe80d;" d="M750 444c0-80-28-158-80-219l236-237-44-44-237 236c-61-52-139-80-219-80-68 0-134 20-191 58-56 38-100 91-126 154-26 63-33 132-20 199 13 67 46 128 94 176 48 48 110 81 176 94 67 13 136 6 199-20 63-26 116-70 154-126 38-57 58-123 58-191z m-500-234c46-31 101-47 156-47 75 0 146 29 199 82 53 53 82 124 83 199 0 55-17 110-48 156-31 46-75 82-126 104-51 21-108 26-163 16-54-11-104-38-144-77-39-40-66-90-77-144-10-55-5-111 16-163 22-51 58-95 104-126z m0 265h313v-62h-313v62z m500-31c0-80-28-158-80-219l236-237-44-44-237 236c-61-52-139-80-219-80-68 0-134 20-191 58-56 38-100 91-126 154-26 63-33 132-20 199 13 67 46 128 94 176 48 48 110 81 176 94 67 13 136 6 199-20 63-26 116-70 154-126 38-57 58-123 58-191z m-500-234c46-31 101-47 156-47 75 0 146 29 199 82 53 53 82 124 83 199 0 55-17 110-48 156-31 46-75 82-126 104-51 21-108 26-163 16-54-11-104-38-144-77-39-40-66-90-77-144-10-55-5-111 16-163 22-51 58-95 104-126z m0 265h313v-62h-313v62z" horiz-adv-x="1000" />

<glyph glyph-name="zoom--out-area" unicode="&#xe80e;" d="M63 600h62v125h125v63h-125c-17 0-32-7-44-19-12-11-18-27-18-44v-125z m906-675l-147 147c39 50 58 114 52 177-6 64-36 123-84 165-48 42-110 65-174 63-63-2-124-29-169-74-45-45-72-105-74-169-2-64 21-126 63-174 42-48 101-78 165-84 63-6 127 13 177 52l147-147 44 44z m-344 113c-37 0-73 11-104 31-31 21-55 50-69 84-14 35-18 72-11 109 7 36 25 69 51 96 27 26 60 44 96 51 37 7 75 3 109-11 34-14 63-38 84-69 21-31 32-67 32-104-1-50-20-97-55-132-36-36-83-55-133-55z m125 218h-250v-62h250v62z m63 344h-63v125h-125v63h125c17 0 33-7 44-19 12-11 19-27 19-44v-125z m-438 188h125v-63h-125v63z m-125-750h-125c-17 0-32 6-44 18-12 12-18 27-18 44v125h62v-125h125v-62z m-187 437h62v-125h-62v125z m0 125h62v125h125v63h-125c-17 0-32-7-44-19-12-11-18-27-18-44v-125z m906-675l-147 147c39 50 58 114 52 177-6 64-36 123-84 165-48 42-110 65-174 63-63-2-124-29-169-74-45-45-72-105-74-169-2-64 21-126 63-174 42-48 101-78 165-84 63-6 127 13 177 52l147-147 44 44z m-344 113c-37 0-73 11-104 31-31 21-55 50-69 84-14 35-18 72-11 109 7 36 25 69 51 96 27 26 60 44 96 51 37 7 75 3 109-11 34-14 63-38 84-69 21-31 32-67 32-104-1-50-20-97-55-132-36-36-83-55-133-55z m125 218h-250v-62h250v62z m63 344h-63v125h-125v63h125c17 0 33-7 44-19 12-11 19-27 19-44v-125z m-438 188h125v-63h-125v63z m-125-750h-125c-17 0-32 6-44 18-12 12-18 27-18 44v125h62v-125h125v-62z m-187 437h62v-125h-62v125z" horiz-adv-x="1000" />

<glyph glyph-name="zoom--reset" unicode="&#xe80f;" d="M702 194c51 61 79 139 79 219 0 68-20 136-59 193-39 57-94 101-158 126-64 25-134 31-201 16-67-15-128-50-175-100v140h-63v-250h250v62h-146c42 47 99 78 161 88 62 11 125 0 181-29 55-30 99-78 124-136 25-57 29-122 14-182-16-61-52-115-102-153-50-38-112-58-175-57-62 1-123 24-172 63-49 40-83 95-96 156h-64c14-79 56-150 118-202 62-51 139-79 220-79 80 0 157 28 218 80l237-237 45 45-236 237z m0 0c51 61 79 139 79 219 0 68-20 136-59 193-39 57-94 101-158 126-64 25-134 31-201 16-67-15-128-50-175-100v140h-63v-250h250v62h-146c42 47 99 78 161 88 62 11 125 0 181-29 55-30 99-78 124-136 25-57 29-122 14-182-16-61-52-115-102-153-50-38-112-58-175-57-62 1-123 24-172 63-49 40-83 95-96 156h-64c14-79 56-150 118-202 62-51 139-79 220-79 80 0 157 28 218 80l237-237 45 45-236 237z" horiz-adv-x="1000" />

<glyph glyph-name="3d-cursor" unicode="&#xe810;" d="M125 725h281v-62h-218v-220h-63v282z m515-129l282-156c4-3 9-7 11-12 3-4 5-10 5-15v-313c0-5-2-11-5-16-3-4-7-8-11-11l-282-156c-4-3-10-4-15-5-5 1-10 2-15 5l-281 156c-5 3-9 6-12 11-3 5-4 10-4 16v313c-1 5 1 11 3 15 3 5 7 9 12 12l281 156c5 3 10 4 16 4 5 0 11-1 15-4z m-265-478l219-121v241l-219 122v-242z m33 295l217-121 217 121-217 120-217-120z m248-416l219 121v242l-219-122v-241z m-531 728h281v-62h-218v-220h-63v282z m515-129l282-156c4-3 9-7 11-12 3-4 5-10 5-15v-313c0-5-2-11-5-16-3-4-7-8-11-11l-282-156c-4-3-10-4-15-5-5 1-10 2-15 5l-281 156c-5 3-9 6-12 11-3 5-4 10-4 16v313c-1 5 1 11 3 15 3 5 7 9 12 12l281 156c5 3 10 4 16 4 5 0 11-1 15-4z m-265-478l219-121v241l-219 122v-242z m33 295l217-121 217 121-217 120-217-120z m248-416l219 121v242l-219-122v-241z" horiz-adv-x="1000" />

<glyph glyph-name="3d-cursor--alt" unicode="&#xe811;" d="M500-88c-86 0-171 26-243 74-72 48-128 117-161 197-33 80-42 168-25 252 17 85 59 163 120 224 61 62 139 103 224 120 85 17 173 8 252-25 80-33 149-89 197-161 48-72 74-156 74-243-1-116-47-227-129-309-82-82-193-128-309-129z m0 813c-74 0-147-22-208-63-62-41-110-100-138-168-29-69-36-144-22-217 15-73 50-140 103-192 52-53 119-88 192-103 73-14 148-7 217 22 68 28 127 76 168 138 41 61 63 134 63 208 0 99-40 195-110 265-70 70-166 110-265 110z m-31-94v-218h62v218h-62z m-250-250h219v-62h-219v62z m250-93v-219h62v219h-62z m94 93h218v-62h-218v62z m-63-469c-86 0-171 26-243 74-72 48-128 117-161 197-33 80-42 168-25 252 17 85 59 163 120 224 61 62 139 103 224 120 85 17 173 8 252-25 80-33 149-89 197-161 48-72 74-156 74-243-1-116-47-227-129-309-82-82-193-128-309-129z m0 813c-74 0-147-22-208-63-62-41-110-100-138-168-29-69-36-144-22-217 15-73 50-140 103-192 52-53 119-88 192-103 73-14 148-7 217 22 68 28 127 76 168 138 41 61 63 134 63 208 0 99-40 195-110 265-70 70-166 110-265 110z m-31-94v-218h62v218h-62z m-250-250h219v-62h-219v62z m250-93v-219h62v219h-62z m94 93h218v-62h-218v62z" horiz-adv-x="1000" />

<glyph glyph-name="3d-curve--auto-colon" unicode="&#xe812;" d="M297 600h331c8-38 29-72 61-95 31-22 69-33 108-29 38 4 74 22 100 51 26 28 41 66 41 104 0 39-15 76-41 105-26 29-62 47-100 51-39 4-77-7-108-30-32-23-53-57-61-94h-331c-46 0-89-19-122-51-32-32-50-76-50-121 0-46 18-90 50-122 33-32 76-50 122-50h344c29 0 57-12 77-32 21-21 32-49 32-78 0-29-11-56-32-77-20-20-48-32-77-32h-269c-8 38-29 72-61 95-31 23-69 33-108 29-38-4-74-22-100-50-26-29-40-66-40-105 0-39 14-76 40-105 26-29 62-47 100-51 39-4 77 7 108 30 32 23 53 57 61 95h269c45 0 89 18 121 50 32 32 51 76 51 121 0 46-19 90-51 122-32 32-76 50-121 50h-344c-29 0-57 12-77 32-21 21-32 49-32 78 0 29 11 57 32 77 20 21 48 32 77 32z m484 125c19 0 37-5 52-16 16-10 28-25 35-42 7-17 9-36 5-54-3-18-12-35-25-48-14-13-30-22-48-26-19-3-37-1-55 6-17 7-31 19-42 34-10 16-15 34-15 52 0 25 9 49 27 67 18 17 41 27 66 27z m-562-750c-19 0-37 5-52 16-16 10-28 25-35 42-7 17-9 36-5 54 3 18 12 35 26 48 13 13 29 22 48 26 18 3 37 2 54-6 17-7 31-19 42-34 10-16 16-34 16-52 0-25-10-49-28-66-17-18-41-28-66-28z m78 625h331c8-38 29-72 61-95 31-22 69-33 108-29 38 4 74 22 100 51 26 28 41 66 41 104 0 39-15 76-41 105-26 29-62 47-100 51-39 4-77-7-108-30-32-23-53-57-61-94h-331c-46 0-89-19-122-51-32-32-50-76-50-121 0-46 18-90 50-122 33-32 76-50 122-50h344c29 0 57-12 77-32 21-21 32-49 32-78 0-29-11-56-32-77-20-20-48-32-77-32h-269c-8 38-29 72-61 95-31 23-69 33-108 29-38-4-74-22-100-50-26-29-40-66-40-105 0-39 14-76 40-105 26-29 62-47 100-51 39-4 77 7 108 30 32 23 53 57 61 95h269c45 0 89 18 121 50 32 32 51 76 51 121 0 46-19 90-51 122-32 32-76 50-121 50h-344c-29 0-57 12-77 32-21 21-32 49-32 78 0 29 11 57 32 77 20 21 48 32 77 32z m484 125c19 0 37-5 52-16 16-10 28-25 35-42 7-17 9-36 5-54-3-18-12-35-25-48-14-13-30-22-48-26-19-3-37-1-55 6-17 7-31 19-42 34-10 16-15 34-15 52 0 25 9 49 27 67 18 17 41 27 66 27z m-562-750c-19 0-37 5-52 16-16 10-28 25-35 42-7 17-9 36-5 54 3 18 12 35 26 48 13 13 29 22 48 26 18 3 37 2 54-6 17-7 31-19 42-34 10-16 16-34 16-52 0-25-10-49-28-66-17-18-41-28-66-28z" horiz-adv-x="1000" />

<glyph glyph-name="3d-curve--manual" unicode="&#xe813;" d="M682 752c28 23 63 36 99 36 30 0 59-9 84-25 25-15 45-38 57-65 13-26 18-56 14-86-3-29-15-57-34-80-18-22-43-40-71-49-28-9-58-10-87-3-29 7-55 22-75 43-21 21-35 48-41 77h-3c-25 0-49-10-66-27-18-18-28-42-28-67h-62c0 42 16 81 46 111 29 29 69 46 110 46h3c7 35 27 67 54 89z m47-199c16-10 34-15 52-15 25 0 49 9 67 27 17 18 27 41 27 66 0 19-5 37-16 52-10 16-25 28-42 35-17 7-36 9-54 5-18-3-35-12-48-25-13-14-22-30-26-48-3-19-1-37 6-55 7-17 19-31 34-42z m-198-109h-62v-188h62v188z m-62-250c0-25-10-49-28-66-17-18-41-28-66-28h-3c-8 38-29 72-61 95-31 23-69 33-108 29-38-4-74-22-100-50-26-29-40-66-40-105 0-39 14-76 40-105 26-29 62-47 100-51 39-4 77 7 108 30 32 23 53 57 61 95h3c41 0 81 16 111 45 29 30 45 69 45 111h-62z m-250-219c-19 0-37 5-52 16-16 10-28 25-35 42-7 17-9 36-5 54 3 18 12 35 26 48 13 13 29 22 48 26 18 3 37 2 54-6 17-7 31-19 42-34 10-16 16-34 16-52 0-25-10-49-28-66-17-18-41-28-66-28z m463 777c28 23 63 36 99 36 30 0 59-9 84-25 25-15 45-38 57-65 13-26 18-56 14-86-3-29-15-57-34-80-18-22-43-40-71-49-28-9-58-10-87-3-29 7-55 22-75 43-21 21-35 48-41 77h-3c-25 0-49-10-66-27-18-18-28-42-28-67h-62c0 42 16 81 46 111 29 29 69 46 110 46h3c7 35 27 67 54 89z m47-199c16-10 34-15 52-15 25 0 49 9 67 27 17 18 27 41 27 66 0 19-5 37-16 52-10 16-25 28-42 35-17 7-36 9-54 5-18-3-35-12-48-25-13-14-22-30-26-48-3-19-1-37 6-55 7-17 19-31 34-42z m-198-109h-62v-188h62v188z m-62-250c0-25-10-49-28-66-17-18-41-28-66-28h-3c-8 38-29 72-61 95-31 23-69 33-108 29-38-4-74-22-100-50-26-29-40-66-40-105 0-39 14-76 40-105 26-29 62-47 100-51 39-4 77 7 108 30 32 23 53 57 61 95h3c41 0 81 16 111 45 29 30 45 69 45 111h-62z m-250-219c-19 0-37 5-52 16-16 10-28 25-35 42-7 17-9 36-5 54 3 18 12 35 26 48 13 13 29 22 48 26 18 3 37 2 54-6 17-7 31-19 42-34 10-16 16-34 16-52 0-25-10-49-28-66-17-18-41-28-66-28z" horiz-adv-x="1000" />

<glyph glyph-name="3d-mpr-toggle" unicode="&#xe814;" d="M344 788h-281v-282h62v219h219v63z m-281-594v-282h281v63h-219v219h-62z m875 594v-282h-63v219h-219v63h282z m-282-876h282v282h-63v-219h-219v-63z m-141 778l282-157c4-2 8-6 11-11 3-5 5-10 5-16v-312c0-6-2-11-4-16-3-5-7-9-12-11l-281-157c-5-2-10-4-16-4-5 0-11 2-15 4l-282 157c-4 2-8 6-11 11-3 5-4 10-4 16v312c-1 6 1 11 4 16 2 5 6 9 11 11l281 157c5 2 10 4 16 4 5 0 11-2 15-4z m202-184l-217 121-217-121 217-120 217 120z m-248-174l-219 121v-241l219-121v241z m62 0v-241l219 121v241l-219-121z m-187 456h-281v-282h62v219h219v63z m-281-594v-282h281v63h-219v219h-62z m875 594v-282h-63v219h-219v63h282z m-282-876h282v282h-63v-219h-219v-63z m-141 778l282-157c4-2 8-6 11-11 3-5 5-10 5-16v-312c0-6-2-11-4-16-3-5-7-9-12-11l-281-157c-5-2-10-4-16-4-5 0-11 2-15 4l-282 157c-4 2-8 6-11 11-3 5-4 10-4 16v312c-1 6 1 11 4 16 2 5 6 9 11 11l281 157c5 2 10 4 16 4 5 0 11-2 15-4z m202-184l-217 121-217-121 217-120 217 120z m-248-174l-219 121v-241l219-121v241z m62 0v-241l219 121v241l-219-121z" horiz-adv-x="1000" />

<glyph glyph-name="3d-software" unicode="&#xe815;" d="M813 663h125v-63h-125v-125h-63v125h-125v63h125v125h63v-125z m-423-67l282-156c4-3 9-7 11-11 3-5 5-11 5-16v-313c0-5-2-11-5-16-3-4-7-8-11-11l-282-156c-4-3-10-4-15-5-5 1-10 2-15 5l-281 156c-5 3-9 7-12 11-3 5-4 11-4 16v313c-1 5 1 11 3 15 3 5 7 9 12 12l281 156c5 3 10 5 16 5 5 0 11-2 15-5z m-265-477l219-122v241l-219 122v-241z m33 294l217-121 217 121-217 120-217-120z m248-416l219 122v241l-219-122v-241z m407 666h125v-63h-125v-125h-63v125h-125v63h125v125h63v-125z m-423-67l282-156c4-3 9-7 11-11 3-5 5-11 5-16v-313c0-5-2-11-5-16-3-4-7-8-11-11l-282-156c-4-3-10-4-15-5-5 1-10 2-15 5l-281 156c-5 3-9 7-12 11-3 5-4 11-4 16v313c-1 5 1 11 3 15 3 5 7 9 12 12l281 156c5 3 10 5 16 5 5 0 11-2 15-5z m-265-477l219-122v241l-219 122v-241z m33 294l217-121 217 121-217 120-217-120z m248-416l219 122v241l-219-122v-241z" horiz-adv-x="1000" />

<glyph glyph-name="account" unicode="&#xe816;" d="M125 725h750c17 0 33-7 44-18 12-12 19-28 19-44v-625c0-17-7-33-19-45-11-11-27-18-44-18h-750c-17 0-32 7-44 18-12 12-18 28-18 45v625c0 16 6 32 18 44 12 11 27 18 44 18z m750-125v63h-750v-63h750z m-750-62v-500h750v500h-750z m469-125h-344v-63h344v63z m62-157h-406v-62h406v62z m-531 469h750c17 0 33-7 44-18 12-12 19-28 19-44v-625c0-17-7-33-19-45-11-11-27-18-44-18h-750c-17 0-32 7-44 18-12 12-18 28-18 45v625c0 16 6 32 18 44 12 11 27 18 44 18z m750-125v63h-750v-63h750z m-750-62v-500h750v500h-750z m469-125h-344v-63h344v63z m62-157h-406v-62h406v62z" horiz-adv-x="1000" />

<glyph glyph-name="activity" unicode="&#xe817;" d="M375-56c-6 0-12 2-17 5-5 3-9 8-12 14l-148 356h-135v62h156c6 0 12-2 17-5 5-3 9-8 12-14l127-302 252 676c2 6 6 11 11 15 6 3 12 5 18 5 7 0 13-2 18-6 5-4 9-9 11-15l119-354h134v-62h-157c-6 0-13 2-18 6-5 3-9 9-11 15l-96 291-252-667c-2-6-6-11-11-15-5-3-12-5-18-5z m0 0c-6 0-12 2-17 5-5 3-9 8-12 14l-148 356h-135v62h156c6 0 12-2 17-5 5-3 9-8 12-14l127-302 252 676c2 6 6 11 11 15 6 3 12 5 18 5 7 0 13-2 18-6 5-4 9-9 11-15l119-354h134v-62h-157c-6 0-13 2-18 6-5 3-9 9-11 15l-96 291-252-667c-2-6-6-11-11-15-5-3-12-5-18-5z" horiz-adv-x="1000" />

<glyph glyph-name="add" unicode="&#xe818;" d="M531 381v219h-62v-219h-219v-62h219v-219h62v219h219v62h-219z m0 0v219h-62v-219h-219v-62h219v-219h62v219h219v62h-219z" horiz-adv-x="1000" />

<glyph glyph-name="add--alt" unicode="&#xe819;" d="M875 350c0 206-169 375-375 375-206 0-375-169-375-375 0-206 169-375 375-375 206 0 375 169 375 375z m-812 0c0 241 196 438 437 438 241 0 438-197 438-438 0-241-197-438-438-438-241 0-437 197-437 438z m468 31h219v-62h-219v-219h-62v219h-219v62h219v219h62v-219z m344-31c0 206-169 375-375 375-206 0-375-169-375-375 0-206 169-375 375-375 206 0 375 169 375 375z m-812 0c0 241 196 438 437 438 241 0 438-197 438-438 0-241-197-438-438-438-241 0-437 197-437 438z m468 31h219v-62h-219v-219h-62v219h-219v62h219v219h62v-219z" horiz-adv-x="1000" />

<glyph glyph-name="airplay" unicode="&#xe81a;" d="M750 100h125c17 0 33 7 44 18 12 12 19 28 19 45v500c0 16-7 32-19 44-11 11-27 18-44 18h-750c-17 0-32-7-44-18-12-12-18-28-18-44v-500c0-17 6-33 18-45 12-11 27-18 44-18h125v63h-125v500h750v-500h-125v-63z m-485-183c5-3 11-5 16-5h438c5 0 11 2 16 5 5 3 9 7 11 12 3 5 4 11 4 17 0 6-2 11-6 16l-218 312c-3 4-7 8-12 10-4 2-9 4-14 4-5 0-10-2-14-4-5-2-9-6-12-10l-218-312c-4-5-5-10-6-16 0-6 1-12 4-17 2-5 6-9 11-12z m394 58h-318l159 227 159-227z m91 125h125c17 0 33 7 44 18 12 12 19 28 19 45v500c0 16-7 32-19 44-11 11-27 18-44 18h-750c-17 0-32-7-44-18-12-12-18-28-18-44v-500c0-17 6-33 18-45 12-11 27-18 44-18h125v63h-125v500h750v-500h-125v-63z m-485-183c5-3 11-5 16-5h438c5 0 11 2 16 5 5 3 9 7 11 12 3 5 4 11 4 17 0 6-2 11-6 16l-218 312c-3 4-7 8-12 10-4 2-9 4-14 4-5 0-10-2-14-4-5-2-9-6-12-10l-218-312c-4-5-5-10-6-16 0-6 1-12 4-17 2-5 6-9 11-12z m394 58h-318l159 227 159-227z" horiz-adv-x="1000" />

<glyph glyph-name="airplay--filled" unicode="&#xe81b;" d="M750 100h125c17 0 33 7 44 18 12 12 19 28 19 45v500c0 16-7 32-19 44-11 11-27 18-44 18h-750c-17 0-32-7-44-18-12-12-18-28-18-44v-500c0-17 6-33 18-45 12-11 27-18 44-18h125v63h-125v500h750v-500h-125v-63z m-485-183c5-3 11-5 16-5h438c5 0 11 2 16 5 5 3 9 7 11 12 3 5 4 11 4 17 0 6-2 11-6 16l-218 312c-3 4-7 8-12 10-4 2-9 4-14 4-5 0-10-2-14-4-5-2-9-6-12-10l-218-312c-4-5-5-10-6-16 0-6 1-12 4-17 2-5 6-9 11-12z m485 183h125c17 0 33 7 44 18 12 12 19 28 19 45v500c0 16-7 32-19 44-11 11-27 18-44 18h-750c-17 0-32-7-44-18-12-12-18-28-18-44v-500c0-17 6-33 18-45 12-11 27-18 44-18h125v63h-125v500h750v-500h-125v-63z m-485-183c5-3 11-5 16-5h438c5 0 11 2 16 5 5 3 9 7 11 12 3 5 4 11 4 17 0 6-2 11-6 16l-218 312c-3 4-7 8-12 10-4 2-9 4-14 4-5 0-10-2-14-4-5-2-9-6-12-10l-218-312c-4-5-5-10-6-16 0-6 1-12 4-17 2-5 6-9 11-12z" horiz-adv-x="1000" />

<glyph glyph-name="airport-location" unicode="&#xe81c;" d="M938 381h-190c-7 55-32 106-71 146-40 39-91 64-146 71v190h-62v-190c-55-7-106-32-145-71-40-40-65-91-72-146h-189v-62h189c7-55 32-106 72-145 39-40 90-65 145-72v-190h62v190c55 7 106 32 146 71 39 40 64 91 71 146h190v62z m-438-218c-37 0-73 11-104 31-31 21-55 50-69 84-14 35-18 72-11 109 7 36 25 69 51 96 27 26 60 44 96 51 37 7 75 3 109-11 34-14 63-38 84-69 21-31 32-67 32-104-1-50-20-97-55-132-36-36-83-55-133-55z m438 218h-190c-7 55-32 106-71 146-40 39-91 64-146 71v190h-62v-190c-55-7-106-32-145-71-40-40-65-91-72-146h-189v-62h189c7-55 32-106 72-145 39-40 90-65 145-72v-190h62v190c55 7 106 32 146 71 39 40 64 91 71 146h190v62z m-438-218c-37 0-73 11-104 31-31 21-55 50-69 84-14 35-18 72-11 109 7 36 25 69 51 96 27 26 60 44 96 51 37 7 75 3 109-11 34-14 63-38 84-69 21-31 32-67 32-104-1-50-20-97-55-132-36-36-83-55-133-55z" horiz-adv-x="1000" />

<glyph glyph-name="analytics" unicode="&#xe81d;" d="M63 788h62v-813h813v-63h-813c-17 0-32 7-44 19-12 11-18 27-18 44v813z m656-219h219v-219h-63v112l-259-259c-3-3-6-5-10-7-4-2-8-2-12-2-4 0-8 0-12 2-4 2-7 4-10 7l-134 134-206-206-44 44 227 228c3 3 7 6 11 7 3 2 7 3 12 3 4 0 8-1 12-3 3-1 7-4 10-7l134-134 237 237h-112v63z m-656 219h62v-813h813v-63h-813c-17 0-32 7-44 19-12 11-18 27-18 44v813z m656-219h219v-219h-63v112l-259-259c-3-3-6-5-10-7-4-2-8-2-12-2-4 0-8 0-12 2-4 2-7 4-10 7l-134 134-206-206-44 44 227 228c3 3 7 6 11 7 3 2 7 3 12 3 4 0 8-1 12-3 3-1 7-4 10-7l134-134 237 237h-112v63z" horiz-adv-x="1000" />

<glyph glyph-name="api" unicode="&#xe81e;" d="M813 163c-23-1-44-7-63-18l-97 97c23 31 35 69 35 108 0 39-12 77-35 108l97 97c19-11 40-17 63-17 24 0 48 7 69 21 21 13 37 33 46 56 9 23 12 48 7 72-5 24-17 46-34 64-18 17-40 29-64 34-24 5-49 2-72-7-23-9-43-25-56-46-14-21-21-45-21-69 0-23 6-44 17-63l-97-97c-31 23-69 35-108 35-39 0-77-12-108-35l-97 97c11 19 17 40 18 63 0 24-8 48-22 69-13 21-33 37-56 46-22 9-48 12-72 7-24-5-46-17-64-34-17-18-29-40-34-64-5-24-2-49 7-72 10-23 26-43 46-56 21-14 45-21 70-21 22 0 43 6 62 17l97-97c-23-31-35-69-35-108 0-39 12-77 35-108l-97-97c-19 11-40 17-62 18-25 0-49-8-70-22-20-13-36-33-46-56-9-22-12-48-7-72 5-24 17-46 34-64 18-17 40-29 64-34 24-5 50-2 72 7 23 9 43 25 56 46 14 21 22 45 22 70-1 22-7 43-18 62l97 97c31-23 69-35 108-35 39 0 77 12 108 35l97-97c-11-19-17-40-17-62 0-25 7-49 21-70 13-21 33-37 56-46 23-9 48-12 72-7 24 5 46 17 64 34 17 18 29 40 34 64 5 24 2 50-7 72-9 23-25 43-46 56-21 14-45 22-69 22z m0 562c12 0 24-4 34-10 11-7 19-17 23-29 5-11 6-24 4-36-3-12-9-23-17-32-9-8-20-14-32-17-12-2-25-1-36 4-12 5-22 13-28 23-7 10-11 22-11 35 0 16 7 32 18 44 12 11 28 18 45 18z m-688-62c0 12 4 24 11 34 6 11 16 19 28 23 11 5 24 6 36 4 12-3 23-9 32-17 8-9 14-20 17-32 2-12 1-25-4-36-4-12-12-22-23-28-10-7-22-11-34-11-17 0-33 7-45 18-11 12-18 28-18 45z m63-688c-13 0-25 4-35 10-10 7-18 17-23 29-5 11-6 24-4 36 3 12 9 23 17 32 9 8 20 14 32 17 12 2 25 1 36-4 12-4 22-12 29-23 6-10 10-22 10-34 0-17-7-33-18-45-12-11-28-18-44-18z m312 250c-25 0-49 7-69 21-21 14-37 33-46 56-10 23-12 48-8 72 5 25 17 47 35 64 17 18 39 30 64 35 24 4 49 2 72-7 23-10 42-26 56-47 14-20 21-44 21-69 0-33-13-65-37-88-23-24-55-37-88-37z m313-250c-13 0-25 4-35 10-10 7-18 17-23 29-5 11-6 24-4 36 3 12 9 23 17 32 9 8 20 14 32 17 12 2 25 1 36-4 12-4 22-12 29-23 6-10 10-22 10-34 0-17-7-33-18-45-12-11-28-18-44-18z m0 188c-23-1-44-7-63-18l-97 97c23 31 35 69 35 108 0 39-12 77-35 108l97 97c19-11 40-17 63-17 24 0 48 7 69 21 21 13 37 33 46 56 9 23 12 48 7 72-5 24-17 46-34 64-18 17-40 29-64 34-24 5-49 2-72-7-23-9-43-25-56-46-14-21-21-45-21-69 0-23 6-44 17-63l-97-97c-31 23-69 35-108 35-39 0-77-12-108-35l-97 97c11 19 17 40 18 63 0 24-8 48-22 69-13 21-33 37-56 46-22 9-48 12-72 7-24-5-46-17-64-34-17-18-29-40-34-64-5-24-2-49 7-72 10-23 26-43 46-56 21-14 45-21 70-21 22 0 43 6 62 17l97-97c-23-31-35-69-35-108 0-39 12-77 35-108l-97-97c-19 11-40 17-62 18-25 0-49-8-70-22-20-13-36-33-46-56-9-22-12-48-7-72 5-24 17-46 34-64 18-17 40-29 64-34 24-5 50-2 72 7 23 9 43 25 56 46 14 21 22 45 22 70-1 22-7 43-18 62l97 97c31-23 69-35 108-35 39 0 77 12 108 35l97-97c-11-19-17-40-17-62 0-25 7-49 21-70 13-21 33-37 56-46 23-9 48-12 72-7 24 5 46 17 64 34 17 18 29 40 34 64 5 24 2 50-7 72-9 23-25 43-46 56-21 14-45 22-69 22z m0 562c12 0 24-4 34-10 11-7 19-17 23-29 5-11 6-24 4-36-3-12-9-23-17-32-9-8-20-14-32-17-12-2-25-1-36 4-12 5-22 13-28 23-7 10-11 22-11 35 0 16 7 32 18 44 12 11 28 18 45 18z m-688-62c0 12 4 24 11 34 6 11 16 19 28 23 11 5 24 6 36 4 12-3 23-9 32-17 8-9 14-20 17-32 2-12 1-25-4-36-4-12-12-22-23-28-10-7-22-11-34-11-17 0-33 7-45 18-11 12-18 28-18 45z m63-688c-13 0-25 4-35 10-10 7-18 17-23 29-5 11-6 24-4 36 3 12 9 23 17 32 9 8 20 14 32 17 12 2 25 1 36-4 12-4 22-12 29-23 6-10 10-22 10-34 0-17-7-33-18-45-12-11-28-18-44-18z m312 250c-25 0-49 7-69 21-21 14-37 33-46 56-10 23-12 48-8 72 5 25 17 47 35 64 17 18 39 30 64 35 24 4 49 2 72-7 23-10 42-26 56-47 14-20 21-44 21-69 0-33-13-65-37-88-23-24-55-37-88-37z m313-250c-13 0-25 4-35 10-10 7-18 17-23 29-5 11-6 24-4 36 3 12 9 23 17 32 9 8 20 14 32 17 12 2 25 1 36-4 12-4 22-12 29-23 6-10 10-22 10-34 0-17-7-33-18-45-12-11-28-18-44-18z" horiz-adv-x="1000" />

<glyph glyph-name="archive" unicode="&#xe81f;" d="M188-25v813h625v-813c0-17-7-33-19-44-11-12-27-19-44-19h-500c-17 0-32 7-44 19-12 11-18 27-18 44z m62 0h500v375h-500v-375z m0 438h500v125h-500v-125z m0 312v-125h500v125h-500z m188-469h125v-62h-125v62z m-250-281v813h625v-813c0-17-7-33-19-44-11-12-27-19-44-19h-500c-17 0-32 7-44 19-12 11-18 27-18 44z m62 0h500v375h-500v-375z m0 438h500v125h-500v-125z m0 312v-125h500v125h-500z m188-469h125v-62h-125v62z" horiz-adv-x="1000" />

<glyph glyph-name="area" unicode="&#xe820;" d="M844 158v384c21 5 41 16 56 32 16 15 27 35 33 56 6 21 6 43 0 65-5 21-16 40-32 56-16 16-35 27-56 32-22 6-44 6-65 0-21-6-41-17-56-33-16-15-27-35-32-56h-384c-5 21-16 41-32 56-15 16-35 27-56 33-21 6-43 6-65 0-21-5-40-16-56-32-15-16-27-35-32-56-6-22-6-44 0-65 6-21 17-41 33-56 15-16 35-27 56-32v-384c-21-5-41-16-56-32-16-15-27-35-33-56-6-21-6-43 0-65 5-21 17-40 32-56 16-16 35-27 56-32 22-6 44-6 65 0 21 6 41 17 56 33 16 15 27 35 32 56h384c5-21 16-41 32-56 15-16 35-27 56-33 21-6 43-6 65 0 21 5 40 16 56 32 16 16 27 35 32 56 6 22 6 44 0 65-6 21-17 41-33 56-15 16-35 27-56 32z m-31 567c12 0 24-4 34-10 11-7 19-17 23-29 5-11 6-24 4-36-3-12-9-23-17-32-9-8-20-14-32-17-12-2-25-1-36 4-12 5-22 13-28 23-7 10-11 22-11 35 0 16 7 32 18 44 12 11 28 18 45 18z m-688-62c0 12 4 24 11 34 6 11 16 19 28 23 11 5 24 6 36 4 12-3 23-9 32-17 8-9 14-20 17-32 2-12 1-25-4-36-4-12-12-22-23-28-10-7-22-11-34-11-17 0-33 7-45 18-11 12-18 28-18 45z m63-688c-13 0-25 4-35 10-10 7-18 17-23 29-5 11-6 24-4 36 3 12 9 23 17 32 9 8 20 14 32 17 12 2 25 1 36-4 12-4 22-12 29-23 6-10 10-22 10-34 0-17-7-33-18-45-12-11-28-18-44-18z m504 94h-384c-5 21-17 41-32 57-16 15-36 27-57 32v384c21 6 41 17 57 33 15 15 27 35 32 56h384c6-21 17-41 33-56 15-16 35-27 56-33v-384c-21-5-41-17-56-32-16-16-27-36-33-57z m121-94c-13 0-25 4-35 10-10 7-18 17-23 29-5 11-6 24-4 36 3 12 9 23 17 32 9 8 20 14 32 17 12 2 25 1 36-4 12-4 22-12 29-23 6-10 10-22 10-34 0-17-7-33-18-45-12-11-28-18-44-18z m31 183v384c21 5 41 16 56 32 16 15 27 35 33 56 6 21 6 43 0 65-5 21-16 40-32 56-16 16-35 27-56 32-22 6-44 6-65 0-21-6-41-17-56-33-16-15-27-35-32-56h-384c-5 21-16 41-32 56-15 16-35 27-56 33-21 6-43 6-65 0-21-5-40-16-56-32-15-16-27-35-32-56-6-22-6-44 0-65 6-21 17-41 33-56 15-16 35-27 56-32v-384c-21-5-41-16-56-32-16-15-27-35-33-56-6-21-6-43 0-65 5-21 17-40 32-56 16-16 35-27 56-32 22-6 44-6 65 0 21 6 41 17 56 33 16 15 27 35 32 56h384c5-21 16-41 32-56 15-16 35-27 56-33 21-6 43-6 65 0 21 5 40 16 56 32 16 16 27 35 32 56 6 22 6 44 0 65-6 21-17 41-33 56-15 16-35 27-56 32z m-31 567c12 0 24-4 34-10 11-7 19-17 23-29 5-11 6-24 4-36-3-12-9-23-17-32-9-8-20-14-32-17-12-2-25-1-36 4-12 5-22 13-28 23-7 10-11 22-11 35 0 16 7 32 18 44 12 11 28 18 45 18z m-688-62c0 12 4 24 11 34 6 11 16 19 28 23 11 5 24 6 36 4 12-3 23-9 32-17 8-9 14-20 17-32 2-12 1-25-4-36-4-12-12-22-23-28-10-7-22-11-34-11-17 0-33 7-45 18-11 12-18 28-18 45z m63-688c-13 0-25 4-35 10-10 7-18 17-23 29-5 11-6 24-4 36 3 12 9 23 17 32 9 8 20 14 32 17 12 2 25 1 36-4 12-4 22-12 29-23 6-10 10-22 10-34 0-17-7-33-18-45-12-11-28-18-44-18z m504 94h-384c-5 21-17 41-32 57-16 15-36 27-57 32v384c21 6 41 17 57 33 15 15 27 35 32 56h384c6-21 17-41 33-56 15-16 35-27 56-33v-384c-21-5-41-17-56-32-16-16-27-36-33-57z m121-94c-13 0-25 4-35 10-10 7-18 17-23 29-5 11-6 24-4 36 3 12 9 23 17 32 9 8 20 14 32 17 12 2 25 1 36-4 12-4 22-12 29-23 6-10 10-22 10-34 0-17-7-33-18-45-12-11-28-18-44-18z" horiz-adv-x="1000" />

<glyph glyph-name="arrow--down" unicode="&#xe821;" d="M768 332l-237-237v630h-62v-630l-237 237-44-44 312-313 313 313-45 44z m0 0l-237-237v630h-62v-630l-237 237-44-44 312-313 313 313-45 44z" horiz-adv-x="1000" />

<glyph glyph-name="arrow--left" unicode="&#xe822;" d="M438 38l44 44-237 237h630v62h-630l237 237-44 45-313-313 313-312z m0 0l44 44-237 237h630v62h-630l237 237-44 45-313-313 313-312z" horiz-adv-x="1000" />

<glyph glyph-name="arrow--right" unicode="&#xe823;" d="M563 663l-45-44 237-238h-630v-62h630l-237-237 45-44 312 312-312 313z m0 0l-45-44 237-238h-630v-62h630l-237-237 45-44 312 312-312 313z" horiz-adv-x="1000" />

<glyph glyph-name="arrow--up" unicode="&#xe824;" d="M500 725l-312-312 44-45 237 237v-630h62v630l237-237 45 45-313 312z m0 0l-312-312 44-45 237 237v-630h62v630l237-237 45 45-313 312z" horiz-adv-x="1000" />

<glyph glyph-name="arrow--up-right" unicode="&#xe825;" d="M313 663v-63h393l-518-518 44-44 518 518v-393h63v500h-500z m0 0v-63h393l-518-518 44-44 518 518v-393h63v500h-500z" horiz-adv-x="1000" />

<glyph glyph-name="asleep" unicode="&#xe826;" d="M422 681c-14-61-16-125-6-187 11-62 34-121 67-174 34-53 78-98 130-134 52-36 110-61 171-74-32-33-71-60-114-78-42-18-88-28-135-28-4 0-9 0-13 0-81 3-158 34-219 88-60 54-100 128-112 208-12 80 5 162 47 231 42 69 107 122 184 148z m46 75c-2 0-3 0-5 0-100-18-189-72-251-151-63-80-93-180-86-281 7-101 51-195 124-265 73-71 169-112 270-115 5 0 10 0 15 0 66 0 130 16 189 46 58 30 108 74 146 127 3 5 4 10 5 16 0 6-1 11-4 16-2 5-6 9-10 12-5 3-10 5-16 5-62 6-123 26-176 58-54 33-99 77-133 130-34 53-55 113-62 175-6 62 1 125 23 184 1 5 2 10 2 15-1 5-3 10-6 14-2 4-6 8-10 10-5 3-10 4-15 4z m-46-75c-14-61-16-125-6-187 11-62 34-121 67-174 34-53 78-98 130-134 52-36 110-61 171-74-32-33-71-60-114-78-42-18-88-28-135-28-4 0-9 0-13 0-81 3-158 34-219 88-60 54-100 128-112 208-12 80 5 162 47 231 42 69 107 122 184 148z m46 75c-2 0-3 0-5 0-100-18-189-72-251-151-63-80-93-180-86-281 7-101 51-195 124-265 73-71 169-112 270-115 5 0 10 0 15 0 66 0 130 16 189 46 58 30 108 74 146 127 3 5 4 10 5 16 0 6-1 11-4 16-2 5-6 9-10 12-5 3-10 5-16 5-62 6-123 26-176 58-54 33-99 77-133 130-34 53-55 113-62 175-6 62 1 125 23 184 1 5 2 10 2 15-1 5-3 10-6 14-2 4-6 8-10 10-5 3-10 4-15 4z" horiz-adv-x="1000" />

<glyph glyph-name="attachment" unicode="&#xe827;" d="M878 259l-469 469c-78 81-206 81-287 3-81-78-81-209 0-287l3-3 88-91 43 44-90 90c-53 54-53 144 0 197 53 53 143 57 197 3 0 0 0 0 3-3l465-465c57-53 57-144 3-197-53-57-143-57-196-3 0 0 0 0-4 3l-231 231c-31 31-28 81 0 109 31 29 78 29 110 0l128-128 43 44-131 131c-56 53-144 50-197-6-50-53-50-137 0-194l235-234c78-81 206-81 287-3 81 78 81 209 0 290 0-3 0 0 0 0z m0 0l-469 469c-78 81-206 81-287 3-81-78-81-209 0-287l3-3 88-91 43 44-90 90c-53 54-53 144 0 197 53 53 143 57 197 3 0 0 0 0 3-3l465-465c57-53 57-144 3-197-53-57-143-57-196-3 0 0 0 0-4 3l-231 231c-31 31-28 81 0 109 31 29 78 29 110 0l128-128 43 44-131 131c-56 53-144 50-197-6-50-53-50-137 0-194l235-234c78-81 206-81 287-3 81 78 81 209 0 290 0-3 0 0 0 0z" horiz-adv-x="1000" />

<glyph glyph-name="audio-console" unicode="&#xe828;" d="M219 225h31c17 0 33-7 44-18 12-12 19-28 19-45v-62c0-17-7-33-19-44-11-12-27-19-44-19h-31v-125h-63v125h-31c-17 0-32 7-44 19-12 11-18 27-18 44v62c0 17 6 33 18 45 12 11 27 18 44 18h31v562h63v-562z m-94-125h125v62h-125v-62z m438 562h-32v125h-62v-125h-31c-17 0-33-6-45-18-11-12-18-28-18-44v-63c0-16 7-32 18-44 12-12 28-18 45-18h31v-563h62v563h32c16 0 32 6 44 18 11 12 18 28 18 44v63c0 16-7 32-18 44-12 12-28 18-44 18z m0-125h-125v63h125v-63z m312-125h-31v375h-63v-375h-31c-17 0-32-6-44-18-12-12-18-28-18-44v-63c0-16 6-32 18-44 12-12 27-18 44-18h31v-313h63v313h31c17 0 33 7 44 18 12 12 19 28 19 44v63c0 16-7 32-19 44-11 12-27 18-44 18z m0-125h-125v63h125v-63z m-656-62h31c17 0 33-7 44-18 12-12 19-28 19-45v-62c0-17-7-33-19-44-11-12-27-19-44-19h-31v-125h-63v125h-31c-17 0-32 7-44 19-12 11-18 27-18 44v62c0 17 6 33 18 45 12 11 27 18 44 18h31v562h63v-562z m-94-125h125v62h-125v-62z m438 562h-32v125h-62v-125h-31c-17 0-33-6-45-18-11-12-18-28-18-44v-63c0-16 7-32 18-44 12-12 28-18 45-18h31v-563h62v563h32c16 0 32 6 44 18 11 12 18 28 18 44v63c0 16-7 32-18 44-12 12-28 18-44 18z m0-125h-125v63h125v-63z m312-125h-31v375h-63v-375h-31c-17 0-32-6-44-18-12-12-18-28-18-44v-63c0-16 6-32 18-44 12-12 27-18 44-18h31v-313h63v313h31c17 0 33 7 44 18 12 12 19 28 19 44v63c0 16-7 32-19 44-11 12-27 18-44 18z m0-125h-125v63h125v-63z" horiz-adv-x="1000" />

<glyph glyph-name="augmented-reality" unicode="&#xe829;" d="M175-69c11-12 27-19 44-19h406c17 0 33 7 44 19 12 11 19 27 19 44v125h-63v-125h-406v750h406v63h-406c-17 0-33-7-44-19-12-11-19-27-19-44v-750c0-17 7-33 19-44z m683 635l-188 93c-4 2-9 4-14 4-5 0-9-2-14-4l-187-93c-5-3-10-7-13-12-3-5-4-11-4-16v-219c0-6 1-12 4-17 3-5 8-9 13-11l187-94c5-2 9-3 14-3 5 0 10 1 14 3l188 94c5 2 9 6 12 11 3 5 5 11 5 17v219c0 5-2 11-5 16-3 5-7 9-12 12z m-202 30l118-58-118-59-117 59 117 58z m-156-109l125-63v-148l-125 62v149z m188-211v148l125 63v-149l-125-62z m-266-238c26 0 47 21 47 46 0 26-21 47-47 47-26 0-47-21-47-47 0-25 21-46 47-46z m-247-107c11-12 27-19 44-19h406c17 0 33 7 44 19 12 11 19 27 19 44v125h-63v-125h-406v750h406v63h-406c-17 0-33-7-44-19-12-11-19-27-19-44v-750c0-17 7-33 19-44z m683 635l-188 93c-4 2-9 4-14 4-5 0-9-2-14-4l-187-93c-5-3-10-7-13-12-3-5-4-11-4-16v-219c0-6 1-12 4-17 3-5 8-9 13-11l187-94c5-2 9-3 14-3 5 0 10 1 14 3l188 94c5 2 9 6 12 11 3 5 5 11 5 17v219c0 5-2 11-5 16-3 5-7 9-12 12z m-202 30l118-58-118-59-117 59 117 58z m-156-109l125-63v-148l-125 62v149z m188-211v148l125 63v-149l-125-62z m-266-238c26 0 47 21 47 46 0 26-21 47-47 47-26 0-47-21-47-47 0-25 21-46 47-46z" horiz-adv-x="1000" />

<glyph glyph-name="auto-scroll" unicode="&#xe82a;" d="M674 525l-174 174-175-174-44 44 219 219 219-219-45-44z m-299-175c0-25 7-49 21-69 14-21 33-37 56-46 23-10 48-12 72-8 25 5 47 17 64 35 18 17 30 39 35 64 4 24 2 49-7 72-10 23-26 42-47 56-20 14-44 21-69 21-33 0-65-13-88-37-24-23-37-55-37-88z m188 0c0-12-4-24-11-35-7-10-17-18-28-23-11-4-24-6-36-3-12 2-23 8-32 17-9 9-15 20-17 32-3 12-1 25 3 36 5 11 13 21 23 28 11 7 23 11 35 11 17 0 33-7 44-19 12-11 19-27 19-44z m-63-349l-175 175-44-45 219-219 219 219-44 44-175-174z m174 524l-174 174-175-174-44 44 219 219 219-219-45-44z m-299-175c0-25 7-49 21-69 14-21 33-37 56-46 23-10 48-12 72-8 25 5 47 17 64 35 18 17 30 39 35 64 4 24 2 49-7 72-10 23-26 42-47 56-20 14-44 21-69 21-33 0-65-13-88-37-24-23-37-55-37-88z m188 0c0-12-4-24-11-35-7-10-17-18-28-23-11-4-24-6-36-3-12 2-23 8-32 17-9 9-15 20-17 32-3 12-1 25 3 36 5 11 13 21 23 28 11 7 23 11 35 11 17 0 33-7 44-19 12-11 19-27 19-44z m-63-349l-175 175-44-45 219-219 219 219-44 44-175-174z" horiz-adv-x="1000" />

<glyph glyph-name="awake" unicode="&#xe82b;" d="M531 788h-62v-155h62v155z m256-106l-109-110 44-44 110 110-45 44z m-4-301h155v-62h-155v62z m-61-209l-44-44 110-110 44 45-110 109z m-253-104h62v-156h-62v156z m-191 104l-109-110 44-44 109 110-44 44z m-215 209h155v-62h-155v62z m150 301l-44-45 109-109 44 44-109 110z m356-228c-20 14-44 21-69 21-33 0-65-13-88-37-24-23-37-55-37-88 0-25 7-49 21-69 14-21 33-37 56-46 23-10 48-12 72-8 25 5 47 17 64 35 18 17 30 39 35 64 4 24 2 49-7 72-10 23-26 42-47 56z m-173 52c31 21 67 32 104 32 50 0 97-20 133-55 35-36 55-83 55-133 0-37-11-73-32-104-21-31-50-55-84-69-34-14-72-18-109-11-36 7-69 25-96 51-26 27-44 60-51 96-7 37-3 75 11 109 14 34 38 63 69 84z m135 282h-62v-155h62v155z m256-106l-109-110 44-44 110 110-45 44z m-4-301h155v-62h-155v62z m-61-209l-44-44 110-110 44 45-110 109z m-253-104h62v-156h-62v156z m-191 104l-109-110 44-44 109 110-44 44z m-215 209h155v-62h-155v62z m150 301l-44-45 109-109 44 44-109 110z m356-228c-20 14-44 21-69 21-33 0-65-13-88-37-24-23-37-55-37-88 0-25 7-49 21-69 14-21 33-37 56-46 23-10 48-12 72-8 25 5 47 17 64 35 18 17 30 39 35 64 4 24 2 49-7 72-10 23-26 42-47 56z m-173 52c31 21 67 32 104 32 50 0 97-20 133-55 35-36 55-83 55-133 0-37-11-73-32-104-21-31-50-55-84-69-34-14-72-18-109-11-36 7-69 25-96 51-26 27-44 60-51 96-7 37-3 75 11 109 14 34 38 63 69 84z" horiz-adv-x="1000" />

<glyph glyph-name="back-to-top" unicode="&#xe82c;" d="M125 600h750v-62h-750v62z m63-500l312 313 313-313-44-44-269 269-269-269-43 44z m-63 500h750v-62h-750v62z m63-500l312 313 313-313-44-44-269 269-269-269-43 44z" horiz-adv-x="1000" />

<glyph glyph-name="bar" unicode="&#xe82d;" d="M313 819h156c8 0 16-3 22-9 6-6 9-14 9-22v-188h-62v156h-94v-241l-22-7c-2-1-72-27-72-127v-406h125v-63h-156c-8 0-16 4-22 10-6 5-9 13-9 22v437c-3 35 5 70 22 102 16 31 41 56 71 74v231c0 8 4 16 9 22 6 6 14 9 23 9z m156-313h312c9 0 17-3 22-9 6-6 10-14 10-22v-125c-1-44-16-87-45-121-28-34-68-56-112-64v-190h94v-63h-250v63h94v190c-44 8-83 30-112 64-29 34-44 77-44 121v125c0 8 3 16 9 22 6 6 14 9 22 9z m244-244c24 23 37 55 37 88v94h-250v-94c0-33 13-65 37-88 23-24 55-37 88-37 33 0 65 13 88 37z m-400 557h156c8 0 16-3 22-9 6-6 9-14 9-22v-188h-62v156h-94v-241l-22-7c-2-1-72-27-72-127v-406h125v-63h-156c-8 0-16 4-22 10-6 5-9 13-9 22v437c-3 35 5 70 22 102 16 31 41 56 71 74v231c0 8 4 16 9 22 6 6 14 9 23 9z m156-313h312c9 0 17-3 22-9 6-6 10-14 10-22v-125c-1-44-16-87-45-121-28-34-68-56-112-64v-190h94v-63h-250v63h94v190c-44 8-83 30-112 64-29 34-44 77-44 121v125c0 8 3 16 9 22 6 6 14 9 22 9z m244-244c24 23 37 55 37 88v94h-250v-94c0-33 13-65 37-88 23-24 55-37 88-37 33 0 65 13 88 37z" horiz-adv-x="1000" />

<glyph glyph-name="barrier" unicode="&#xe82e;" d="M469 694h62v-125h-62v125z m0-188h62v-125h-62v125z m62-187h-62v-125h62v125z m-62-188h62v-125h-62v125z m0 563h62v-125h-62v125z m0-188h62v-125h-62v125z m62-187h-62v-125h62v125z m-62-188h62v-125h-62v125z" horiz-adv-x="1000" />

<glyph glyph-name="bastion-host" unicode="&#xe82f;" d="M860 765c-6 7-13 13-21 17-8 4-17 6-26 6h-85c-8 0-17-3-24-7-8-5-14-12-17-19l-19-37h-43v16c0 12-5 24-14 33-8 9-20 14-33 14h-156c-13 0-24-5-33-14-9-9-14-21-14-33v-16h-43l-18 37c-4 7-10 14-18 19-7 4-16 7-24 7h-84c-10 0-19-2-27-6-8-4-15-10-21-17-6-7-10-15-13-23-2-9-3-18-1-27l22-131c4-21 15-41 32-56 17-14 38-22 60-22h10v-375c-25 0-49-10-66-27-18-18-28-42-28-66v-126h688v126c0 24-10 48-28 66-17 17-41 27-66 27v375h10c22 0 43 8 60 22 17 15 28 35 32 56l22 131c2 9 1 18-1 27-3 8-7 16-13 23z m-79-727v-63h-562v63c0 8 3 16 9 22 6 5 14 9 22 9h500c8 0 16-4 22-9 6-6 9-14 9-22z m-93 93h-375v375h375v-375z m103 464c-2-7-5-14-11-19-6-5-13-7-20-7h-520c-7 0-14 2-20 7-5 5-9 12-10 19l-22 130h74l31-62h145v62h125v-62h144l31 62h75l-22-130z m69 170c-6 7-13 13-21 17-8 4-17 6-26 6h-85c-8 0-17-3-24-7-8-5-14-12-17-19l-19-37h-43v16c0 12-5 24-14 33-8 9-20 14-33 14h-156c-13 0-24-5-33-14-9-9-14-21-14-33v-16h-43l-18 37c-4 7-10 14-18 19-7 4-16 7-24 7h-84c-10 0-19-2-27-6-8-4-15-10-21-17-6-7-10-15-13-23-2-9-3-18-1-27l22-131c4-21 15-41 32-56 17-14 38-22 60-22h10v-375c-25 0-49-10-66-27-18-18-28-42-28-66v-126h688v126c0 24-10 48-28 66-17 17-41 27-66 27v375h10c22 0 43 8 60 22 17 15 28 35 32 56l22 131c2 9 1 18-1 27-3 8-7 16-13 23z m-79-727v-63h-562v63c0 8 3 16 9 22 6 5 14 9 22 9h500c8 0 16-4 22-9 6-6 9-14 9-22z m-93 93h-375v375h375v-375z m103 464c-2-7-5-14-11-19-6-5-13-7-20-7h-520c-7 0-14 2-20 7-5 5-9 12-10 19l-22 130h74l31-62h145v62h125v-62h144l31 62h75l-22-130z" horiz-adv-x="1000" />

<glyph glyph-name="book" unicode="&#xe830;" d="M125 694h750c17 0 33-7 44-19 12-11 19-27 19-44v-562c0-17-7-33-19-44-11-12-27-19-44-19h-750c-17 0-32 7-44 19-12 11-18 27-18 44v562c0 17 6 33 18 44 12 12 27 19 44 19z m344-63h-344v-562h344v562z m62 0v-562h344v562h-344z m-125-93h-218v-63h218v63z m407 0h-219v-63h219v63z m0-157h-219v-62h219v62z m-219-156h219v-62h-219v62z m-406 156h218v-62h-218v62z m218-156h-218v-62h218v62z m-281 469h750c17 0 33-7 44-19 12-11 19-27 19-44v-562c0-17-7-33-19-44-11-12-27-19-44-19h-750c-17 0-32 7-44 19-12 11-18 27-18 44v562c0 17 6 33 18 44 12 12 27 19 44 19z m344-63h-344v-562h344v562z m62 0v-562h344v562h-344z m-125-93h-218v-63h218v63z m407 0h-219v-63h219v63z m0-157h-219v-62h219v62z m-219-156h219v-62h-219v62z m-406 156h218v-62h-218v62z m218-156h-218v-62h218v62z" horiz-adv-x="1000" />

<glyph glyph-name="bookmark" unicode="&#xe831;" d="M750 725v-711l-222 112-28 14-28-14-222-112v711h500z m0 63h-500c-17 0-32-7-44-19-12-11-18-27-18-44v-813l312 157 313-157v813c0 17-7 33-19 44-11 12-27 19-44 19z m0-63v-711l-222 112-28 14-28-14-222-112v711h500z m0 63h-500c-17 0-32-7-44-19-12-11-18-27-18-44v-813l312 157 313-157v813c0 17-7 33-19 44-11 12-27 19-44 19z" horiz-adv-x="1000" />

<glyph glyph-name="bookmark--add" unicode="&#xe832;" d="M750 14v336h63v-438l-313 158-312-158v813c0 17 6 33 18 44 12 12 27 19 44 19h313v-63h-313v-711l222 112 28 15 28-15 222-112z m0 774h63v-125h125v-63h-125v-125h-63v125h-125v63h125v125z m0-774v336h63v-438l-313 158-312-158v813c0 17 6 33 18 44 12 12 27 19 44 19h313v-63h-313v-711l222 112 28 15 28-15 222-112z m0 774h63v-125h125v-63h-125v-125h-63v125h-125v63h125v125z" horiz-adv-x="1000" />

<glyph glyph-name="box" unicode="&#xe833;" d="M125 725h750c17 0 33-7 44-18 12-12 19-28 19-44v-125c0-17-7-33-19-45-11-11-27-18-44-18v-500c0-17-7-33-18-44-12-12-28-19-44-19h-625c-17 0-33 7-45 19-11 11-18 27-18 44v500c-17 0-32 7-44 18-12 12-18 28-18 45v125c0 16 6 32 18 44 12 11 27 18 44 18z m63-750h625v500h-625v-500z m-63 563h750v125h-750v-125z m250-344h250c17 0 33 6 44 18 12 12 19 28 19 44v63c0 16-7 32-19 44-11 12-27 18-44 18h-250c-17 0-32-6-44-18-12-12-18-28-18-44v-63c0-16 6-32 18-44 12-12 27-18 44-18z m0 62v63h250v-63h-250z m-250 469h750c17 0 33-7 44-18 12-12 19-28 19-44v-125c0-17-7-33-19-45-11-11-27-18-44-18v-500c0-17-7-33-18-44-12-12-28-19-44-19h-625c-17 0-33 7-45 19-11 11-18 27-18 44v500c-17 0-32 7-44 18-12 12-18 28-18 45v125c0 16 6 32 18 44 12 11 27 18 44 18z m63-750h625v500h-625v-500z m-63 563h750v125h-750v-125z m250-344h250c17 0 33 6 44 18 12 12 19 28 19 44v63c0 16-7 32-19 44-11 12-27 18-44 18h-250c-17 0-32-6-44-18-12-12-18-28-18-44v-63c0-16 6-32 18-44 12-12 27-18 44-18z m0 62v63h250v-63h-250z" horiz-adv-x="1000" />

<glyph glyph-name="brightness-contrast" unicode="&#xe834;" d="M531 788h-62v-94h62v94z m407-407h-94v-62h94v62z m-469-469v94h62v-94h-62z m-313 469h-93v-62h93v62z m14 254l45 44 66-66-44-44-67 66z m615 44l-66-66 44-44 66 66-44 44z m-66-592l44 44 66-66-44-44-66 66z m-548-22l66 66 44-44-66-66-44 44z m190 493c41 27 90 42 139 42 66 0 130-26 177-73 47-47 73-111 73-177 0-49-15-98-42-139-28-41-67-73-112-92-46-19-96-24-145-14-48 10-93 33-128 68-35 35-59 80-68 128-10 49-5 99 14 145 19 45 51 84 92 112z m6-341c36-35 83-54 133-54v375c-50 0-97-20-133-55-35-36-54-83-54-133 0-50 19-97 54-133z m164 571h-62v-94h62v94z m407-407h-94v-62h94v62z m-469-469v94h62v-94h-62z m-313 469h-93v-62h93v62z m14 254l45 44 66-66-44-44-67 66z m615 44l-66-66 44-44 66 66-44 44z m-66-592l44 44 66-66-44-44-66 66z m-548-22l66 66 44-44-66-66-44 44z m190 493c41 27 90 42 139 42 66 0 130-26 177-73 47-47 73-111 73-177 0-49-15-98-42-139-28-41-67-73-112-92-46-19-96-24-145-14-48 10-93 33-128 68-35 35-59 80-68 128-10 49-5 99 14 145 19 45 51 84 92 112z m6-341c36-35 83-54 133-54v375c-50 0-97-20-133-55-35-36-54-83-54-133 0-50 19-97 54-133z" horiz-adv-x="1000" />

<glyph glyph-name="brush-freehand" unicode="&#xe835;" d="M142 400c18-12 40-19 61-19 15 0 29 3 42 9 13 5 25 13 36 23l125 126-44 44-126-125c-9-9-20-14-33-14-12 0-24 5-33 14-9 8-14 20-14 33 0 12 5 24 14 33l109 109c21 21 32 48 32 77 0 29-11 57-32 78-20 20-48 31-77 31-29 0-56-11-77-31l-62-62 44-44 62 62c9 8 21 13 33 13 12 0 24-5 33-13 9-9 14-21 14-33 0-13-5-25-14-34l-109-109c-15-15-26-35-30-56-4-21-2-43 6-63 8-20 22-37 40-49z m671 386c32 0 64-12 88-35 12-12 21-25 27-41 6-15 10-31 10-47 0-17-4-33-10-48-6-15-15-29-27-41l-598-597c-20-21-44-37-71-48-26-11-55-17-83-17h-86v87c-1 29 5 57 16 84 11 26 27 50 48 70l597 598c24 23 56 35 89 35z m-384-595l-88 88-66-66 88-88 66 66z m-220-204c18 8 36 19 50 34l60 60-88 88-60-60c-15-14-26-31-34-50-8-19-12-40-12-60v-24h24c20 0 41 4 60 12z m265 248l383 383v0c6 6 10 13 13 21 3 7 5 15 5 24 0 8-2 16-5 23-3 8-7 15-13 21-12 11-28 17-44 17-17 0-33-6-45-17l-383-383 89-89z m-332 165c18-12 40-19 61-19 15 0 29 3 42 9 13 5 25 13 36 23l125 126-44 44-126-125c-9-9-20-14-33-14-12 0-24 5-33 14-9 8-14 20-14 33 0 12 5 24 14 33l109 109c21 21 32 48 32 77 0 29-11 57-32 78-20 20-48 31-77 31-29 0-56-11-77-31l-62-62 44-44 62 62c9 8 21 13 33 13 12 0 24-5 33-13 9-9 14-21 14-33 0-13-5-25-14-34l-109-109c-15-15-26-35-30-56-4-21-2-43 6-63 8-20 22-37 40-49z m671 386c32 0 64-12 88-35 12-12 21-25 27-41 6-15 10-31 10-47 0-17-4-33-10-48-6-15-15-29-27-41l-598-597c-20-21-44-37-71-48-26-11-55-17-83-17h-86v87c-1 29 5 57 16 84 11 26 27 50 48 70l597 598c24 23 56 35 89 35z m-384-595l-88 88-66-66 88-88 66 66z m-220-204c18 8 36 19 50 34l60 60-88 88-60-60c-15-14-26-31-34-50-8-19-12-40-12-60v-24h24c20 0 41 4 60 12z m265 248l383 383v0c6 6 10 13 13 21 3 7 5 15 5 24 0 8-2 16-5 23-3 8-7 15-13 21-12 11-28 17-44 17-17 0-33-6-45-17l-383-383 89-89z" horiz-adv-x="1000" />

<glyph glyph-name="building" unicode="&#xe836;" d="M875 788h-375c-17 0-32-7-44-19-12-11-18-27-18-44v-312h-313c-17 0-32-7-44-19-12-11-18-27-18-44v-438h875v813c0 17-7 33-19 44-11 12-27 19-44 19z m-594-813v219h125v-219h-125z m594 0h-406v250c0 8-3 16-9 22-6 6-14 9-22 9h-188c-8 0-16-3-22-9-6-6-9-14-9-22v-250h-94v375h375v375h375v-750z m-250 625h-62v-62h62v62z m125 0h63v-62h-63v62z m-125-187h-62v-63h62v63z m125 0h63v-63h-63v63z m-125-188h-62v-62h62v62z m125 0h63v-62h-63v62z m125 563h-375c-17 0-32-7-44-19-12-11-18-27-18-44v-312h-313c-17 0-32-7-44-19-12-11-18-27-18-44v-438h875v813c0 17-7 33-19 44-11 12-27 19-44 19z m-594-813v219h125v-219h-125z m594 0h-406v250c0 8-3 16-9 22-6 6-14 9-22 9h-188c-8 0-16-3-22-9-6-6-9-14-9-22v-250h-94v375h375v375h375v-750z m-250 625h-62v-62h62v62z m125 0h63v-62h-63v62z m-125-187h-62v-63h62v63z m125 0h63v-63h-63v63z m-125-188h-62v-62h62v62z m125 0h63v-62h-63v62z" horiz-adv-x="1000" />

<glyph glyph-name="calendar" unicode="&#xe837;" d="M813 725h-125v63h-63v-63h-250v63h-62v-63h-125c-35 0-63-28-63-62v-625c0-35 28-63 63-63h625c34 0 62 28 62 63v625c0 34-28 62-62 62z m0-687h-625v437h625v-437z m0 500h-625v125h125v-63h62v63h250v-63h63v63h125v-125z m0 187h-125v63h-63v-63h-250v63h-62v-63h-125c-35 0-63-28-63-62v-625c0-35 28-63 63-63h625c34 0 62 28 62 63v625c0 34-28 62-62 62z m0-687h-625v437h625v-437z m0 500h-625v125h125v-63h62v63h250v-63h63v63h125v-125z" horiz-adv-x="1000" />

<glyph glyph-name="camera" unicode="&#xe838;" d="M94 38h812c9 0 17 3 22 9 6 6 10 14 10 22v531c0 8-4 16-10 22-5 6-13 9-22 9h-202l-53 80c-3 4-7 8-11 10-5 3-10 4-15 4h-250c-5 0-10-1-15-4-4-2-8-6-11-10l-53-80h-202c-8 0-16-3-22-9-6-6-9-14-9-22v-531c0-8 3-16 9-22 6-6 14-9 22-9z m781 62h-750v469h188c5 0 10 1 14 4 5 2 9 6 11 10l54 80h216l54-80c2-4 6-8 11-10 4-3 9-4 15-4h187v-469z m-479 94c31-20 67-31 104-31 50 0 97 19 133 54 35 36 55 83 55 133 0 37-11 73-32 104-21 31-50 55-84 69-34 14-72 18-109 11-36-7-69-25-96-51-26-27-44-60-51-96-7-37-3-74 11-109 14-34 38-63 69-84z m35 260c20 14 44 21 69 21 33 0 65-13 88-37 24-23 37-55 37-88 0-25-7-49-21-69-14-21-33-37-56-46-23-10-48-12-72-8-25 5-47 17-64 35-18 17-30 39-35 64-4 24-2 49 8 72 9 23 25 42 46 56z m-337-416h812c9 0 17 3 22 9 6 6 10 14 10 22v531c0 8-4 16-10 22-5 6-13 9-22 9h-202l-53 80c-3 4-7 8-11 10-5 3-10 4-15 4h-250c-5 0-10-1-15-4-4-2-8-6-11-10l-53-80h-202c-8 0-16-3-22-9-6-6-9-14-9-22v-531c0-8 3-16 9-22 6-6 14-9 22-9z m781 62h-750v469h188c5 0 10 1 14 4 5 2 9 6 11 10l54 80h216l54-80c2-4 6-8 11-10 4-3 9-4 15-4h187v-469z m-479 94c31-20 67-31 104-31 50 0 97 19 133 54 35 36 55 83 55 133 0 37-11 73-32 104-21 31-50 55-84 69-34 14-72 18-109 11-36-7-69-25-96-51-26-27-44-60-51-96-7-37-3-74 11-109 14-34 38-63 69-84z m35 260c20 14 44 21 69 21 33 0 65-13 88-37 24-23 37-55 37-88 0-25-7-49-21-69-14-21-33-37-56-46-23-10-48-12-72-8-25 5-47 17-64 35-18 17-30 39-35 64-4 24-2 49 8 72 9 23 25 42 46 56z" horiz-adv-x="1000" />

<glyph glyph-name="carbon" unicode="&#xe839;" d="M813 319h62v312c0 6-1 11-4 16-3 5-7 9-12 12l-265 150c-5 3-10 4-16 4-5 0-11-1-15-4l-266-150 31-55 250 142 235-133v-294z m-406-428c4-3 10-4 15-4 5 0 11 1 15 4l266 151c5 2 9 6 12 11 2 5 4 10 4 16v312c0 6-2 11-4 16-3 5-7 9-12 12l-266 150c-4 3-10 4-15 4-5 0-11-1-15-4l-266-150c-5-3-9-7-12-12-2-5-4-10-4-16v-312c0-6 2-11 4-16 3-5 7-9 12-11l266-151z m15 63l-234 133v276l234 133 234-133v-276l-234-133z m391 365h62v312c0 6-1 11-4 16-3 5-7 9-12 12l-265 150c-5 3-10 4-16 4-5 0-11-1-15-4l-266-150 31-55 250 142 235-133v-294z m-406-428c4-3 10-4 15-4 5 0 11 1 15 4l266 151c5 2 9 6 12 11 2 5 4 10 4 16v312c0 6-2 11-4 16-3 5-7 9-12 12l-266 150c-4 3-10 4-15 4-5 0-11-1-15-4l-266-150c-5-3-9-7-12-12-2-5-4-10-4-16v-312c0-6 2-11 4-16 3-5 7-9 12-11l266-151z m15 63l-234 133v276l234 133 234-133v-276l-234-133z" horiz-adv-x="1000" />

<glyph glyph-name="caret--down" unicode="&#xe83a;" d="M750 475l-250-312-250 312h500z m0 0l-250-312-250 312h500z" horiz-adv-x="1000" />

<glyph glyph-name="caret--left" unicode="&#xe83b;" d="M625 100l-312 250 312 250v-500z m0 0l-312 250 312 250v-500z" horiz-adv-x="1000" />

<glyph glyph-name="caret--right" unicode="&#xe83c;" d="M375 600l313-250-313-250v500z m0 0l313-250-313-250v500z" horiz-adv-x="1000" />

<glyph glyph-name="caret--sort" unicode="&#xe83d;" d="M500 850l-250-250h500l-250 250z m0-1000l250 250h-500l250-250z m0 1000l-250-250h500l-250 250z m0-1000l250 250h-500l250-250z" horiz-adv-x="1000" />

<glyph glyph-name="caret--up" unicode="&#xe83e;" d="M250 225l250 313 250-313h-500z m0 0l250 313 250-313h-500z" horiz-adv-x="1000" />

<glyph glyph-name="carousel--horizontal" unicode="&#xe83f;" d="M688 38h-375c-17 0-33 6-45 18-11 12-18 27-18 44v500c0 17 7 33 18 44 12 12 28 19 45 19h375c16 0 32-7 44-19 11-11 18-27 18-44v-500c0-17-7-32-18-44-12-12-28-18-44-18z m-375 562v-500h375v500h-375z m-188-500h-125v63h125v375h-125v62h125c17 0 33-7 44-18 12-12 19-28 19-44v-375c0-17-7-33-19-45-11-11-27-18-44-18z m750 0h125v63h-125v375h125v62h-125c-17 0-32-7-44-18-12-12-18-28-18-44v-375c0-17 6-33 18-45 12-11 27-18 44-18z m-187-62h-375c-17 0-33 6-45 18-11 12-18 27-18 44v500c0 17 7 33 18 44 12 12 28 19 45 19h375c16 0 32-7 44-19 11-11 18-27 18-44v-500c0-17-7-32-18-44-12-12-28-18-44-18z m-375 562v-500h375v500h-375z m-188-500h-125v63h125v375h-125v62h125c17 0 33-7 44-18 12-12 19-28 19-44v-375c0-17-7-33-19-45-11-11-27-18-44-18z m750 0h125v63h-125v375h125v62h-125c-17 0-32-7-44-18-12-12-18-28-18-44v-375c0-17 6-33 18-45 12-11 27-18 44-18z" horiz-adv-x="1000" />

<glyph glyph-name="carousel--vertical" unicode="&#xe840;" d="M750 725v125h-62v-125h-375v125h-63v-125c0-17 7-32 18-44 12-12 28-18 45-18h375c16 0 32 6 44 18 11 12 18 27 18 44z m63-187v-375c0-17-7-33-19-45-11-11-27-18-44-18h-500c-17 0-32 7-44 18-12 12-18 28-18 45v375c0 16 6 32 18 44 12 11 27 18 44 18h500c17 0 33-7 44-18 12-12 19-28 19-44z m-563-375h500v375h-500v-375z m500-188v-125h-62v125h-375v-125h-63v125c0 17 7 33 18 44 12 12 28 19 45 19h375c16 0 32-7 44-19 11-11 18-27 18-44z m0 750v125h-62v-125h-375v125h-63v-125c0-17 7-32 18-44 12-12 28-18 45-18h375c16 0 32 6 44 18 11 12 18 27 18 44z m63-187v-375c0-17-7-33-19-45-11-11-27-18-44-18h-500c-17 0-32 7-44 18-12 12-18 28-18 45v375c0 16 6 32 18 44 12 11 27 18 44 18h500c17 0 33-7 44-18 12-12 19-28 19-44z m-563-375h500v375h-500v-375z m500-188v-125h-62v125h-375v-125h-63v125c0 17 7 33 18 44 12 12 28 19 45 19h375c16 0 32-7 44-19 11-11 18-27 18-44z" horiz-adv-x="1000" />

<glyph glyph-name="categories" unicode="&#xe841;" d="M225 635l-14 28h-86v-219h250v156h-132l-18 35z m-131 90h137c5 0 11-1 16-5 5-3 9-7 12-12l22-45h125c9 0 17-4 22-10 6-5 10-13 10-22v-218c0-9-4-17-10-23-5-5-13-9-22-9h-312c-8 0-16 4-22 9-6 6-9 14-9 23v281c0 8 3 16 9 22 6 6 14 9 22 9z m631-90l-14 28h-86v-219h250v156h-132l-18 35z m-131 90h137c6 0 11-1 16-5 5-3 9-7 12-12l22-45h125c9 0 17-4 22-10 6-5 10-13 10-22v-218c0-9-4-17-10-23-5-5-13-9-22-9h-312c-8 0-16 4-22 9-6 6-9 14-9 23v281c0 8 3 16 9 22 6 6 14 9 22 9z m-383-469l14-28 18-34h132v-156h-250v218h86z m20 63h-137c-8 0-16-3-22-9-6-6-9-14-9-22v-282c0-8 3-16 9-22 6-6 14-9 22-9h312c9 0 17 3 22 9 6 6 10 14 10 22v219c0 8-4 16-10 22-5 6-13 9-22 9h-125l-22 46c-3 5-7 9-12 12-5 3-11 5-16 5z m494-91l-14 28h-86v-218h250v156h-132l-18 34z m-131 91h137c6 0 11-2 16-5 5-3 9-7 12-12l22-46h125c9 0 17-3 22-9 6-6 10-14 10-22v-219c0-8-4-16-10-22-5-6-13-9-22-9h-312c-8 0-16 3-22 9-6 6-9 14-9 22v282c0 8 3 16 9 22 6 6 14 9 22 9z m-369 316l-14 28h-86v-219h250v156h-132l-18 35z m-131 90h137c5 0 11-1 16-5 5-3 9-7 12-12l22-45h125c9 0 17-4 22-10 6-5 10-13 10-22v-218c0-9-4-17-10-23-5-5-13-9-22-9h-312c-8 0-16 4-22 9-6 6-9 14-9 23v281c0 8 3 16 9 22 6 6 14 9 22 9z m631-90l-14 28h-86v-219h250v156h-132l-18 35z m-131 90h137c6 0 11-1 16-5 5-3 9-7 12-12l22-45h125c9 0 17-4 22-10 6-5 10-13 10-22v-218c0-9-4-17-10-23-5-5-13-9-22-9h-312c-8 0-16 4-22 9-6 6-9 14-9 23v281c0 8 3 16 9 22 6 6 14 9 22 9z m-383-469l14-28 18-34h132v-156h-250v218h86z m20 63h-137c-8 0-16-3-22-9-6-6-9-14-9-22v-282c0-8 3-16 9-22 6-6 14-9 22-9h312c9 0 17 3 22 9 6 6 10 14 10 22v219c0 8-4 16-10 22-5 6-13 9-22 9h-125l-22 46c-3 5-7 9-12 12-5 3-11 5-16 5z m494-91l-14 28h-86v-218h250v156h-132l-18 34z m-131 91h137c6 0 11-2 16-5 5-3 9-7 12-12l22-46h125c9 0 17-3 22-9 6-6 10-14 10-22v-219c0-8-4-16-10-22-5-6-13-9-22-9h-312c-8 0-16 3-22 9-6 6-9 14-9 22v282c0 8 3 16 9 22 6 6 14 9 22 9z" horiz-adv-x="1000" />

<glyph glyph-name="cd--archive" unicode="&#xe842;" d="M500-25c-74 0-147 22-208 63-62 41-110 100-138 169-29 68-36 143-22 216 15 73 50 140 103 192 52 53 119 88 192 103 73 14 148 7 217-21 68-29 127-77 168-139 41-61 63-134 63-208 0-99-39-195-110-265-70-70-165-110-265-110z m0 688c-62 0-122-19-174-53-51-34-91-83-115-140-23-57-30-120-17-181 12-61 41-116 85-160 44-44 99-73 160-85 61-13 124-6 181 17 57 24 106 64 140 115 34 52 53 112 53 174 0 83-33 162-92 221-59 59-138 92-221 92z m0-500c-37 0-73 11-104 31-31 21-55 50-69 84-14 35-18 72-11 109 7 36 25 69 51 96 27 26 60 44 96 51 37 7 75 3 109-11 34-14 63-38 84-69 21-31 32-67 32-104 0-50-20-97-55-133-36-35-83-54-133-54z m0 312c-25 0-49-7-69-21-21-14-37-33-46-56-10-23-12-48-8-72 5-25 17-47 35-64 17-18 39-30 64-35 24-4 49-2 72 8 23 9 42 25 56 46 14 20 21 44 21 69 0 33-13 65-37 88-23 24-55 37-88 37z m63-125c0-34-28-62-63-62-34 0-62 28-62 62 0 35 28 63 62 63 35 0 63-28 63-63z m-63-375c-74 0-147 22-208 63-62 41-110 100-138 169-29 68-36 143-22 216 15 73 50 140 103 192 52 53 119 88 192 103 73 14 148 7 217-21 68-29 127-77 168-139 41-61 63-134 63-208 0-99-39-195-110-265-70-70-165-110-265-110z m0 688c-62 0-122-19-174-53-51-34-91-83-115-140-23-57-30-120-17-181 12-61 41-116 85-160 44-44 99-73 160-85 61-13 124-6 181 17 57 24 106 64 140 115 34 52 53 112 53 174 0 83-33 162-92 221-59 59-138 92-221 92z m0-500c-37 0-73 11-104 31-31 21-55 50-69 84-14 35-18 72-11 109 7 36 25 69 51 96 27 26 60 44 96 51 37 7 75 3 109-11 34-14 63-38 84-69 21-31 32-67 32-104 0-50-20-97-55-133-36-35-83-54-133-54z m0 312c-25 0-49-7-69-21-21-14-37-33-46-56-10-23-12-48-8-72 5-25 17-47 35-64 17-18 39-30 64-35 24-4 49-2 72 8 23 9 42 25 56 46 14 20 21 44 21 69 0 33-13 65-37 88-23 24-55 37-88 37z m63-125c0-34-28-62-63-62-34 0-62 28-62 62 0 35 28 63 62 63 35 0 63-28 63-63z" horiz-adv-x="1000" />

<glyph glyph-name="center--circle" unicode="&#xe843;" d="M938 381h-65c-7 89-45 171-108 234-63 63-145 101-234 108v65h-62v-65c-88-7-171-45-234-108-62-63-101-145-108-234h-64v-62h64c7-88 46-171 108-234 63-62 146-101 234-108v-65h62v65c89 7 171 46 234 108 63 63 101 146 108 234h65v62z m-407-342v124h-62v-124c-72 7-139 39-190 90-51 51-83 118-90 190h124v62h-124c7 72 39 139 90 190 51 51 118 83 190 90v-123h62v123c72-7 139-39 190-90 51-51 83-118 90-190h-123v-62h123c-7-72-39-139-90-190-51-51-118-83-190-90z m407 342h-65c-7 89-45 171-108 234-63 63-145 101-234 108v65h-62v-65c-88-7-171-45-234-108-62-63-101-145-108-234h-64v-62h64c7-88 46-171 108-234 63-62 146-101 234-108v-65h62v65c89 7 171 46 234 108 63 63 101 146 108 234h65v62z m-407-342v124h-62v-124c-72 7-139 39-190 90-51 51-83 118-90 190h124v62h-124c7 72 39 139 90 190 51 51 118 83 190 90v-123h62v123c72-7 139-39 190-90 51-51 83-118 90-190h-123v-62h123c-7-72-39-139-90-190-51-51-118-83-190-90z" horiz-adv-x="1000" />

<glyph glyph-name="center-to-fit" unicode="&#xe844;" d="M250 788h-187v-188h62v125h125v63z m500 0h188v-188h-63v125h-125v63z m-687-876h187v63h-125v125h-62v-188z m687 0h188v188h-63v-125h-125v-63z m-500 188h500c17 0 33 7 44 18 12 12 19 28 19 45v375c0 16-7 32-19 44-11 11-27 18-44 18h-500c-17 0-32-7-44-18-12-12-18-28-18-44v-375c0-17 6-33 18-45 12-11 27-18 44-18z m0 63v375h500v-375h-500z m0 625h-187v-188h62v125h125v63z m500 0h188v-188h-63v125h-125v63z m-687-876h187v63h-125v125h-62v-188z m687 0h188v188h-63v-125h-125v-63z m-500 188h500c17 0 33 7 44 18 12 12 19 28 19 45v375c0 16-7 32-19 44-11 11-27 18-44 18h-500c-17 0-32-7-44-18-12-12-18-28-18-44v-375c0-17 6-33 18-45 12-11 27-18 44-18z m0 63v375h500v-375h-500z" horiz-adv-x="1000" />

<glyph glyph-name="certificate" unicode="&#xe845;" d="M125 38h375v-63h-375c-17 0-32 7-44 18-12 12-18 28-18 45v625c0 16 6 32 18 44 12 11 27 18 44 18h750c17 0 33-7 44-18 12-12 19-28 19-44v-313h-63v313h-750v-625z m375 562h-312v-62h312v62z m-312-125h312v-62h-312v62z m187-125h-187v-62h187v62z m375-31l60-116 128-18-94-85 24-125-118 70-118-70 24 125-93 85 131 18 56 116z m-625-281h375v-63h-375c-17 0-32 7-44 18-12 12-18 28-18 45v625c0 16 6 32 18 44 12 11 27 18 44 18h750c17 0 33-7 44-18 12-12 19-28 19-44v-313h-63v313h-750v-625z m375 562h-312v-62h312v62z m-312-125h312v-62h-312v62z m187-125h-187v-62h187v62z m375-31l60-116 128-18-94-85 24-125-118 70-118-70 24 125-93 85 131 18 56 116z" horiz-adv-x="1000" />

<glyph glyph-name="chart--column" unicode="&#xe846;" d="M844-25v688h-250v-688h-125v438h-250v-438h-94v813h-62v-813c0-17 6-33 18-44 12-12 27-19 44-19h813v63h-94z m-438 0h-125v375h125v-375z m375 0h-125v625h125v-625z m63 0v688h-250v-688h-125v438h-250v-438h-94v813h-62v-813c0-17 6-33 18-44 12-12 27-19 44-19h813v63h-94z m-438 0h-125v375h125v-375z m375 0h-125v625h125v-625z" horiz-adv-x="1000" />

<glyph glyph-name="chart--line--data" unicode="&#xe847;" d="M314 291c10-2 20-3 30-3 25 0 49 7 69 21l101-90c-8-15-13-32-14-49-1-17 2-34 8-50 6-18 17-35 30-48 14-13 31-24 49-30 18-6 37-7 57-5 19 3 37 10 53 21 15 11 29 25 38 42 9 17 15 35 16 55 1 19-3 38-10 56-8 17-19 33-34 45l79 159c16-3 32-3 47-1 16 3 31 9 44 18 23 14 40 34 51 59 10 24 12 51 6 77-6 25-20 48-40 65-21 18-45 28-72 30-26 2-52-4-75-18-22-13-40-34-50-58-10-25-13-52-7-77 7-26 21-49 41-66l-80-159c-8 2-17 3-26 3-25 0-49-8-70-22l-100 90c8 15 12 32 13 49 2 17-1 34-7 50-6 18-17 34-30 48-14 13-30 23-48 29-18 7-38 8-56 6-19-3-37-9-53-20-16-10-29-25-39-41-10-16-15-35-17-54-1-19 2-38 9-56 7-17 18-33 32-46l-134-252v719h-62v-813c0-17 6-33 18-44 12-12 27-19 44-19h813v63h-792l168 316z m499 309c12 0 24-4 34-10 11-7 19-17 23-29 5-11 6-24 4-36-3-12-9-23-17-32-9-8-20-14-32-17-12-2-25-1-36 4-12 5-22 13-28 23-7 10-11 22-11 35 0 16 7 32 18 44 12 11 28 18 45 18z m-125-437c0-13-4-25-11-35-7-10-17-18-28-23-11-5-24-6-36-4-12 3-23 9-32 17-9 9-15 20-17 32-3 12-1 25 3 36 5 12 13 22 23 29 11 6 23 10 35 10 17 0 33-7 44-18 12-12 19-28 19-44z m-344 312c12 0 24-4 35-10 10-7 18-17 23-29 4-11 6-24 3-36-2-12-8-23-17-32-9-8-20-14-32-17-12-2-25-1-36 4-12 5-21 13-28 23-7 10-11 22-11 35 0 16 7 32 19 44 11 11 27 18 44 18z m-30-184c10-2 20-3 30-3 25 0 49 7 69 21l101-90c-8-15-13-32-14-49-1-17 2-34 8-50 6-18 17-35 30-48 14-13 31-24 49-30 18-6 37-7 57-5 19 3 37 10 53 21 15 11 29 25 38 42 9 17 15 35 16 55 1 19-3 38-10 56-8 17-19 33-34 45l79 159c16-3 32-3 47-1 16 3 31 9 44 18 23 14 40 34 51 59 10 24 12 51 6 77-6 25-20 48-40 65-21 18-45 28-72 30-26 2-52-4-75-18-22-13-40-34-50-58-10-25-13-52-7-77 7-26 21-49 41-66l-80-159c-8 2-17 3-26 3-25 0-49-8-70-22l-100 90c8 15 12 32 13 49 2 17-1 34-7 50-6 18-17 34-30 48-14 13-30 23-48 29-18 7-38 8-56 6-19-3-37-9-53-20-16-10-29-25-39-41-10-16-15-35-17-54-1-19 2-38 9-56 7-17 18-33 32-46l-134-252v719h-62v-813c0-17 6-33 18-44 12-12 27-19 44-19h813v63h-792l168 316z m499 309c12 0 24-4 34-10 11-7 19-17 23-29 5-11 6-24 4-36-3-12-9-23-17-32-9-8-20-14-32-17-12-2-25-1-36 4-12 5-22 13-28 23-7 10-11 22-11 35 0 16 7 32 18 44 12 11 28 18 45 18z m-125-437c0-13-4-25-11-35-7-10-17-18-28-23-11-5-24-6-36-4-12 3-23 9-32 17-9 9-15 20-17 32-3 12-1 25 3 36 5 12 13 22 23 29 11 6 23 10 35 10 17 0 33-7 44-18 12-12 19-28 19-44z m-344 312c12 0 24-4 35-10 10-7 18-17 23-29 4-11 6-24 3-36-2-12-8-23-17-32-9-8-20-14-32-17-12-2-25-1-36 4-12 5-21 13-28 23-7 10-11 22-11 35 0 16 7 32 19 44 11 11 27 18 44 18z" horiz-adv-x="1000" />

<glyph glyph-name="chart--pie" unicode="&#xe848;" d="M500 725c-74 0-147-22-208-63-62-41-110-100-138-168-29-69-36-144-22-217 15-73 50-140 103-192 52-53 119-88 192-103 73-14 148-7 217 22 68 28 127 76 168 138 41 61 63 134 63 208 0 100-39 195-110 265-70 71-165 110-265 110z m313-344h-282v280c72-7 140-39 191-90 51-51 83-118 91-190z m-331-343c-79 3-154 37-209 94-56 56-87 132-89 211-2 79 27 156 80 215 53 59 126 96 205 103v-281c0-17 6-33 18-44 12-12 28-19 44-19h282c-9-80-48-154-109-206-62-52-142-79-222-73z m18 687c-74 0-147-22-208-63-62-41-110-100-138-168-29-69-36-144-22-217 15-73 50-140 103-192 52-53 119-88 192-103 73-14 148-7 217 22 68 28 127 76 168 138 41 61 63 134 63 208 0 100-39 195-110 265-70 71-165 110-265 110z m313-344h-282v280c72-7 140-39 191-90 51-51 83-118 91-190z m-331-343c-79 3-154 37-209 94-56 56-87 132-89 211-2 79 27 156 80 215 53 59 126 96 205 103v-281c0-17 6-33 18-44 12-12 28-19 44-19h282c-9-80-48-154-109-206-62-52-142-79-222-73z" horiz-adv-x="1000" />

<glyph glyph-name="chart--ring" unicode="&#xe849;" d="M500 788c-86 0-171-26-243-74-72-48-128-117-161-197-33-79-42-167-25-252 17-85 59-163 120-224 61-62 139-103 224-120 85-17 173-8 252 25 80 33 149 89 197 161 48 72 74 157 74 243-1 116-47 227-129 309-82 82-193 128-309 129z m373-407h-188c-5 32-19 61-38 86-20 25-46 44-75 56-29 12-61 17-93 13-31-3-62-15-87-33l-134 133c53 45 116 74 184 85 68 10 138 2 202-24 63-27 118-70 159-126 40-55 65-121 70-190l0 0z m-373-156c-25 0-49 7-69 21-21 14-37 33-46 56-10 23-12 48-8 72 5 25 17 47 35 64 17 18 39 30 64 35 24 4 49 2 72-7 23-10 42-26 56-47 14-20 21-44 21-69 0-33-13-65-37-88-23-24-55-37-88-37z m-375 125c0 89 32 174 89 242l133-133c-18-26-30-56-33-88-4-31 1-63 13-93 12-29 31-55 56-75 25-19 54-32 86-38v-189c-94 8-181 51-245 120-63 70-99 160-99 254z m406-373v188c39 7 74 25 101 53 28 27 46 62 53 101h188c-7-88-45-171-108-234-63-62-145-101-234-108z m-31 811c-86 0-171-26-243-74-72-48-128-117-161-197-33-79-42-167-25-252 17-85 59-163 120-224 61-62 139-103 224-120 85-17 173-8 252 25 80 33 149 89 197 161 48 72 74 157 74 243-1 116-47 227-129 309-82 82-193 128-309 129z m373-407h-188c-5 32-19 61-38 86-20 25-46 44-75 56-29 12-61 17-93 13-31-3-62-15-87-33l-134 133c53 45 116 74 184 85 68 10 138 2 202-24 63-27 118-70 159-126 40-55 65-121 70-190l0 0z m-373-156c-25 0-49 7-69 21-21 14-37 33-46 56-10 23-12 48-8 72 5 25 17 47 35 64 17 18 39 30 64 35 24 4 49 2 72-7 23-10 42-26 56-47 14-20 21-44 21-69 0-33-13-65-37-88-23-24-55-37-88-37z m-375 125c0 89 32 174 89 242l133-133c-18-26-30-56-33-88-4-31 1-63 13-93 12-29 31-55 56-75 25-19 54-32 86-38v-189c-94 8-181 51-245 120-63 70-99 160-99 254z m406-373v188c39 7 74 25 101 53 28 27 46 62 53 101h188c-7-88-45-171-108-234-63-62-145-101-234-108z" horiz-adv-x="1000" />

<glyph glyph-name="chart--stacked" unicode="&#xe84a;" d="M875-25v688h-250v-688h-125v438h-250v-438h-125v813h-62v-813c0-17 6-33 18-44 12-12 27-19 44-19h813v63h-63z m-187 625h125v-312h-125v312z m-375-250h125v-187h-125v187z m562-375v688h-250v-688h-125v438h-250v-438h-125v813h-62v-813c0-17 6-33 18-44 12-12 27-19 44-19h813v63h-63z m-187 625h125v-312h-125v312z m-375-250h125v-187h-125v187z" horiz-adv-x="1000" />

<glyph glyph-name="chart--treemap" unicode="&#xe84b;" d="M875 788h-750c-17 0-32-7-44-19-12-11-18-27-18-44v-750c0-17 6-33 18-44 12-12 27-19 44-19h750c17 0 33 7 44 19 12 11 19 27 19 44v750c0 17-7 33-19 44-11 12-27 19-44 19z m0-375h-156v312h156v-312z m-375 312h156v-312h-156v312z m-62 0v-500h-313v500h313z m-313-562h313v-188h-313v188z m375-188v375h375v-375h-375z m375 813h-750c-17 0-32-7-44-19-12-11-18-27-18-44v-750c0-17 6-33 18-44 12-12 27-19 44-19h750c17 0 33 7 44 19 12 11 19 27 19 44v750c0 17-7 33-19 44-11 12-27 19-44 19z m0-375h-156v312h156v-312z m-375 312h156v-312h-156v312z m-62 0v-500h-313v500h313z m-313-562h313v-188h-313v188z m375-188v375h375v-375h-375z" horiz-adv-x="1000" />

<glyph glyph-name="chart--venn-diagram" unicode="&#xe84c;" d="M625 663c-43 0-86-9-125-27-39 18-82 27-125 27-83 0-162-33-221-92-59-59-91-138-91-221 0-83 32-162 91-221 59-59 138-91 221-91 43 0 86 8 125 26 39-18 82-26 125-26 83 0 162 32 221 91 59 59 92 138 92 221 0 83-33 162-92 221-59 59-138 92-221 92z m-250-563c-66 0-130 26-177 73-47 47-73 111-73 177 0 66 26 130 73 177 47 47 111 73 177 73 19 0 37-2 55-6-36-29-66-67-86-109-20-42-31-88-31-135 0-47 11-93 31-135 20-42 50-79 86-109-18-4-36-6-55-6z m250 250c0-44-12-87-34-125-21-38-53-69-91-91-38 22-69 53-91 91-22 38-34 81-34 125 0 44 12 87 34 125 22 38 53 69 91 91 38-22 70-53 91-91 22-38 34-81 34-125z m0-250c-18 0-37 2-55 6 37 30 66 67 86 109 20 42 31 88 31 135 0 47-11 93-31 135-20 42-49 80-86 109 18 4 37 6 55 6 66 0 130-26 177-73 47-47 73-111 73-177 0-66-26-130-73-177-47-47-111-73-177-73z m0 563c-43 0-86-9-125-27-39 18-82 27-125 27-83 0-162-33-221-92-59-59-91-138-91-221 0-83 32-162 91-221 59-59 138-91 221-91 43 0 86 8 125 26 39-18 82-26 125-26 83 0 162 32 221 91 59 59 92 138 92 221 0 83-33 162-92 221-59 59-138 92-221 92z m-250-563c-66 0-130 26-177 73-47 47-73 111-73 177 0 66 26 130 73 177 47 47 111 73 177 73 19 0 37-2 55-6-36-29-66-67-86-109-20-42-31-88-31-135 0-47 11-93 31-135 20-42 50-79 86-109-18-4-36-6-55-6z m250 250c0-44-12-87-34-125-21-38-53-69-91-91-38 22-69 53-91 91-22 38-34 81-34 125 0 44 12 87 34 125 22 38 53 69 91 91 38-22 70-53 91-91 22-38 34-81 34-125z m0-250c-18 0-37 2-55 6 37 30 66 67 86 109 20 42 31 88 31 135 0 47-11 93-31 135-20 42-49 80-86 109 18 4 37 6 55 6 66 0 130-26 177-73 47-47 73-111 73-177 0-66-26-130-73-177-47-47-111-73-177-73z" horiz-adv-x="1000" />

<glyph glyph-name="chat" unicode="&#xe84d;" d="M554-88l-54 32 125 219h188c16 0 32 6 44 18 11 12 18 27 18 44v375c0 17-7 33-18 44-12 12-28 19-44 19h-625c-17 0-33-7-45-19-11-11-18-27-18-44v-375c0-17 7-32 18-44 12-12 28-18 45-18h281v-63h-281c-34 0-65 13-89 37-23 23-36 55-36 88v375c0 33 13 65 36 88 24 24 55 37 89 37h625c33 0 64-13 88-37 23-23 37-55 37-88v-375c0-33-14-65-37-88-24-24-55-37-88-37h-152l-107-188z m196 626h-500v-63h500v63z m-500-188h313v-62h-313v62z m304-438l-54 32 125 219h188c16 0 32 6 44 18 11 12 18 27 18 44v375c0 17-7 33-18 44-12 12-28 19-44 19h-625c-17 0-33-7-45-19-11-11-18-27-18-44v-375c0-17 7-32 18-44 12-12 28-18 45-18h281v-63h-281c-34 0-65 13-89 37-23 23-36 55-36 88v375c0 33 13 65 36 88 24 24 55 37 89 37h625c33 0 64-13 88-37 23-23 37-55 37-88v-375c0-33-14-65-37-88-24-24-55-37-88-37h-152l-107-188z m196 626h-500v-63h500v63z m-500-188h313v-62h-313v62z" horiz-adv-x="1000" />

<glyph glyph-name="chat-bot" unicode="&#xe84e;" d="M500-56l54-32 107 188h152c16 0 32 3 47 10 16 6 29 15 41 27 12 11 21 25 27 40 6 15 10 32 10 48v438c0 16-4 32-10 47-6 16-15 29-27 41-12 12-25 21-41 27-15 6-31 10-47 10h-625c-17 0-33-4-48-10-15-6-29-15-41-27-11-12-21-25-27-41-6-15-9-31-9-47v-438c0-16 3-33 9-48 6-15 16-29 27-40 12-12 26-21 41-27 15-7 31-10 48-10h281v63h-281c-9 0-17 1-24 4-8 3-15 8-21 14-5 6-10 13-13 20-3 8-5 16-5 24v438c0 8 2 16 5 23 3 8 8 15 13 21 6 6 13 10 21 13 7 3 15 5 24 5h625c8 0 16-2 23-5 8-3 15-7 21-13 6-6 10-13 13-21 3-7 5-15 5-23v-438c0-8-2-16-5-24-3-7-7-14-13-20-6-6-13-11-21-14-7-3-15-4-23-4h-188l-125-219z m-125 656c-12 0-24-4-35-10-10-7-18-17-23-29-4-11-6-24-3-36 2-12 8-23 17-32 9-8 20-14 32-17 12-2 25-1 36 4 11 5 21 13 28 23 7 10 11 22 11 35 0 8-2 16-5 24-3 7-8 14-14 20-5 6-12 10-20 13-8 4-16 5-24 5z m215-10c11 6 23 10 35 10 8 0 16-1 24-5 8-3 15-7 20-13 6-6 11-13 14-20 3-8 5-16 5-24 0-13-4-25-11-35-7-10-17-18-28-23-11-5-24-6-36-4-12 3-23 9-32 17-9 9-15 20-17 32-3 12-1 25 3 36 5 12 13 22 23 29z m-193-308c31-17 67-26 103-26 36 0 72 9 103 26 32 17 59 42 79 72l-52 35c-14-22-33-39-56-52-23-12-48-18-74-18-26 0-51 6-74 18-23 13-42 30-56 52l-52-35c20-30 47-55 79-72z m103-338l54-32 107 188h152c16 0 32 3 47 10 16 6 29 15 41 27 12 11 21 25 27 40 6 15 10 32 10 48v438c0 16-4 32-10 47-6 16-15 29-27 41-12 12-25 21-41 27-15 6-31 10-47 10h-625c-17 0-33-4-48-10-15-6-29-15-41-27-11-12-21-25-27-41-6-15-9-31-9-47v-438c0-16 3-33 9-48 6-15 16-29 27-40 12-12 26-21 41-27 15-7 31-10 48-10h281v63h-281c-9 0-17 1-24 4-8 3-15 8-21 14-5 6-10 13-13 20-3 8-5 16-5 24v438c0 8 2 16 5 23 3 8 8 15 13 21 6 6 13 10 21 13 7 3 15 5 24 5h625c8 0 16-2 23-5 8-3 15-7 21-13 6-6 10-13 13-21 3-7 5-15 5-23v-438c0-8-2-16-5-24-3-7-7-14-13-20-6-6-13-11-21-14-7-3-15-4-23-4h-188l-125-219z m-125 656c-12 0-24-4-35-10-10-7-18-17-23-29-4-11-6-24-3-36 2-12 8-23 17-32 9-8 20-14 32-17 12-2 25-1 36 4 11 5 21 13 28 23 7 10 11 22 11 35 0 8-2 16-5 24-3 7-8 14-14 20-5 6-12 10-20 13-8 4-16 5-24 5z m215-10c11 6 23 10 35 10 8 0 16-1 24-5 8-3 15-7 20-13 6-6 11-13 14-20 3-8 5-16 5-24 0-13-4-25-11-35-7-10-17-18-28-23-11-5-24-6-36-4-12 3-23 9-32 17-9 9-15 20-17 32-3 12-1 25 3 36 5 12 13 22 23 29z m-193-308c31-17 67-26 103-26 36 0 72 9 103 26 32 17 59 42 79 72l-52 35c-14-22-33-39-56-52-23-12-48-18-74-18-26 0-51 6-74 18-23 13-42 30-56 52l-52-35c20-30 47-55 79-72z" horiz-adv-x="1000" />

<glyph glyph-name="chat--launch" unicode="&#xe84f;" d="M688 431l187 187v-143h63v250h-250v-62h143l-188-188 45-44z m-313-268h-250v437h375v63h-375c-17 0-32-7-44-19-12-11-18-27-18-44v-437c0-17 6-33 18-45 12-11 27-18 44-18h250v63z m-3-213l50-38 141 188h187c17 0 33 7 44 18 12 12 19 28 19 45v187h-63v-187h-219l-159-213z m316 481l187 187v-143h63v250h-250v-62h143l-188-188 45-44z m-313-268h-250v437h375v63h-375c-17 0-32-7-44-19-12-11-18-27-18-44v-437c0-17 6-33 18-45 12-11 27-18 44-18h250v63z m-3-213l50-38 141 188h187c17 0 33 7 44 18 12 12 19 28 19 45v187h-63v-187h-219l-159-213z" horiz-adv-x="1000" />

<glyph glyph-name="checkbox" unicode="&#xe850;" d="M813 725h-625c-17 0-33-7-45-18-11-12-18-28-18-44v-625c0-17 7-33 18-45 12-11 28-18 45-18h625c16 0 32 7 44 18 11 12 18 28 18 45v625c0 16-7 32-18 44-12 11-28 18-44 18z m-625-687v625h625v-625h-625z m625 687h-625c-17 0-33-7-45-18-11-12-18-28-18-44v-625c0-17 7-33 18-45 12-11 28-18 45-18h625c16 0 32 7 44 18 11 12 18 28 18 45v625c0 16-7 32-18 44-12 11-28 18-44 18z m-625-687v625h625v-625h-625z" horiz-adv-x="1000" />

<glyph glyph-name="checkbox--checked" unicode="&#xe851;" d="M188 725h625c16 0 32-7 44-18 11-12 18-28 18-44v-625c0-17-7-33-18-45-12-11-28-18-44-18h-625c-17 0-33 7-45 18-11 12-18 28-18 45v625c0 16 7 32 18 44 12 11 28 18 45 18z m0-62v-625h625v625h-625z m93-330l157-155 281 279-50 49-231-229-107 104-50-48z m-93 392h625c16 0 32-7 44-18 11-12 18-28 18-44v-625c0-17-7-33-18-45-12-11-28-18-44-18h-625c-17 0-33 7-45 18-11 12-18 28-18 45v625c0 16 7 32 18 44 12 11 28 18 45 18z m0-62v-625h625v625h-625z m93-330l157-155 281 279-50 49-231-229-107 104-50-48z" horiz-adv-x="1000" />

<glyph glyph-name="checkmark" unicode="&#xe852;" d="M406 100l-281 281 44 44 237-237 425 425 44-44-469-469z m0 0l-281 281 44 44 237-237 425 425 44-44-469-469z" horiz-adv-x="1000" />

<glyph glyph-name="checkmark--outline" unicode="&#xe853;" d="M257 714c72 48 157 74 243 74 116 0 227-47 309-129 82-82 129-193 129-309 0-86-26-171-74-243-48-72-117-128-197-161-79-33-167-42-252-25-85 17-163 58-224 120-61 61-103 139-120 224-17 85-8 173 25 252 33 80 89 149 161 197z m35-676c61-41 134-63 208-63 100 0 195 40 265 110 71 70 110 166 110 265 0 74-22 147-63 208-41 62-100 110-168 139-69 28-144 35-217 21-73-15-140-50-192-103-53-52-88-119-103-192-14-73-7-148 22-216 28-69 76-128 138-169z m-11 299l157-156 281 281-44 44-237-237-113 112-44-44z m-24 377c72 48 157 74 243 74 116 0 227-47 309-129 82-82 129-193 129-309 0-86-26-171-74-243-48-72-117-128-197-161-79-33-167-42-252-25-85 17-163 58-224 120-61 61-103 139-120 224-17 85-8 173 25 252 33 80 89 149 161 197z m35-676c61-41 134-63 208-63 100 0 195 40 265 110 71 70 110 166 110 265 0 74-22 147-63 208-41 62-100 110-168 139-69 28-144 35-217 21-73-15-140-50-192-103-53-52-88-119-103-192-14-73-7-148 22-216 28-69 76-128 138-169z m-11 299l157-156 281 281-44 44-237-237-113 112-44-44z" horiz-adv-x="1000" />

<glyph glyph-name="chevron--down" unicode="&#xe854;" d="M500 163l-312 312 43 44 269-269 269 269 44-44-313-312z m0 0l-312 312 43 44 269-269 269 269 44-44-313-312z" horiz-adv-x="1000" />

<glyph glyph-name="chevron--left" unicode="&#xe855;" d="M313 350l312 313 44-44-269-269 269-269-44-43-312 312z m0 0l312 313 44-44-269-269 269-269-44-43-312 312z" horiz-adv-x="1000" />

<glyph glyph-name="chevron--mini" unicode="&#xe856;" d="M969 256v-375h-375l375 375z m0 0v-375h-375l375 375z" horiz-adv-x="1000" />

<glyph glyph-name="chevron--right" unicode="&#xe857;" d="M688 350l-313-312-44 43 269 269-269 269 44 44 313-313z m0 0l-313-312-44 43 269 269-269 269 44 44 313-313z" horiz-adv-x="1000" />

<glyph glyph-name="chevron--sort" unicode="&#xe858;" d="M719 506l-219 219-219-219 44-44 175 175 175-175 44 44z m-438-312l219-219 219 219-44 44-175-175-175 175-44-44z m438 312l-219 219-219-219 44-44 175 175 175-175 44 44z m-438-312l219-219 219 219-44 44-175-175-175 175-44-44z" horiz-adv-x="1000" />

<glyph glyph-name="chevron--sort--down" unicode="&#xe859;" d="M500-25l-219 219 44 44 175-175 175 175 44-44-219-219z m0 0l-219 219 44 44 175-175 175 175 44-44-219-219z" horiz-adv-x="1000" />

<glyph glyph-name="chevron--sort--up" unicode="&#xe85a;" d="M500 725l219-219-44-43-175 175-175-175-44 43 219 219z m0 0l219-219-44-43-175 175-175-175-44 43 219 219z" horiz-adv-x="1000" />

<glyph glyph-name="chevron--up" unicode="&#xe85b;" d="M500 538l313-313-44-44-269 269-269-269-43 44 312 313z m0 0l313-313-44-44-269 269-269-269-43 44 312 313z" horiz-adv-x="1000" />

<glyph glyph-name="circle-dash" unicode="&#xe85c;" d="M366 766l18-60c38 13 77 19 116 19v63c-46 0-91-7-134-22z m-219-160c26 37 58 70 94 97l37-50c-31-24-58-52-81-84l-50 37z m-63-122l60-18c-13-38-19-77-19-116h-62c-1 46 6 91 21 134z m0-271c15-44 36-85 63-122l50 37c-23 32-41 67-53 103l-60-18z m282-279c-44 15-85 36-122 63l37 50c32-23 67-41 103-53l-18-60z m487 160c-27-37-60-70-97-97l-37 50c32 23 61 52 84 84l50-37z m3 140l60-18c13 43 21 88 22 134h-63c0-39-6-78-19-116z m-6 375c27-37 48-78 63-121l-60-19c-12 37-30 71-53 103l50 37z m-97 97c-37 27-78 48-122 63l-18-60c36-12 71-30 103-53l37 50z m-137-712l18-60c-44-12-89-19-134-22v63c39 0 78 6 116 19z m-250 772l18-60c38 13 77 19 116 19v63c-46 0-91-7-134-22z m-219-160c26 37 58 70 94 97l37-50c-31-24-58-52-81-84l-50 37z m-63-122l60-18c-13-38-19-77-19-116h-62c-1 46 6 91 21 134z m0-271c15-44 36-85 63-122l50 37c-23 32-41 67-53 103l-60-18z m282-279c-44 15-85 36-122 63l37 50c32-23 67-41 103-53l-18-60z m487 160c-27-37-60-70-97-97l-37 50c32 23 61 52 84 84l50-37z m3 140l60-18c13 43 21 88 22 134h-63c0-39-6-78-19-116z m-6 375c27-37 48-78 63-121l-60-19c-12 37-30 71-53 103l50 37z m-97 97c-37 27-78 48-122 63l-18-60c36-12 71-30 103-53l37 50z m-137-712l18-60c-44-12-89-19-134-22v63c39 0 78 6 116 19z" horiz-adv-x="1000" />

<glyph glyph-name="circle-measurement" unicode="&#xe85d;" d="M257-14c72-48 157-74 243-74 116 0 227 47 309 129 82 82 129 193 129 309 0 87-26 171-74 243-48 72-117 128-197 161-79 33-167 42-252 25-85-17-163-58-224-120-61-61-103-139-120-224-17-84-8-172 25-252 33-80 89-149 161-197z m35 676c61 41 134 63 208 63 100 0 195-39 265-110 71-70 110-165 110-265 0-74-22-147-63-208-41-62-100-110-168-138-69-29-144-36-217-22-73 15-140 50-192 103-53 52-88 119-103 192-14 73-7 148 22 217 28 68 76 127 138 168z m364-312v112l-268-268h112v-63h-219v219h63v-112l268 268h-112v63h219v-219h-63z m-399-364c72-48 157-74 243-74 116 0 227 47 309 129 82 82 129 193 129 309 0 87-26 171-74 243-48 72-117 128-197 161-79 33-167 42-252 25-85-17-163-58-224-120-61-61-103-139-120-224-17-84-8-172 25-252 33-80 89-149 161-197z m35 676c61 41 134 63 208 63 100 0 195-39 265-110 71-70 110-165 110-265 0-74-22-147-63-208-41-62-100-110-168-138-69-29-144-36-217-22-73 15-140 50-192 103-53 52-88 119-103 192-14 73-7 148 22 217 28 68 76 127 138 168z m364-312v112l-268-268h112v-63h-219v219h63v-112l268 268h-112v63h219v-219h-63z" horiz-adv-x="1000" />

<glyph glyph-name="clean" unicode="&#xe85e;" d="M511 300c13-23 20-49 20-75 0-2 2-173 113-256 5-4 9-10 11-16 2-6 2-13 0-19-2-6-6-12-12-16-5-3-11-6-18-6h-468c-8 0-16 4-22 9-6 6-9 13-10 21 0 12-9 276 108 388 21 21 47 37 76 45 28 8 59 9 88 2l236 411 55-32-232-401c23-13 42-32 55-55z m-71-9c-18 18-42 28-67 28-16 2-32 0-47-5-15-4-29-12-41-22l184-82c0 9 0 14 0 15-1 25-11 49-29 66z m-2-222c4-36 20-69 45-94h67c-35 48-59 104-71 163l-235 104c-47-83-55-210-56-267h83c-12 41-19 83-21 125h63c2-42 10-84 23-125h69c-17 28-28 61-30 94h63z m375 156h-188v63h188v-63z m125-250h-188v63h188v-63z m-250 125h187v63h-187v-63z m-177 200c13-23 20-49 20-75 0-2 2-173 113-256 5-4 9-10 11-16 2-6 2-13 0-19-2-6-6-12-12-16-5-3-11-6-18-6h-468c-8 0-16 4-22 9-6 6-9 13-10 21 0 12-9 276 108 388 21 21 47 37 76 45 28 8 59 9 88 2l236 411 55-32-232-401c23-13 42-32 55-55z m-71-9c-18 18-42 28-67 28-16 2-32 0-47-5-15-4-29-12-41-22l184-82c0 9 0 14 0 15-1 25-11 49-29 66z m-2-222c4-36 20-69 45-94h67c-35 48-59 104-71 163l-235 104c-47-83-55-210-56-267h83c-12 41-19 83-21 125h63c2-42 10-84 23-125h69c-17 28-28 61-30 94h63z m375 156h-188v63h188v-63z m125-250h-188v63h188v-63z m-250 125h187v63h-187v-63z" horiz-adv-x="1000" />

<glyph glyph-name="close" unicode="&#xe85f;" d="M750 556l-44 44-206-206-206 206-44-44 206-206-206-206 44-44 206 206 206-206 44 44-206 206 206 206z m0 0l-44 44-206-206-206 206-44-44 206-206-206-206 44-44 206 206 206-206 44 44-206 206 206 206z" horiz-adv-x="1000" />

<glyph glyph-name="close--outline" unicode="&#xe860;" d="M63 350c0 244 193 438 437 438 244 0 438-194 438-438 0-244-194-438-438-438-244 0-437 194-437 438z m62 0c0-206 169-375 375-375 206 0 375 169 375 375 0 206-169 375-375 375-206 0-375-169-375-375z m375-50l169-169 50 50-169 169 169 169-50 50-169-169-169 169-50-50 169-169-169-169 50-50 169 169z m-437 50c0 244 193 438 437 438 244 0 438-194 438-438 0-244-194-438-438-438-244 0-437 194-437 438z m62 0c0-206 169-375 375-375 206 0 375 169 375 375 0 206-169 375-375 375-206 0-375-169-375-375z m375-50l169-169 50 50-169 169 169 169-50 50-169-169-169 169-50-50 169-169-169-169 50-50 169 169z" horiz-adv-x="1000" />

<glyph glyph-name="cloud--download" unicode="&#xe861;" d="M719 163h15c51 0 99 19 136 52 37 34 60 80 65 130 5 50-8 100-38 141-29 40-73 68-122 78-13 63-48 120-98 160-50 41-113 63-177 63-64 0-127-22-177-63-50-40-84-97-98-160-49-10-92-38-122-78-30-41-43-91-38-141 5-50 28-96 65-130 37-33 86-52 136-52h15v62h-15c-38-1-74 12-101 37-28 26-44 61-46 98-1 37 12 74 38 101 25 28 60 44 97 45h27l1 26c7 53 33 101 73 136 39 35 91 54 144 54 53 0 104-19 144-54 40-35 66-83 73-136l3-26h27c37-1 72-17 97-45 26-27 39-64 38-101-2-37-18-72-45-98-28-25-64-38-102-37h-15v-62z m-188 250v-381l81 81 44-44-156-157-156 157 44 44 81-81v381h62z m188-250h15c51 0 99 19 136 52 37 34 60 80 65 130 5 50-8 100-38 141-29 40-73 68-122 78-13 63-48 120-98 160-50 41-113 63-177 63-64 0-127-22-177-63-50-40-84-97-98-160-49-10-92-38-122-78-30-41-43-91-38-141 5-50 28-96 65-130 37-33 86-52 136-52h15v62h-15c-38-1-74 12-101 37-28 26-44 61-46 98-1 37 12 74 38 101 25 28 60 44 97 45h27l1 26c7 53 33 101 73 136 39 35 91 54 144 54 53 0 104-19 144-54 40-35 66-83 73-136l3-26h27c37-1 72-17 97-45 26-27 39-64 38-101-2-37-18-72-45-98-28-25-64-38-102-37h-15v-62z m-188 250v-381l81 81 44-44-156-157-156 157 44 44 81-81v381h62z" horiz-adv-x="1000" />

<glyph glyph-name="cloud--lightning" unicode="&#xe862;" d="M363-85c-7 3-12 7-15 13-4 7-5 14-4 20l57 371h-151c-5 0-9 1-14 3-4 2-8 5-11 8-3 4-5 8-6 13-1 5-1 10 0 14l94 406c1 7 5 14 11 18 6 4 13 7 20 7h312c5 0 10-1 14-3 4-2 8-5 11-9 3-4 5-8 6-13 1-4 1-9 0-14l-54-243h148c6 0 12-1 17-4 5-4 9-8 11-13 3-5 4-11 3-16-1-6-3-11-6-15l-406-532c-3-4-7-7-11-10-4-2-9-3-14-4-4 1-8 1-12 3z m192 529l62 281h-248l-80-344h185l-50-321 295 384h-164z m-192-529c-7 3-12 7-15 13-4 7-5 14-4 20l57 371h-151c-5 0-9 1-14 3-4 2-8 5-11 8-3 4-5 8-6 13-1 5-1 10 0 14l94 406c1 7 5 14 11 18 6 4 13 7 20 7h312c5 0 10-1 14-3 4-2 8-5 11-9 3-4 5-8 6-13 1-4 1-9 0-14l-54-243h148c6 0 12-1 17-4 5-4 9-8 11-13 3-5 4-11 3-16-1-6-3-11-6-15l-406-532c-3-4-7-7-11-10-4-2-9-3-14-4-4 1-8 1-12 3z m192 529l62 281h-248l-80-344h185l-50-321 295 384h-164z" horiz-adv-x="1000" />

<glyph glyph-name="cloud-satellite" unicode="&#xe863;" d="M484-115c5-2 11-4 16-4 6 0 11 2 16 4l375 219c5 3 8 7 11 12 3 4 4 10 4 15v250h-62v-232l-344-200-344 200v402l344 200 359-209 32 54-375 219c-5 2-10 4-16 4-5 0-11-2-16-4l-375-219c-4-3-8-7-11-12-3-4-4-10-4-15v-438c0-5 1-11 4-15 3-5 7-9 11-12l375-219z m235 528c34 0 62 28 62 62 0 35-28 63-62 63-35 0-63-28-63-63 0-34 28-62 63-62z m-288-167c20-14 44-21 69-21 33 0 65 13 88 37 24 23 37 55 37 88 0 25-7 49-21 69-14 21-33 37-56 47-23 9-48 11-72 7-25-5-47-17-64-35-18-17-30-39-35-64-4-24-2-49 8-72 9-23 25-42 46-56z m34 156c11 7 23 11 35 11 17-1 32-7 44-19 12-12 18-27 19-44 0-12-4-24-11-35-7-10-17-18-28-23-11-4-24-6-36-3-12 2-23 8-32 17-9 9-15 20-17 32-3 12-1 25 3 36 5 11 13 21 23 28z m-121-177c0-34-28-62-63-62-34 0-62 28-62 62 0 35 28 63 62 63 35 0 63-28 63-63z m140-340c5-2 11-4 16-4 6 0 11 2 16 4l375 219c5 3 8 7 11 12 3 4 4 10 4 15v250h-62v-232l-344-200-344 200v402l344 200 359-209 32 54-375 219c-5 2-10 4-16 4-5 0-11-2-16-4l-375-219c-4-3-8-7-11-12-3-4-4-10-4-15v-438c0-5 1-11 4-15 3-5 7-9 11-12l375-219z m235 528c34 0 62 28 62 62 0 35-28 63-62 63-35 0-63-28-63-63 0-34 28-62 63-62z m-288-167c20-14 44-21 69-21 33 0 65 13 88 37 24 23 37 55 37 88 0 25-7 49-21 69-14 21-33 37-56 47-23 9-48 11-72 7-25-5-47-17-64-35-18-17-30-39-35-64-4-24-2-49 8-72 9-23 25-42 46-56z m34 156c11 7 23 11 35 11 17-1 32-7 44-19 12-12 18-27 19-44 0-12-4-24-11-35-7-10-17-18-28-23-11-4-24-6-36-3-12 2-23 8-32 17-9 9-15 20-17 32-3 12-1 25 3 36 5 11 13 21 23 28z m-121-177c0-34-28-62-63-62-34 0-62 28-62 62 0 35 28 63 62 63 35 0 63-28 63-63z" horiz-adv-x="1000" />

<glyph glyph-name="cloud--upload" unicode="&#xe864;" d="M719 163h15c51 0 99 19 136 52 37 34 60 80 65 130 5 50-8 100-38 141-29 40-73 68-122 78-13 63-48 120-98 160-50 41-113 63-177 63-64 0-127-22-177-63-50-40-84-97-98-160-49-10-92-38-122-78-30-41-43-91-38-141 5-50 28-96 65-130 37-33 86-52 136-52h15v62h-15c-38-1-74 12-101 37-28 26-44 61-46 98-1 37 12 74 38 101 25 28 60 44 97 45h27l1 26c7 53 33 101 73 136 39 35 91 54 144 54 53 0 104-19 144-54 40-35 66-83 73-136l3-26h27c37-1 72-17 97-45 26-27 39-64 38-101-2-37-18-72-45-98-28-25-64-38-102-37h-15v-62z m-331 80l-44 45 156 156 156-156-44-45-81 81v-380h-62v380l-81-81z m331-80h15c51 0 99 19 136 52 37 34 60 80 65 130 5 50-8 100-38 141-29 40-73 68-122 78-13 63-48 120-98 160-50 41-113 63-177 63-64 0-127-22-177-63-50-40-84-97-98-160-49-10-92-38-122-78-30-41-43-91-38-141 5-50 28-96 65-130 37-33 86-52 136-52h15v62h-15c-38-1-74 12-101 37-28 26-44 61-46 98-1 37 12 74 38 101 25 28 60 44 97 45h27l1 26c7 53 33 101 73 136 39 35 91 54 144 54 53 0 104-19 144-54 40-35 66-83 73-136l3-26h27c37-1 72-17 97-45 26-27 39-64 38-101-2-37-18-72-45-98-28-25-64-38-102-37h-15v-62z m-331 80l-44 45 156 156 156-156-44-45-81 81v-380h-62v380l-81-81z" horiz-adv-x="1000" />

<glyph glyph-name="cobb-angle" unicode="&#xe865;" d="M656 571l-242 65v0c-16 5-30 15-38 29-8 15-11 32-7 48l17 60c4 16 14 29 29 38 14 8 31 10 47 6l244-65c16-4 30-15 38-29 8-14 10-31 6-47l-17-61c-4-13-12-25-23-33-11-9-24-13-38-13-5 0-10 1-16 2z m32 121l-243 64-15-60 241-65 17 61z m-63-373v62c0 17-7 33-18 45-12 11-28 18-44 18h-250c-17 0-33-7-45-18-11-12-18-28-18-45v-62c0-17 7-33 18-44 12-12 28-19 45-19h250c16 0 32 7 44 19 11 11 18 27 18 44z m-312 62h250v-62h-250v62z m419-296c-4 16-15 29-29 38-14 8-31 10-47 6l-241-64c-16-4-30-15-38-29-9-14-11-31-7-48l17-60c3-13 11-25 21-33 11-9 24-14 38-14 5 0 11 1 16 2l242 65c16 4 29 15 38 29 8 15 10 32 6 48l-16 60z m-286-141l-16 60 241 65 17-60-242-65z m54 250h-62v-63h62v63z m-62 375h62v-63h-62v63z m218 2l-242 65v0c-16 5-30 15-38 29-8 15-11 32-7 48l17 60c4 16 14 29 29 38 14 8 31 10 47 6l244-65c16-4 30-15 38-29 8-14 10-31 6-47l-17-61c-4-13-12-25-23-33-11-9-24-13-38-13-5 0-10 1-16 2z m32 121l-243 64-15-60 241-65 17 61z m-63-373v62c0 17-7 33-18 45-12 11-28 18-44 18h-250c-17 0-33-7-45-18-11-12-18-28-18-45v-62c0-17 7-33 18-44 12-12 28-19 45-19h250c16 0 32 7 44 19 11 11 18 27 18 44z m-312 62h250v-62h-250v62z m419-296c-4 16-15 29-29 38-14 8-31 10-47 6l-241-64c-16-4-30-15-38-29-9-14-11-31-7-48l17-60c3-13 11-25 21-33 11-9 24-14 38-14 5 0 11 1 16 2l242 65c16 4 29 15 38 29 8 15 10 32 6 48l-16 60z m-286-141l-16 60 241 65 17-60-242-65z m54 250h-62v-63h62v63z m-62 375h62v-63h-62v63z" horiz-adv-x="1000" />

<glyph glyph-name="code" unicode="&#xe866;" d="M388 54l163 609 61-17-164-608-60 16z m-357 296l219 219 44-44-174-175 174-175-44-44-219 219z m938 0l-219-219-44 44 174 175-174 175 44 44 219-219z m-581-296l163 609 61-17-164-608-60 16z m-357 296l219 219 44-44-174-175 174-175-44-44-219 219z m938 0l-219-219-44 44 174 175-174 175 44 44 219-219z" horiz-adv-x="1000" />

<glyph glyph-name="collaborate" unicode="&#xe867;" d="M319 559c-20-14-44-21-69-21-33 0-65 13-88 36-24 24-37 55-37 89 0 24 7 48 21 69 14 21 33 37 56 46 23 9 48 12 72 7 25-5 47-17 64-34 18-18 30-40 35-64 4-24 2-49-7-72-10-23-26-43-47-56z m-34 156c-11 6-23 10-35 10-17 0-32-7-44-18-12-12-18-28-18-44 0-13 3-25 10-35 7-10 17-18 28-23 12-5 24-6 36-4 12 3 24 9 32 17 9 9 15 20 17 32 3 12 2 25-3 36-5 12-13 22-23 29z m465-240v31c0 21-4 41-12 60-8 19-19 36-34 51-14 14-31 26-50 34-19 8-40 12-60 12h-94v62h94c58 0 113-23 154-64 42-41 65-97 65-155v-31h-63z m-562-250v-31c0-42 16-81 45-111 30-29 69-45 111-45h94v-63h-94c-58 0-114 23-155 64-41 41-64 97-64 155v31h63z m156 281h-188c-25 0-48-10-66-27-18-18-27-42-27-66v-63h62v63c0 8 3 16 9 22 6 6 14 9 22 9h188c8 0 16-3 22-9 6-6 9-14 9-22v-63h63v63c0 24-10 48-28 66-17 17-41 27-66 27z m312-437c-25 0-48-10-66-28-18-17-27-41-27-66v-63h62v63c0 8 3 16 9 22 6 6 14 9 22 9h188c8 0 16-3 22-9 6-6 9-14 9-22v-63h63v63c0 25-10 49-28 66-17 18-41 28-66 28h-188z m-10 87c-14 20-21 44-21 69 0 33 13 65 37 88 23 24 55 37 88 37 25 0 49-7 69-21 21-14 37-33 47-56 9-23 11-48 7-72-5-25-17-47-35-64-17-18-39-30-64-35-24-4-49-2-72 8-23 9-42 25-56 46z m156 34c7 11 11 23 11 35 0 17-7 33-19 44-11 12-27 19-44 19-12 0-24-4-35-11-10-7-18-17-23-28-4-11-6-24-3-36 2-12 8-23 17-32 9-9 20-15 32-17 12-3 25-1 36 3 11 5 21 13 28 23z m-483 369c-20-14-44-21-69-21-33 0-65 13-88 36-24 24-37 55-37 89 0 24 7 48 21 69 14 21 33 37 56 46 23 9 48 12 72 7 25-5 47-17 64-34 18-18 30-40 35-64 4-24 2-49-7-72-10-23-26-43-47-56z m-34 156c-11 6-23 10-35 10-17 0-32-7-44-18-12-12-18-28-18-44 0-13 3-25 10-35 7-10 17-18 28-23 12-5 24-6 36-4 12 3 24 9 32 17 9 9 15 20 17 32 3 12 2 25-3 36-5 12-13 22-23 29z m465-240v31c0 21-4 41-12 60-8 19-19 36-34 51-14 14-31 26-50 34-19 8-40 12-60 12h-94v62h94c58 0 113-23 154-64 42-41 65-97 65-155v-31h-63z m-562-250v-31c0-42 16-81 45-111 30-29 69-45 111-45h94v-63h-94c-58 0-114 23-155 64-41 41-64 97-64 155v31h63z m156 281h-188c-25 0-48-10-66-27-18-18-27-42-27-66v-63h62v63c0 8 3 16 9 22 6 6 14 9 22 9h188c8 0 16-3 22-9 6-6 9-14 9-22v-63h63v63c0 24-10 48-28 66-17 17-41 27-66 27z m312-437c-25 0-48-10-66-28-18-17-27-41-27-66v-63h62v63c0 8 3 16 9 22 6 6 14 9 22 9h188c8 0 16-3 22-9 6-6 9-14 9-22v-63h63v63c0 25-10 49-28 66-17 18-41 28-66 28h-188z m-10 87c-14 20-21 44-21 69 0 33 13 65 37 88 23 24 55 37 88 37 25 0 49-7 69-21 21-14 37-33 47-56 9-23 11-48 7-72-5-25-17-47-35-64-17-18-39-30-64-35-24-4-49-2-72 8-23 9-42 25-56 46z m156 34c7 11 11 23 11 35 0 17-7 33-19 44-11 12-27 19-44 19-12 0-24-4-35-11-10-7-18-17-23-28-4-11-6-24-3-36 2-12 8-23 17-32 9-9 20-15 32-17 12-3 25-1 36 3 11 5 21 13 28 23z" horiz-adv-x="1000" />

<glyph glyph-name="collapse-all" unicode="&#xe868;" d="M938 381h-63v250h-469v63h469c17 0 33-7 44-19 12-11 19-27 19-44v-250z m-157-156h-62v250h-469v63h469c16 0 32-7 44-19 12-11 18-27 18-44v-250z m-656-219h438c16 0 32 7 44 19 11 11 18 27 18 44v250c0 16-7 32-18 44-12 12-28 18-44 18h-438c-17 0-32-6-44-18-12-12-18-28-18-44v-250c0-17 6-33 18-44 12-12 27-19 44-19z m0 63v250h438l0-250h-438z m813 312h-63v250h-469v63h469c17 0 33-7 44-19 12-11 19-27 19-44v-250z m-157-156h-62v250h-469v63h469c16 0 32-7 44-19 12-11 18-27 18-44v-250z m-656-219h438c16 0 32 7 44 19 11 11 18 27 18 44v250c0 16-7 32-18 44-12 12-28 18-44 18h-438c-17 0-32-6-44-18-12-12-18-28-18-44v-250c0-17 6-33 18-44 12-12 27-19 44-19z m0 63v250h438l0-250h-438z" horiz-adv-x="1000" />

</font>
</defs>
</svg>
