<svg width="140" height="46" viewBox="0 0 140 46" fill="none" xmlns="http://www.w3.org/2000/svg">
<path fill-rule="evenodd" clip-rule="evenodd" d="M24.4196 38.9777C25.0092 33.9868 28.1194 29.3455 31.115 27.8314C28.9378 25.0368 27.6937 21.3602 27.3335 18.5653H23.9942H20.671C20.2946 21.3602 19.0505 25.0368 16.8733 27.8314C19.8689 29.3455 22.9956 33.9868 23.585 38.9777V27.5321C23.0938 27.3659 22.7335 26.8832 22.7335 26.3176C22.7335 25.619 23.3067 25.0369 23.9942 25.0369C24.6981 25.0369 25.2548 25.619 25.2548 26.3176C25.2548 26.8832 24.9107 27.3659 24.4196 27.5321V38.9777ZM23.9942 12.8926L32.7031 15.2881L27.3335 16.7519V18.0165H20.671V16.7519L19.738 16.5023L24.0431 15.5874C24.1416 15.5709 24.207 15.4711 24.1743 15.3546V15.3378C24.1578 15.4046 24.1085 15.4544 24.0431 15.4711L19.0177 16.5358V18.4322C19.0997 18.4987 19.1651 18.5985 19.1651 18.7316C19.1651 18.8148 19.1321 18.8981 19.0832 18.9646L19.1321 19.1142L19.4431 20.1956H18.8211H18.1991L18.5101 19.1142L18.5593 18.9479C18.5101 18.8814 18.4777 18.8148 18.4777 18.7316C18.4777 18.5985 18.5431 18.4988 18.641 18.4322V16.5691C18.641 16.4193 18.6248 16.2362 18.6902 16.2195L15.2852 15.288L23.9942 12.8926Z" fill="#FF6D1C"/>
<path fill-rule="evenodd" clip-rule="evenodd" d="M36.0266 41.1738C35.0119 41.0572 34.0623 41.4898 33.473 42.255C33.866 43.1367 34.7009 43.7856 35.7156 43.9019C36.7307 44.0349 37.6803 43.5858 38.2693 42.8206C37.8766 41.9389 37.0417 41.29 36.0266 41.1738ZM32.1635 43.2365C31.1977 42.9036 30.1665 43.1199 29.446 43.7521C29.6591 44.7006 30.3301 45.5154 31.2959 45.8483C32.2782 46.1812 33.2929 45.9481 34.0297 45.3159C33.8171 44.3845 33.1458 43.5693 32.1635 43.2365ZM36.8943 9.59861C37.4347 10.3473 38.2693 10.7466 39.1045 10.7631L39.2354 10.9129C41.6581 13.8408 43.1313 17.3343 43.6059 20.9777C44.0809 24.6043 43.557 28.3806 41.9691 31.8409C40.381 35.3012 37.8766 38.1293 34.848 40.109C32.409 41.6726 29.6098 42.7041 26.6797 43.0534V43.6191C29.7245 43.2697 32.6219 42.2218 35.1428 40.5914C38.2693 38.5619 40.8559 35.6338 42.4765 32.0737C44.1136 28.5136 44.6537 24.6375 44.1625 20.8944C43.6714 17.1513 42.1655 13.558 39.6773 10.5468L39.5299 10.3805C39.7427 9.56534 39.5956 8.66688 39.0552 7.95174C38.4494 7.11977 37.4674 6.72073 36.5178 6.80371C36.1741 7.70222 36.2723 8.76693 36.8943 9.59861ZM37.2873 13.8741C38.3185 13.8408 39.1862 13.2584 39.6611 12.41C39.1369 11.5948 38.2204 11.0792 37.2054 11.1124C36.1741 11.1457 35.2899 11.7281 34.8318 12.5766C35.3557 13.3917 36.2723 13.9073 37.2873 13.8741ZM39.2189 17.3176C40.2177 17.5339 41.1997 17.1845 41.8545 16.4859C41.5435 15.5709 40.7743 14.839 39.7755 14.6227C38.777 14.4064 37.7785 14.7558 37.1237 15.4544C37.4509 16.3694 38.2039 17.1013 39.2189 17.3176ZM40.2501 21.1272C41.1832 21.593 42.2148 21.4933 43.0331 20.9777C42.9349 20.0127 42.3618 19.1142 41.4453 18.6487C40.5287 18.1993 39.4809 18.2826 38.6788 18.815C38.7769 19.7799 39.3335 20.6616 40.2501 21.1272ZM40.3648 25.0866C41.1508 25.752 42.1817 25.9186 43.0824 25.619C43.2295 24.6543 42.9023 23.6393 42.1163 22.9739C41.3306 22.3085 40.2832 22.1422 39.3825 22.4415C39.2354 23.4065 39.5791 24.4047 40.3648 25.0866ZM39.5299 28.9462C40.1192 29.7947 41.0853 30.2105 42.0508 30.1272C42.4111 29.229 42.3294 28.1811 41.7236 27.3326C41.1177 26.4842 40.1523 26.0681 39.2024 26.1513C38.8424 27.0498 38.9243 28.0978 39.5299 28.9462ZM37.7949 32.4898C38.1714 33.4545 39.006 34.1034 39.9556 34.2532C40.5287 33.4878 40.6921 32.423 40.3156 31.4583C39.9229 30.4933 39.088 29.8612 38.1549 29.6949C37.5818 30.4769 37.4182 31.5248 37.7949 32.4898ZM35.2737 35.5007C35.4046 36.5322 36.0759 37.3639 36.9435 37.7467C37.6802 37.1311 38.0895 36.1496 37.9583 35.1181C37.8112 34.0866 37.1564 33.2715 36.2723 32.8724C35.5355 33.4878 35.1266 34.4692 35.2737 35.5007ZM32.098 37.8133C31.9833 38.8445 32.4418 39.8095 33.1947 40.3919C34.0624 39.9757 34.6844 39.1273 34.7991 38.0961C34.9135 37.0646 34.4553 36.0996 33.7024 35.5007C32.851 35.9165 32.2127 36.765 32.098 37.8133ZM28.4804 39.2606C28.1202 40.2421 28.3327 41.29 28.9223 42.0387C29.8554 41.8556 30.6738 41.1902 31.0341 40.2088C31.3775 39.2273 31.1812 38.1791 30.5921 37.4307C29.6425 37.6135 28.8239 38.2791 28.4804 39.2606ZM40.4957 10.0145C40.4795 11.046 41.0196 11.9777 41.8217 12.4933C42.6404 11.9942 43.197 11.0792 43.2132 10.0477C43.2132 8.99972 42.6894 8.08477 41.8872 7.56915C41.0523 8.06799 40.5122 8.96649 40.4957 10.0145ZM42.9184 13.691C42.6894 14.7058 43.0169 15.7208 43.7044 16.4027C44.6044 16.0866 45.3412 15.3214 45.5541 14.3067C45.7831 13.2917 45.4559 12.277 44.7684 11.5948C43.868 11.9111 43.1313 12.6763 42.9184 13.691ZM44.5228 17.8167C44.0971 18.7649 44.2118 19.8132 44.7521 20.6284C45.7015 20.5118 46.5691 19.9129 46.9948 18.9647C47.4204 18.0165 47.3058 16.9518 46.7654 16.1531C45.8161 16.2696 44.9485 16.8685 44.5228 17.8167ZM45.2595 22.1754C44.6537 23.0071 44.539 24.0719 44.8993 24.9703C45.8485 25.0533 46.8309 24.6543 47.4367 23.8223C48.0426 22.9906 48.157 21.9259 47.797 21.0274C46.8474 20.9444 45.8651 21.3435 45.2595 22.1754ZM45.0794 26.6004C44.3099 27.2826 43.9989 28.3141 44.1625 29.2623C45.0794 29.5451 46.1106 29.362 46.8801 28.6799C47.6492 27.9812 47.9603 26.9665 47.7969 26.0183C46.8801 25.7187 45.8485 25.9186 45.0794 26.6004ZM44.0154 30.8927C43.1148 31.4082 42.6074 32.3232 42.5582 33.3047C43.3933 33.7705 44.4411 33.8038 45.3412 33.3047C46.2253 32.7891 46.7491 31.8573 46.7816 30.8927C45.947 30.41 44.8993 30.3768 44.0154 30.8927ZM42.0838 34.8686C41.1015 35.1682 40.414 35.9665 40.1684 36.9148C40.8887 37.5469 41.9037 37.8133 42.886 37.4972C43.868 37.1811 44.5555 36.3824 44.8011 35.451C44.0809 34.8021 43.0659 34.5525 42.0838 34.8686ZM39.3825 38.3456C38.3677 38.4286 37.5164 39.0775 37.0906 39.9424C37.6637 40.7244 38.6133 41.1903 39.6281 41.0905C40.6431 40.9907 41.4942 40.3586 41.9199 39.4934C41.3471 38.7114 40.3975 38.2456 39.3825 38.3456Z" fill="#FF6D1C"/>
<path fill-rule="evenodd" clip-rule="evenodd" d="M15.8253 43.2365C16.7911 42.9036 17.8224 43.1199 18.5591 43.7521C18.3463 44.7006 17.6753 45.5154 16.693 45.8483C15.7272 46.1812 14.6959 45.9481 13.9754 45.3159C14.1886 44.3845 14.8596 43.5693 15.8253 43.2365ZM11.1108 9.59861C10.5707 10.3473 9.73575 10.7466 8.88433 10.7631L8.75343 10.9129C6.34718 13.8408 4.8575 17.3343 4.38285 20.9777C3.90791 24.6043 4.44828 28.3806 6.01966 31.8409C7.60778 35.3012 10.1122 38.1293 13.157 40.109C15.596 41.6726 18.3789 42.7041 21.3256 43.0534V43.6191C18.2643 43.2697 15.3834 42.2218 12.846 40.5914C9.71949 38.5619 7.14907 35.6338 5.51226 32.0737C3.89168 28.5136 3.33509 24.6375 3.82625 20.8944C4.31741 17.1514 5.83954 13.558 8.32773 10.5468L8.45892 10.3805C8.2623 9.56534 8.40968 8.66688 8.93358 7.95174C9.55561 7.11977 10.5214 6.72073 11.471 6.80371C11.8313 7.70222 11.7166 8.76693 11.1108 9.59861ZM10.7015 13.8741C9.68651 13.8408 8.80263 13.2584 8.32773 12.41C8.8681 11.5948 9.76849 11.0792 10.7997 11.1124C11.8147 11.1457 12.6988 11.7281 13.1732 12.5766C12.6497 13.3917 11.7328 13.9073 10.7015 13.8741ZM8.78645 17.3176C7.78761 17.5339 6.78909 17.1845 6.13433 16.4859C6.44534 15.5709 7.21455 14.839 8.21334 14.6227C9.21186 14.4064 10.2104 14.7558 10.8652 15.4544C10.5541 16.3694 9.78496 17.1013 8.78645 17.3176ZM7.73869 21.1272C6.82183 21.593 5.77407 21.4933 4.97189 20.9777C5.05387 20.0127 5.62698 19.1142 6.54355 18.6487C7.46012 18.1993 8.50788 18.2826 9.31006 18.815C9.22836 19.7799 8.65526 20.6616 7.73869 21.1272ZM7.64023 25.0866C6.85453 25.752 5.80709 25.9186 4.90646 25.619C4.75933 24.6543 5.1028 23.6393 5.88875 22.9739C6.6747 22.3085 7.70566 22.1422 8.60629 22.4415C8.75342 23.4065 8.40968 24.4047 7.64023 25.0866ZM8.47543 28.9462C7.86959 29.7947 6.90353 30.2105 5.95422 30.1272C5.59396 29.229 5.67595 28.1811 6.28146 27.3326C6.87108 26.4842 7.83685 26.0681 8.78645 26.1513C9.16293 27.0498 9.08095 28.0978 8.47543 28.9462ZM10.2104 32.4898C9.81741 33.4545 8.98278 34.1034 8.04974 34.2532C7.47663 33.4878 7.31299 32.423 7.68948 31.4583C8.06597 30.4933 8.90084 29.8612 9.85043 29.6949C10.4233 30.4769 10.5871 31.5248 10.2104 32.4898ZM12.7313 35.5007C12.5842 36.5322 11.9292 37.3639 11.0453 37.7467C10.3086 37.1311 9.8994 36.1496 10.0468 35.1181C10.1777 34.0866 10.849 33.2715 11.7166 32.8724C12.4533 33.4878 12.8787 34.4692 12.7313 35.5007ZM15.8908 37.8133C16.0055 38.8445 15.5636 39.8095 14.8106 40.3919C13.943 39.9757 13.3044 39.1273 13.2062 38.0961C13.0916 37.0646 13.5335 36.0996 14.2864 35.5007C15.1541 35.9165 15.7926 36.765 15.8908 37.8133ZM19.5249 39.2606C19.8687 40.2421 19.6723 41.29 19.083 42.0387C18.1334 41.8556 17.315 41.1902 16.9713 40.2088C16.6113 39.2273 16.8239 38.1791 17.4132 37.4307C18.3463 37.6135 19.1649 38.2791 19.5249 39.2606ZM7.50933 10.0145C7.50933 11.046 6.98575 11.9777 6.18358 12.4933C5.34838 11.9942 4.8083 11.0792 4.79175 10.0477C4.77556 8.99972 5.31593 8.08477 6.11811 7.56915C6.93651 8.06799 7.4931 8.96649 7.50933 10.0145ZM5.08661 13.691C5.31597 14.7058 4.97189 15.7208 4.30094 16.4027C3.38437 16.0866 2.66385 15.3214 2.43478 14.3067C2.20571 13.2917 2.54918 12.277 3.23668 11.5948C4.13731 11.9111 4.85754 12.6763 5.08661 13.691ZM3.46599 17.8167C3.90791 18.7649 3.77705 19.8132 3.25315 20.6284C2.30355 20.5118 1.43594 19.9129 1.01049 18.9647C0.584802 18.0165 0.699481 16.9518 1.22334 16.1531C2.17269 16.2696 3.0403 16.8685 3.46599 17.8167ZM2.7458 22.1754C3.35135 23.0071 3.44976 24.0719 3.08954 24.9703C2.14028 25.0533 1.17418 24.6543 0.568374 23.8223C-0.0536939 22.9906 -0.151579 21.9259 0.208397 21.0274C1.15795 20.9444 2.12373 21.3435 2.7458 22.1754ZM2.9094 26.6004C3.67888 27.2826 3.98989 28.3141 3.84248 29.2623C2.92562 29.5451 1.89466 29.362 1.12493 28.6799C0.355773 27.9812 0.0285325 26.9665 0.191848 26.0183C1.1087 25.7187 2.14024 25.9186 2.9094 26.6004ZM3.98989 30.8927C4.87401 31.4082 5.39763 32.3232 5.43061 33.3047C4.59545 33.7705 3.54769 33.8038 2.66381 33.3047C1.76347 32.7891 1.25608 31.8573 1.20716 30.8927C2.04179 30.41 3.08955 30.3768 3.98989 30.8927ZM5.92149 34.8686C6.90349 35.1682 7.59127 35.9665 7.82039 36.9148C7.10015 37.5469 6.08512 37.8133 5.10284 37.4972C4.1373 37.1811 3.4333 36.3824 3.20422 35.451C3.92446 34.8021 4.93944 34.5525 5.92149 34.8686ZM8.62252 38.3456C9.6373 38.4286 10.4887 39.0775 10.8982 39.9424C10.3251 40.7244 9.392 41.1903 8.36075 41.0905C7.34573 40.9907 6.51082 40.3586 6.08512 39.4934C6.65819 38.7114 7.59127 38.2456 8.62252 38.3456ZM11.9784 41.1738C12.9934 41.0405 13.943 41.4898 14.532 42.255C14.1393 43.1367 13.3044 43.7856 12.2894 43.9019C11.2746 44.0349 10.3086 43.5858 9.71953 42.8206C10.1284 41.9389 10.9471 41.29 11.9784 41.1738Z" fill="#FF6D1C"/>
<path fill-rule="evenodd" clip-rule="evenodd" d="M23.9938 0L24.8287 2.64509L27.5625 2.62864L25.3525 4.25873L26.2036 6.90382L23.9937 5.25695L21.8 6.90382L22.6352 4.25873L20.425 2.62864L23.1588 2.64509L23.9938 0ZM17.5112 4.1757L16.9711 5.88907H15.2031L16.6273 6.93704L16.087 8.65069L17.5112 7.60271L18.9516 8.65069L18.395 6.93704L19.8358 5.88907H18.0678L17.5112 4.1757ZM30.4764 4.1757L31.033 5.88907H32.8007L31.3603 6.93704L31.9169 8.65069L30.4764 7.60271L29.0522 8.65069L29.5926 6.93704L28.1683 5.88907H29.9361L30.4764 4.1757Z" fill="#FF6D1C"/>
<path fill-rule="evenodd" clip-rule="evenodd" d="M23.9941 42.2051C24.6161 42.2051 25.1072 42.7042 25.1072 43.3363C25.1072 43.9684 24.6161 44.4676 23.9941 44.4676C23.3885 44.4676 22.8809 43.9684 22.8809 43.3363C22.8808 42.7042 23.3885 42.2051 23.9941 42.2051Z" fill="#FF6D1C"/>
<path d="M71.6139 16.186C71.6139 17.3315 71.4544 18.2554 71.1355 18.958C70.8165 19.6453 70.4595 20.1722 70.0646 20.5387C69.6848 20.9053 69.1608 21.2107 68.4925 21.4551C67.8242 21.6995 67.0418 21.8216 66.1457 21.8216C63.9584 21.8216 62.3255 21.4017 61.2471 20.5616C60.1838 19.7064 59.6522 18.3548 59.6522 16.5067V6.99945L57.7383 6.79327V6.24345H64.6647V6.79327L62.6825 6.99945V16.0485C62.6825 17.7591 62.9787 19.0191 63.5711 19.8285C64.1635 20.6228 65.1432 21.0198 66.5102 21.0198C67.8773 21.0198 68.8874 20.6457 69.5406 19.8973C70.1937 19.1337 70.5203 17.8278 70.5203 15.9798V7.13691L68.8342 6.90782V6.24345H73.4595V6.95363L71.6139 7.13691V16.186ZM86.32 6.24345H90.9224V6.79327L89.3275 7.34309V21.5467H87.7782L77.6392 8.99254V20.4242L79.553 20.9969V21.5467H74.9962V20.9969L76.6594 20.4242V6.99945L74.6772 6.79327V6.24345H78.9606L88.0744 17.6522V7.32018L86.32 6.79327V6.24345ZM99.6067 21.5467H92.6119V20.9969L94.5942 20.7907V6.99945L92.6119 6.79327V6.24345H99.6067V6.79327L97.6245 6.99945V20.7907L99.6067 20.9969V21.5467ZM113.689 10.0693C113.689 10.9245 113.499 11.6576 113.119 12.2685C112.739 12.8795 112.223 13.3453 111.57 13.666C110.37 14.2463 108.919 14.5365 107.218 14.5365C106.929 14.5365 106.527 14.5212 106.01 14.4907V20.7907L107.742 20.9969V21.5467H101.294V20.9969L103.003 20.7907V6.95363L101.043 6.72454V6.19763H105.577L108.243 6.12891C110.127 6.14418 111.501 6.48018 112.367 7.13691C113.248 7.79364 113.689 8.77109 113.689 10.0693ZM106.648 13.8264C107.894 13.8264 108.851 13.4904 109.519 12.8184C110.187 12.1311 110.522 11.2224 110.522 10.0922C110.522 8.962 110.286 8.13727 109.815 7.618C109.344 7.08346 108.6 6.81618 107.582 6.81618C106.868 6.81618 106.344 6.84672 106.01 6.90782V13.7805C106.284 13.8111 106.496 13.8264 106.648 13.8264ZM121.902 21.5467H114.907V20.9969L116.889 20.7907V6.99945L114.907 6.79327V6.24345H121.902V6.79327L119.919 6.99945V20.7907L121.902 20.9969V21.5467ZM133.659 6.24345H138.718V6.93073L136.918 7.43473L132.247 13.3453L137.464 20.7907L139.31 20.9969V21.5467H131.996V20.9969L133.842 20.7907L130.128 15.2238L126.186 20.3784L128.146 20.8595V21.5467H123.019V20.8595L124.728 20.4013L129.558 14.3075L124.09 6.99945L122.449 6.79327V6.24345H129.148V6.77036L127.553 6.97654L131.632 12.4976L135.573 7.43473L133.659 6.93073V6.24345Z" fill="#FF6D1C"/>
<path d="M58.2168 37.9099V28.4844H59.5773V32.883L63.5028 28.4844H65.1953L61.0486 33.0859L65.5013 37.9099H63.7566L59.5773 33.4066V37.9099H58.2168ZM66.5478 29.6822V28.3535H67.9083V29.6822H66.5478ZM66.5478 37.9099V30.8408H67.9083V37.9099H66.5478ZM74.7977 37.9099V34.4342C74.7977 34.1593 74.7738 33.8779 74.7261 33.5899C74.6827 33.2975 74.5959 33.027 74.4657 32.7782C74.3398 32.5295 74.1597 32.3288 73.9254 32.1761C73.6953 32.0233 73.3938 31.947 73.0205 31.947C72.7774 31.947 72.5475 31.9885 72.3305 32.0713C72.1134 32.1499 71.9225 32.2786 71.7576 32.4575C71.597 32.6365 71.469 32.8721 71.3735 33.1644C71.2824 33.4568 71.2368 33.8124 71.2368 34.2313L70.3905 33.9106C70.3905 33.2692 70.5099 32.704 70.7486 32.2153C70.9872 31.7222 71.3301 31.3382 71.7771 31.0633C72.2241 30.7884 72.7644 30.651 73.3981 30.651C73.8841 30.651 74.2921 30.7295 74.6219 30.8866C74.9517 31.0437 75.2186 31.2509 75.4226 31.5084C75.6309 31.7615 75.7894 32.0386 75.8978 32.3397C76.0063 32.6408 76.0801 32.9353 76.1192 33.2233C76.1582 33.5113 76.1778 33.7644 76.1778 33.9826V37.9099H74.7977ZM69.8567 37.9099V30.8408H71.0741V32.883H71.2368V37.9099H69.8567ZM80.5771 38.1062C79.9217 38.1062 79.3554 37.9426 78.878 37.6153C78.4049 37.2881 78.0383 36.843 77.7779 36.2801C77.5218 35.7128 77.3938 35.0757 77.3938 34.3688C77.3938 33.6575 77.524 33.0226 77.7844 32.4641C78.0448 31.9012 78.4136 31.4583 78.891 31.1353C79.3728 30.8081 79.9434 30.6444 80.6031 30.6444C81.2671 30.6444 81.8248 30.8081 82.2761 31.1353C82.7318 31.4583 83.0746 31.9012 83.3047 32.4641C83.539 33.027 83.6562 33.6619 83.6562 34.3688C83.6562 35.0757 83.539 35.7106 83.3047 36.2735C83.0703 36.8364 82.7253 37.2837 82.2696 37.6153C81.8139 37.9426 81.2497 38.1062 80.5771 38.1062ZM80.7659 36.8692C81.2128 36.8692 81.5774 36.7622 81.8595 36.5484C82.1415 36.3346 82.3477 36.0401 82.4779 35.6648C82.6081 35.2895 82.6732 34.8575 82.6732 34.3688C82.6732 33.8801 82.6059 33.4481 82.4714 33.0728C82.3412 32.6975 82.1372 32.4052 81.8595 32.1957C81.5861 31.9862 81.2367 31.8815 80.8114 31.8815C80.3601 31.8815 79.989 31.9928 79.6983 32.2153C79.4074 32.4379 79.1905 32.7368 79.0473 33.1121C78.9084 33.4874 78.839 33.9063 78.839 34.3688C78.839 34.8357 78.9084 35.259 79.0473 35.6386C79.1905 36.0139 79.4031 36.3128 79.6852 36.5353C79.9717 36.7579 80.3318 36.8692 80.7659 36.8692ZM82.6732 37.9099V32.8241H82.517V28.4844H83.8841V37.9099H82.6732ZM88.8237 38.1062C88.125 38.1062 87.5108 37.9535 86.9814 37.6481C86.4562 37.3382 86.0461 36.9084 85.751 36.3586C85.4602 35.8045 85.3149 35.163 85.3149 34.4342C85.3149 33.6619 85.4581 32.992 85.7446 32.4248C86.0353 31.8575 86.4389 31.419 86.9554 31.1092C87.4718 30.7993 88.0729 30.6444 88.7586 30.6444C89.4747 30.6444 90.0844 30.8124 90.5879 31.1484C91.0912 31.48 91.4667 31.9535 91.7141 32.5688C91.9657 33.1841 92.0656 33.9149 92.0135 34.7615H90.653V34.2641C90.6442 33.4437 90.488 32.8372 90.1842 32.4444C89.8848 32.0517 89.4269 31.8553 88.8107 31.8553C88.1293 31.8553 87.6172 32.0713 87.2744 32.5033C86.9315 32.9353 86.7601 33.5594 86.7601 34.3753C86.7601 35.152 86.9315 35.7542 87.2744 36.1819C87.6172 36.6051 88.1119 36.8168 88.7586 36.8168C89.1839 36.8168 89.5506 36.7208 89.8588 36.5288C90.1712 36.3324 90.4142 36.0532 90.5879 35.691L91.9224 36.1164C91.649 36.7491 91.2344 37.24 90.679 37.5892C90.1235 37.9339 89.505 38.1062 88.8237 38.1062ZM86.3174 34.7615V33.6946H91.3364V34.7615H86.3174ZM93.474 37.9099V30.8408H94.6848V32.5557L94.5155 32.3332C94.6024 32.1063 94.7152 31.8989 94.8541 31.7113C94.993 31.5193 95.1535 31.3622 95.3358 31.2401C95.5137 31.1092 95.7112 31.0088 95.9282 30.939C96.1495 30.8648 96.3752 30.8212 96.6052 30.8081C96.8352 30.7906 97.0566 30.8015 97.2692 30.8408V32.1237C97.0392 32.0626 96.7832 32.0452 96.501 32.0713C96.2233 32.0975 95.9672 32.1869 95.7329 32.3397C95.5115 32.4837 95.3358 32.6582 95.2056 32.8633C95.0798 33.0685 94.9886 33.2975 94.9322 33.5506C94.8758 33.7993 94.8475 34.0634 94.8475 34.3426V37.9099H93.474ZM101.151 41.2481C100.774 41.2481 100.407 41.1892 100.051 41.0713C99.6998 40.9535 99.3787 40.779 99.0879 40.5477C98.7971 40.3208 98.5563 40.0394 98.3653 39.7033L99.6217 39.0619C99.7736 39.363 99.9906 39.5833 100.273 39.723C100.555 39.8626 100.852 39.9324 101.164 39.9324C101.551 39.9324 101.881 39.8626 102.154 39.723C102.427 39.5877 102.634 39.3826 102.772 39.1077C102.916 38.8328 102.985 38.4924 102.981 38.0866V36.1099H103.143V30.8408H104.348V38.0997C104.348 38.2873 104.341 38.4662 104.328 38.6364C104.315 38.8066 104.291 38.9768 104.257 39.147C104.157 39.6226 103.966 40.0153 103.684 40.3252C103.406 40.635 103.05 40.8662 102.616 41.019C102.187 41.1717 101.698 41.2481 101.151 41.2481ZM101.047 38.1062C100.392 38.1062 99.8257 37.9426 99.3483 37.6153C98.8752 37.2881 98.5085 36.843 98.2481 36.2801C97.9921 35.7128 97.864 35.0757 97.864 34.3688C97.864 33.6575 97.9942 33.0226 98.2546 32.4641C98.515 31.9012 98.8839 31.4583 99.3613 31.1353C99.843 30.8081 100.414 30.6444 101.073 30.6444C101.737 30.6444 102.295 30.8081 102.746 31.1353C103.202 31.4583 103.545 31.9012 103.775 32.4641C104.009 33.027 104.126 33.6619 104.126 34.3688C104.126 35.0757 104.009 35.7106 103.775 36.2735C103.541 36.8364 103.196 37.2837 102.74 37.6153C102.284 37.9426 101.72 38.1062 101.047 38.1062ZM101.236 36.8692C101.683 36.8692 102.048 36.7622 102.33 36.5484C102.612 36.3346 102.818 36.0401 102.948 35.6648C103.078 35.2895 103.143 34.8575 103.143 34.3688C103.143 33.8801 103.076 33.4481 102.942 33.0728C102.811 32.6975 102.608 32.4052 102.33 32.1957C102.056 31.9862 101.707 31.8815 101.282 31.8815C100.83 31.8815 100.459 31.9928 100.168 32.2153C99.8778 32.4379 99.6607 32.7368 99.5175 33.1121C99.3787 33.4874 99.3092 33.9063 99.3092 34.3688C99.3092 34.8357 99.3787 35.259 99.5175 35.6386C99.6607 36.0139 99.8734 36.3128 100.155 36.5353C100.442 36.7579 100.802 36.8692 101.236 36.8692ZM108.161 38.1062C107.64 38.1062 107.204 38.0103 106.853 37.8182C106.501 37.6219 106.234 37.3644 106.052 37.0459C105.874 36.7229 105.785 36.3695 105.785 35.9855C105.785 35.6277 105.848 35.3135 105.974 35.043C106.1 34.7724 106.286 34.5433 106.534 34.3557C106.781 34.1637 107.085 34.0088 107.445 33.891C107.758 33.7993 108.111 33.7186 108.506 33.6488C108.901 33.579 109.316 33.5135 109.75 33.4524C110.188 33.3913 110.622 33.3303 111.052 33.2692L110.557 33.5441C110.566 32.9899 110.448 32.5797 110.205 32.3135C109.967 32.0429 109.554 31.9077 108.968 31.9077C108.6 31.9077 108.261 31.995 107.953 32.1695C107.645 32.3397 107.43 32.6234 107.308 33.0204L106.039 32.6277C106.213 32.0212 106.542 31.5389 107.029 31.1812C107.519 30.8234 108.17 30.6444 108.981 30.6444C109.611 30.6444 110.158 30.7535 110.622 30.9717C111.091 31.1855 111.433 31.5259 111.65 31.9928C111.763 32.2241 111.833 32.4684 111.859 32.7259C111.885 32.9834 111.898 33.2604 111.898 33.5572V37.9099H110.694V36.2932L110.928 36.5026C110.637 37.0437 110.266 37.4474 109.815 37.7135C109.368 37.9753 108.817 38.1062 108.161 38.1062ZM108.402 36.987C108.788 36.987 109.12 36.9193 109.398 36.7841C109.676 36.6444 109.899 36.4677 110.069 36.2539C110.238 36.0401 110.349 35.8175 110.401 35.5862C110.474 35.3768 110.516 35.1412 110.524 34.8793C110.537 34.6175 110.544 34.4081 110.544 34.251L110.986 34.4146C110.557 34.4801 110.166 34.539 109.815 34.5913C109.463 34.6437 109.144 34.6961 108.858 34.7484C108.576 34.7965 108.324 34.8554 108.103 34.9252C107.916 34.9906 107.749 35.0692 107.601 35.1608C107.458 35.2524 107.343 35.3637 107.256 35.4946C107.174 35.6255 107.133 35.7848 107.133 35.9724C107.133 36.1557 107.178 36.3259 107.269 36.483C107.361 36.6357 107.499 36.7579 107.686 36.8495C107.873 36.9412 108.111 36.987 108.402 36.987ZM113.588 37.9099V30.8408H114.799V32.5557L114.63 32.3332C114.717 32.1063 114.829 31.8989 114.968 31.7113C115.107 31.5193 115.268 31.3622 115.45 31.2401C115.628 31.1092 115.825 31.0088 116.042 30.939C116.264 30.8648 116.489 30.8212 116.72 30.8081C116.949 30.7906 117.171 30.8015 117.384 30.8408V32.1237C117.153 32.0626 116.897 32.0452 116.615 32.0713C116.338 32.0975 116.082 32.1869 115.847 32.3397C115.626 32.4837 115.45 32.6582 115.32 32.8633C115.194 33.0685 115.103 33.2975 115.046 33.5506C114.99 33.7993 114.962 34.0634 114.962 34.3426V37.9099H113.588ZM122.646 37.9099C122.204 37.9972 121.77 38.0342 121.344 38.0212C120.919 38.0081 120.539 37.9252 120.205 37.7724C119.871 37.6197 119.619 37.3797 119.45 37.0524C119.298 36.7601 119.216 36.4633 119.203 36.1622C119.194 35.8568 119.19 35.512 119.19 35.1281V28.8772H120.557V35.0626C120.557 35.3463 120.559 35.5928 120.563 35.8022C120.572 36.0117 120.617 36.1884 120.7 36.3324C120.856 36.603 121.103 36.7579 121.442 36.7972C121.785 36.8321 122.186 36.8168 122.646 36.7513V37.9099ZM117.842 31.9404V30.8408H122.646V31.9404H117.842ZM126.929 38.1062C126.23 38.1062 125.616 37.9535 125.087 37.6481C124.561 37.3382 124.151 36.9084 123.856 36.3586C123.565 35.8045 123.42 35.163 123.42 34.4342C123.42 33.6619 123.563 32.992 123.85 32.4248C124.141 31.8575 124.544 31.419 125.061 31.1092C125.577 30.7993 126.178 30.6444 126.864 30.6444C127.58 30.6444 128.19 30.8124 128.693 31.1484C129.196 31.48 129.572 31.9535 129.819 32.5688C130.071 33.1841 130.171 33.9149 130.119 34.7615H128.758V34.2641C128.749 33.4437 128.593 32.8372 128.289 32.4444C127.99 32.0517 127.532 31.8553 126.916 31.8553C126.234 31.8553 125.722 32.0713 125.38 32.5033C125.037 32.9353 124.865 33.5594 124.865 34.3753C124.865 35.152 125.037 35.7542 125.38 36.1819C125.722 36.6051 126.217 36.8168 126.864 36.8168C127.289 36.8168 127.656 36.7208 127.964 36.5288C128.276 36.3324 128.519 36.0532 128.693 35.691L130.028 36.1164C129.754 36.7491 129.34 37.24 128.784 37.5892C128.229 37.9339 127.61 38.1062 126.929 38.1062ZM124.423 34.7615V33.6946H129.442V34.7615H124.423ZM136.323 37.9099V34.4342C136.323 34.1593 136.299 33.8779 136.251 33.5899C136.208 33.2975 136.121 33.027 135.991 32.7782C135.865 32.5295 135.685 32.3288 135.451 32.1761C135.221 32.0233 134.919 31.947 134.546 31.947C134.303 31.947 134.073 31.9885 133.856 32.0713C133.639 32.1499 133.448 32.2786 133.283 32.4575C133.122 32.6365 132.994 32.8721 132.899 33.1644C132.808 33.4568 132.762 33.8124 132.762 34.2313L131.916 33.9106C131.916 33.2692 132.035 32.704 132.274 32.2153C132.513 31.7222 132.855 31.3382 133.302 31.0633C133.749 30.7884 134.29 30.651 134.923 30.651C135.409 30.651 135.817 30.7295 136.147 30.8866C136.477 31.0437 136.744 31.2509 136.948 31.5084C137.156 31.7615 137.315 32.0386 137.423 32.3397C137.532 32.6408 137.605 32.9353 137.644 33.2233C137.684 33.5113 137.703 33.7644 137.703 33.9826V37.9099H136.323ZM131.382 37.9099V30.8408H132.599V32.883H132.762V37.9099H131.382Z" fill="#FF6D1C"/>
</svg>
