<svg width="60" height="60" viewBox="0 0 60 60" fill="none" xmlns="http://www.w3.org/2000/svg">
<g clip-path="url(#clip0_1141_4283)">
<path d="M0 34.375V54.5C0 57.5 2.5 60 5.625 60H25.75C27.5 60 29 59.125 30.125 57.875C31.125 59.125 32.75 60 34.5 60H54.625C57.75 60 60.25 57.5 60.25 54.375V34.375C60.25 31.25 57.75 28.75 54.625 28.75H44.875C45.5 27.875 45.75 26.75 45.75 25.625V5.625C45.625 2.5 43.125 0 40 0H20C16.875 0 14.375 2.5 14.375 5.625V25.75C14.375 26.875 14.75 28 15.25 28.875H5.625C2.5 28.75 0 31.25 0 34.375ZM31.25 34.375C31.25 32.625 32.625 31.25 34.375 31.25H54.5C56.25 31.25 57.625 32.625 57.625 34.375V54.5C57.625 56.25 56.25 57.625 54.5 57.625H34.375C32.625 57.625 31.25 56.25 31.25 54.5V34.375ZM20 28.75C18.25 28.75 16.875 27.375 16.875 25.625V5.625C16.875 3.875 18.25 2.5 20 2.5H40C41.75 2.5 43.125 3.875 43.125 5.625V25.75C43.125 27.5 41.75 28.875 40 28.875H20V28.75ZM2.5 34.375C2.5 32.625 3.875 31.25 5.625 31.25H25.75C27.5 31.25 28.875 32.625 28.875 34.375V54.5C28.875 56.25 27.5 57.625 25.75 57.625H5.625C3.875 57.5 2.5 56.125 2.5 54.375V34.375Z" fill="white"/>
<path d="M23.5002 22.75C23.2502 23.375 23.6252 24.125 24.2502 24.375C24.3752 24.375 24.5002 24.5 24.6252 24.5C25.1252 24.5 25.6252 24.125 25.7502 23.625L27.2502 19.5H32.5002L34.0002 23.625C34.2502 24.25 35.0002 24.625 35.6252 24.375C36.2502 24.125 36.6252 23.375 36.3752 22.75L31.1252 7.75C31.0002 7.25 30.5002 6.875 30.0002 6.875C29.5002 6.875 29.0002 7.25 28.8752 7.75L23.5002 22.75ZM28.2502 16.875L30.0002 11.875L31.7502 16.875H28.2502Z" fill="white"/>
<path d="M16.125 35.625H11.375C10.625 35.625 10.125 36.125 10.125 36.875V51.875C10.125 52.625 10.625 53.125 11.375 53.125H16.125C18.875 53.125 21.125 50.875 21.125 48.125C21.125 46.625 20.5 45.25 19.375 44.375C20.375 43.5 21.125 42.125 21.125 40.625C21.125 37.875 18.875 35.625 16.125 35.625ZM16.125 50.625H12.625V45.625H16.125C17.5 45.625 18.625 46.75 18.625 48.125C18.625 49.5 17.5 50.625 16.125 50.625ZM16.125 43.125H12.625V38.125H16.125C17.5 38.125 18.625 39.25 18.625 40.625C18.625 42 17.5 43.125 16.125 43.125Z" fill="white"/>
<path d="M45.5 38.125C47.125 38.125 48.75 38.75 49.875 40C50.375 40.5 51.125 40.5 51.625 40C52.125 39.5 52.125 38.75 51.625 38.25C50 36.625 47.75 35.625 45.375 35.625C43 35.625 40.875 36.5 39.25 38.25C37.625 40 36.625 42.125 36.625 44.375C36.625 46.75 37.5 48.875 39.25 50.5C41 52.25 43.25 53 45.375 53C47.625 53 49.875 52.125 51.625 50.5C52.125 50 52.125 49.25 51.625 48.75C51.125 48.25 50.375 48.25 49.875 48.75C47.5 51.25 43.5 51.25 41 48.75C39.875 47.625 39.125 46 39.125 44.375C39.125 42.75 39.75 41.125 41 40C42.25 38.75 43.75 38.125 45.5 38.125Z" fill="white"/>
</g>
<defs>
<clipPath id="clip0_1141_4283">
<rect width="60" height="60" fill="white"/>
</clipPath>
</defs>
</svg>
