<svg width="70" height="70" viewBox="0 0 70 70" fill="none" xmlns="http://www.w3.org/2000/svg">
<path d="M59.5 44.3333H56V35C56 31.0917 54.915 27.3467 52.92 24.0917L55.93 21.0817C56.805 20.2067 57.295 19.005 57.295 17.78C57.295 16.555 56.7933 15.3533 55.93 14.4783C54.11 12.6583 51.1467 12.6583 49.3383 14.4783L46.4217 17.395C45.745 16.9517 45.045 16.555 44.3217 16.205C44.2867 13.755 43.33 11.4683 41.5917 9.73C39.8417 7.96833 37.4967 7 35 7C29.9017 7 25.7483 11.1183 25.6783 16.205C24.955 16.5667 24.2433 16.9517 23.5667 17.395L20.6617 14.49C18.9 12.7283 15.8317 12.7283 14.07 14.49C12.25 16.31 12.25 19.2733 14.07 21.0817L17.08 24.1033C15.1083 27.3233 14 31.08 14 35V44.3333H10.5C8.575 44.3333 7 45.9083 7 47.8333V59.5C7 61.425 8.575 63 10.5 63H15.1667H21H49H54.8333H59.5C61.425 63 63 61.425 63 59.5V47.8333C63 45.9083 61.425 44.3333 59.5 44.3333ZM50.995 16.135C51.905 15.225 53.3867 15.225 54.2967 16.135C54.7283 16.5667 54.985 17.1733 54.985 17.78C54.985 18.3867 54.74 18.9933 54.2967 19.425L51.59 22.1317C51.0533 21.4433 50.4817 20.7667 49.8633 20.1483C49.385 19.67 48.8717 19.215 48.3583 18.7833L50.995 16.135ZM35 9.33333C36.8667 9.33333 38.6283 10.0567 39.9467 11.3867C40.985 12.425 41.6617 13.7433 41.895 15.1667C39.69 14.3967 37.3683 14 34.9883 14C32.6083 14 30.2867 14.385 28.0817 15.1667C28.6533 11.8533 31.535 9.33333 35 9.33333ZM15.715 19.425C14.805 18.515 14.805 17.0333 15.715 16.1233C16.59 15.2483 18.1417 15.2483 19.0167 16.1233L21.6767 18.7833C20.4633 19.775 19.3783 20.9067 18.4217 22.1317L15.715 19.425ZM9.33333 59.5V47.8333C9.33333 47.1917 9.85833 46.6667 10.5 46.6667H14V60.6667H10.5C9.85833 60.6667 9.33333 60.1417 9.33333 59.5ZM16.3333 45.5V35C16.3333 27.6733 20.6383 21 27.3117 17.99C32.1417 15.7967 37.8467 15.7967 42.6767 17.99C44.7183 18.9 46.5733 20.1833 48.1833 21.7933C51.73 25.3283 53.6667 30.0183 53.6667 35V45.5V60.6667H50.1667V52.5C50.1667 44.135 43.365 37.3333 35 37.3333C26.635 37.3333 19.8333 44.135 19.8333 52.5V60.6667H16.3333V45.5ZM22.1667 60.6667V52.5C22.1667 45.4183 27.9183 39.6667 35 39.6667C42.0817 39.6667 47.8333 45.4183 47.8333 52.5V60.6667H22.1667ZM60.6667 59.5C60.6667 60.1417 60.1417 60.6667 59.5 60.6667H56V46.6667H59.5C60.1417 46.6667 60.6667 47.1917 60.6667 47.8333V59.5Z" fill="white"/>
<path d="M26.8327 32.6667H43.166C43.8077 32.6667 44.3327 32.1417 44.3327 31.5V30.3333C44.3327 25.1883 40.1444 21 34.9993 21C29.8543 21 25.666 25.1883 25.666 30.3333V31.5C25.666 32.1417 26.191 32.6667 26.8327 32.6667ZM34.9993 23.3333C38.861 23.3333 41.9993 26.4717 41.9993 30.3333H27.9993C27.9993 26.4717 31.1377 23.3333 34.9993 23.3333Z" fill="white"/>
</svg>
