<svg width="60" height="60" viewBox="0 0 60 60" fill="none" xmlns="http://www.w3.org/2000/svg">
<g clip-path="url(#clip0_1141_4285)">
<path d="M18.7491 25.3125C17.9653 25.3125 17.2041 25.1156 16.5169 24.7378C14.9784 25.4934 13.1447 25.4934 11.6072 24.7378C10.92 25.1156 10.1588 25.3125 9.375 25.3125C6.79031 25.3125 4.6875 23.2097 4.6875 20.625C4.6875 18.0403 6.79031 15.9375 9.375 15.9375C9.5325 15.9375 9.69188 15.9469 9.85688 15.9656C10.9191 14.7647 12.4519 14.0625 14.0625 14.0625C15.6731 14.0625 17.2059 14.7647 18.2681 15.9656C18.4322 15.9459 18.5925 15.9375 18.75 15.9375C21.3347 15.9375 23.4375 18.0403 23.4375 20.625C23.4375 23.2097 21.3337 25.3125 18.7491 25.3125ZM16.5469 22.7109C16.7419 22.7109 16.935 22.7709 17.0991 22.8909C17.5894 23.2491 18.1594 23.4375 18.7481 23.4375C20.2988 23.4375 21.5606 22.1756 21.5606 20.625C21.5606 19.0744 20.2988 17.8125 18.7481 17.8125C18.5522 17.8125 18.3394 17.8406 18.0975 17.8978C17.7263 17.9859 17.3372 17.8397 17.1159 17.5275C16.4109 16.5319 15.2681 15.9375 14.0606 15.9375C12.8531 15.9375 11.7112 16.5319 11.0053 17.5275C10.785 17.8397 10.3959 17.9869 10.0237 17.8978C9.78188 17.8397 9.56906 17.8125 9.37312 17.8125C7.8225 17.8125 6.56063 19.0744 6.56063 20.625C6.56063 22.1756 7.8225 23.4375 9.37312 23.4375C9.96187 23.4375 10.5319 23.2481 11.0222 22.8909C11.3316 22.6641 11.7478 22.65 12.0741 22.8544C13.2872 23.6175 14.8341 23.6175 16.0472 22.8544C16.2 22.7578 16.3744 22.7109 16.5469 22.7109Z" fill="white"/>
<path d="M50.6241 25.3125C49.8403 25.3125 49.0791 25.1156 48.3919 24.7378C46.8534 25.4934 45.0197 25.4934 43.4822 24.7378C42.795 25.1156 42.0338 25.3125 41.25 25.3125C38.6653 25.3125 36.5625 23.2097 36.5625 20.625C36.5625 18.0403 38.6653 15.9375 41.25 15.9375C41.4075 15.9375 41.5669 15.9469 41.7319 15.9656C42.7941 14.7647 44.3269 14.0625 45.9375 14.0625C47.5481 14.0625 49.0809 14.7647 50.1431 15.9656C50.3072 15.9459 50.4675 15.9375 50.625 15.9375C53.2097 15.9375 55.3125 18.0403 55.3125 20.625C55.3125 23.2097 53.2087 25.3125 50.6241 25.3125ZM48.4219 22.7109C48.6169 22.7109 48.81 22.7709 48.9741 22.8909C49.4644 23.2491 50.0344 23.4375 50.6231 23.4375C52.1738 23.4375 53.4356 22.1756 53.4356 20.625C53.4356 19.0744 52.1738 17.8125 50.6231 17.8125C50.4272 17.8125 50.2144 17.8406 49.9725 17.8978C49.6022 17.9859 49.2122 17.8397 48.9909 17.5275C48.2859 16.5319 47.1431 15.9375 45.9356 15.9375C44.7281 15.9375 43.5863 16.5319 42.8803 17.5275C42.66 17.8397 42.2709 17.9869 41.8988 17.8978C41.6569 17.8397 41.4441 17.8125 41.2481 17.8125C39.6975 17.8125 38.4356 19.0744 38.4356 20.625C38.4356 22.1756 39.6975 23.4375 41.2481 23.4375C41.8369 23.4375 42.4069 23.2481 42.8972 22.8909C43.2075 22.6641 43.6228 22.65 43.9491 22.8544C45.1622 23.6175 46.7091 23.6175 47.9222 22.8544C48.075 22.7578 48.2494 22.7109 48.4219 22.7109Z" fill="white"/>
<path d="M50.8118 17.8219C50.3974 17.8219 50.0187 17.5453 49.9062 17.1262C47.5052 8.14594 39.3199 1.875 29.9993 1.875C20.6787 1.875 12.4933 8.14594 10.0924 17.1262C9.95834 17.6259 9.44272 17.9222 8.94397 17.79C8.44334 17.6559 8.14615 17.1422 8.28022 16.6416C10.9005 6.84375 19.8312 0 29.9993 0C40.1674 0 49.098 6.84375 51.7183 16.6416C51.8524 17.1422 51.5552 17.6559 51.0546 17.79C50.974 17.8116 50.8924 17.8219 50.8118 17.8219Z" fill="white"/>
<path d="M46.1539 15.9516C45.7461 15.9516 45.4002 15.6947 45.2708 15.3328C42.5052 9.43219 36.5211 5.625 30.0008 5.625C23.4805 5.625 17.4673 9.45187 14.7111 15.375C14.5686 15.7125 14.2358 15.9516 13.8477 15.9516C13.3302 15.9516 12.9102 15.5363 12.9102 15.0188C12.9102 14.8828 12.9402 14.7384 12.9973 14.6147C16.0536 8.01469 22.7277 3.75 30.0008 3.75C37.2739 3.75 43.948 8.01469 47.0042 14.6147C47.0614 14.7384 47.0914 14.8725 47.0914 15.0084C47.0914 15.5259 46.6714 15.9516 46.1539 15.9516Z" fill="white"/>
<path d="M42.6558 17.3053C42.308 17.3053 41.9733 17.1112 41.8121 16.7775C39.5977 12.2109 35.0705 9.375 29.9996 9.375C24.9286 9.375 20.4015 12.2119 18.1871 16.7775C17.9611 17.2444 17.4005 17.4366 16.9346 17.2116C16.4686 16.9856 16.2746 16.425 16.5005 15.9591C19.0318 10.7409 24.2049 7.5 30.0005 7.5C35.7961 7.5 40.9693 10.7419 43.5005 15.9591C43.7265 16.425 43.5324 16.9856 43.0665 17.2116C42.9343 17.2753 42.7946 17.3053 42.6577 17.3053H42.6558Z" fill="white"/>
<path d="M39.0664 18.5147C38.7345 18.5147 38.412 18.3375 38.2423 18.0253C36.598 15.0019 33.4395 13.1241 29.9998 13.1241C26.5602 13.1241 23.4017 15.0019 21.7573 18.0253C21.5098 18.48 20.9408 18.6487 20.4861 18.4012C20.0314 18.1537 19.8627 17.5847 20.1102 17.13C22.0827 13.5028 25.872 11.25 29.9989 11.25C34.1258 11.25 37.9152 13.5028 39.8877 17.13C40.1352 17.5847 39.9664 18.1537 39.5117 18.4012C39.3702 18.4791 39.2164 18.5156 39.0645 18.5156L39.0664 18.5147Z" fill="white"/>
<path d="M59.0625 60H0.9375C0.42 60 0 59.5809 0 59.0625V55.3125C0 54.7941 0.42 54.375 0.9375 54.375H59.0625C59.58 54.375 60 54.7941 60 55.3125V59.0625C60 59.5809 59.58 60 59.0625 60ZM1.875 58.125H58.125V56.25H1.875V58.125Z" fill="white"/>
<path d="M51.5625 56.25H8.4375C7.92 56.25 7.5 55.8309 7.5 55.3125C7.5 54.7941 7.92 54.375 8.4375 54.375H51.5625C52.08 54.375 52.5 54.7941 52.5 55.3125C52.5 55.8309 52.08 56.25 51.5625 56.25Z" fill="white"/>
<path d="M8.4375 46.1914C7.92 46.1914 7.5 45.7723 7.5 45.2539V24.2539C7.5 23.7364 7.92 23.3164 8.4375 23.3164C8.955 23.3164 9.375 23.7364 9.375 24.2539V45.253C9.375 45.7714 8.955 46.1914 8.4375 46.1914Z" fill="white"/>
<path d="M51.5625 46.1914C51.045 46.1914 50.625 45.7723 50.625 45.2539V24.2539C50.625 23.7364 51.045 23.3164 51.5625 23.3164C52.08 23.3164 52.5 23.7364 52.5 24.2539V45.253C52.5 45.7714 52.08 46.1914 51.5625 46.1914Z" fill="white"/>
<path d="M36.5625 56.25H23.4375C22.92 56.25 22.5 55.8309 22.5 55.3125V41.25C22.5 37.1147 25.8647 33.75 30 33.75C34.1353 33.75 37.5 37.1147 37.5 41.25V55.3125C37.5 55.8309 37.08 56.25 36.5625 56.25ZM24.375 54.375H35.625V41.25C35.625 38.1478 33.1022 35.625 30 35.625C26.8978 35.625 24.375 38.1478 24.375 41.25V54.375Z" fill="white"/>
<path d="M32.8125 46.875H31.875C31.3575 46.875 30.9375 46.4559 30.9375 45.9375C30.9375 45.4191 31.3575 45 31.875 45H32.8125C33.33 45 33.75 45.4191 33.75 45.9375C33.75 46.4559 33.33 46.875 32.8125 46.875Z" fill="white"/>
<path d="M47.8125 40.3125H40.3125C39.795 40.3125 39.375 39.8934 39.375 39.375V31.875C39.375 31.3566 39.795 30.9375 40.3125 30.9375H47.8125C48.33 30.9375 48.75 31.3566 48.75 31.875V39.375C48.75 39.8934 48.33 40.3125 47.8125 40.3125ZM41.25 38.4375H46.875V32.8125H41.25V38.4375Z" fill="white"/>
<path d="M19.6875 40.3125H12.1875C11.67 40.3125 11.25 39.8934 11.25 39.375V31.875C11.25 31.3566 11.67 30.9375 12.1875 30.9375H19.6875C20.205 30.9375 20.625 31.3566 20.625 31.875V39.375C20.625 39.8934 20.205 40.3125 19.6875 40.3125ZM13.125 38.4375H18.75V32.8125H13.125V38.4375Z" fill="white"/>
<path d="M30 30.9375C28.5347 30.9375 27.1491 30.2306 26.2697 29.0625H23.4375C22.92 29.0625 22.5 28.6425 22.5 28.125V24.375C22.5 23.8575 22.92 23.4375 23.4375 23.4375H26.2697C27.15 22.2694 28.5347 21.5625 30 21.5625C31.4653 21.5625 32.8509 22.2694 33.7303 23.4375H36.5625C37.08 23.4375 37.5 23.8575 37.5 24.375V28.125C37.5 28.6425 37.08 29.0625 36.5625 29.0625H33.7303C32.85 30.2306 31.4653 30.9375 30 30.9375ZM24.375 27.1875H26.7703C27.1041 27.1875 27.4125 27.3647 27.5803 27.6534C28.0941 28.5356 28.9988 29.0625 30 29.0625C31.0013 29.0625 31.9059 28.5356 32.4197 27.6534C32.5875 27.3647 32.8959 27.1875 33.2297 27.1875H35.625V25.3125H33.2297C32.8959 25.3125 32.5875 25.1353 32.4197 24.8466C31.9059 23.9644 31.0013 23.4375 30 23.4375C28.9988 23.4375 28.0941 23.9644 27.5803 24.8466C27.4125 25.1353 27.1041 25.3125 26.7703 25.3125H24.375V27.1875Z" fill="white"/>
<path d="M5.625 56.25H1.875C1.3575 56.25 0.9375 55.8309 0.9375 55.3125V46.875C0.9375 45.3244 2.19937 44.0625 3.75 44.0625C5.30062 44.0625 6.5625 45.3244 6.5625 46.875V55.3125C6.5625 55.8309 6.1425 56.25 5.625 56.25ZM2.8125 54.375H4.6875V46.875C4.6875 46.3575 4.26656 45.9375 3.75 45.9375C3.23344 45.9375 2.8125 46.3575 2.8125 46.875V54.375Z" fill="white"/>
<path d="M9.375 56.25H5.625C5.1075 56.25 4.6875 55.8309 4.6875 55.3125V46.875C4.6875 45.3244 5.94937 44.0625 7.5 44.0625C9.05062 44.0625 10.3125 45.3244 10.3125 46.875V55.3125C10.3125 55.8309 9.8925 56.25 9.375 56.25ZM6.5625 54.375H8.4375V46.875C8.4375 46.3575 8.01656 45.9375 7.5 45.9375C6.98344 45.9375 6.5625 46.3575 6.5625 46.875V54.375Z" fill="white"/>
<path d="M13.125 56.25H9.375C8.8575 56.25 8.4375 55.8309 8.4375 55.3125V46.875C8.4375 45.3244 9.69937 44.0625 11.25 44.0625C12.8006 44.0625 14.0625 45.3244 14.0625 46.875V55.3125C14.0625 55.8309 13.6425 56.25 13.125 56.25ZM10.3125 54.375H12.1875V46.875C12.1875 46.3575 11.7666 45.9375 11.25 45.9375C10.7334 45.9375 10.3125 46.3575 10.3125 46.875V54.375Z" fill="white"/>
<path d="M16.875 56.25H13.125C12.6075 56.25 12.1875 55.8309 12.1875 55.3125V46.875C12.1875 45.3244 13.4494 44.0625 15 44.0625C16.5506 44.0625 17.8125 45.3244 17.8125 46.875V55.3125C17.8125 55.8309 17.3925 56.25 16.875 56.25ZM14.0625 54.375H15.9375V46.875C15.9375 46.3575 15.5166 45.9375 15 45.9375C14.4834 45.9375 14.0625 46.3575 14.0625 46.875V54.375Z" fill="white"/>
<path d="M20.625 56.25H16.875C16.3575 56.25 15.9375 55.8309 15.9375 55.3125V46.875C15.9375 45.3244 17.1994 44.0625 18.75 44.0625C20.3006 44.0625 21.5625 45.3244 21.5625 46.875V55.3125C21.5625 55.8309 21.1425 56.25 20.625 56.25ZM17.8125 54.375H19.6875V46.875C19.6875 46.3575 19.2666 45.9375 18.75 45.9375C18.2334 45.9375 17.8125 46.3575 17.8125 46.875V54.375Z" fill="white"/>
<path d="M43.125 56.25H39.375C38.8575 56.25 38.4375 55.8309 38.4375 55.3125V46.875C38.4375 45.3244 39.6994 44.0625 41.25 44.0625C42.8006 44.0625 44.0625 45.3244 44.0625 46.875V55.3125C44.0625 55.8309 43.6425 56.25 43.125 56.25ZM40.3125 54.375H42.1875V46.875C42.1875 46.3575 41.7666 45.9375 41.25 45.9375C40.7334 45.9375 40.3125 46.3575 40.3125 46.875V54.375Z" fill="white"/>
<path d="M46.875 56.25H43.125C42.6075 56.25 42.1875 55.8309 42.1875 55.3125V46.875C42.1875 45.3244 43.4494 44.0625 45 44.0625C46.5506 44.0625 47.8125 45.3244 47.8125 46.875V55.3125C47.8125 55.8309 47.3925 56.25 46.875 56.25ZM44.0625 54.375H45.9375V46.875C45.9375 46.3575 45.5166 45.9375 45 45.9375C44.4834 45.9375 44.0625 46.3575 44.0625 46.875V54.375Z" fill="white"/>
<path d="M50.625 56.25H46.875C46.3575 56.25 45.9375 55.8309 45.9375 55.3125V46.875C45.9375 45.3244 47.1994 44.0625 48.75 44.0625C50.3006 44.0625 51.5625 45.3244 51.5625 46.875V55.3125C51.5625 55.8309 51.1425 56.25 50.625 56.25ZM47.8125 54.375H49.6875V46.875C49.6875 46.3575 49.2666 45.9375 48.75 45.9375C48.2334 45.9375 47.8125 46.3575 47.8125 46.875V54.375Z" fill="white"/>
<path d="M54.375 56.25H50.625C50.1075 56.25 49.6875 55.8309 49.6875 55.3125V46.875C49.6875 45.3244 50.9494 44.0625 52.5 44.0625C54.0506 44.0625 55.3125 45.3244 55.3125 46.875V55.3125C55.3125 55.8309 54.8925 56.25 54.375 56.25ZM51.5625 54.375H53.4375V46.875C53.4375 46.3575 53.0166 45.9375 52.5 45.9375C51.9834 45.9375 51.5625 46.3575 51.5625 46.875V54.375Z" fill="white"/>
<path d="M58.125 56.25H54.375C53.8575 56.25 53.4375 55.8309 53.4375 55.3125V46.875C53.4375 45.3244 54.6994 44.0625 56.25 44.0625C57.8006 44.0625 59.0625 45.3244 59.0625 46.875V55.3125C59.0625 55.8309 58.6425 56.25 58.125 56.25ZM55.3125 54.375H57.1875V46.875C57.1875 46.3575 56.7666 45.9375 56.25 45.9375C55.7334 45.9375 55.3125 46.3575 55.3125 46.875V54.375Z" fill="white"/>
</g>
<defs>
<clipPath id="clip0_1141_4285">
<rect width="60" height="60" fill="white"/>
</clipPath>
</defs>
</svg>
