<svg width="64" height="64" viewBox="0 0 64 64" fill="none" xmlns="http://www.w3.org/2000/svg">
<path d="M29 11C29 10.2043 29.3161 9.44129 29.8787 8.87868C30.4413 8.31607 31.2044 8 32 8C32.7956 8 33.5587 8.31607 34.1213 8.87868C34.6839 9.44129 35 10.2043 35 11C35 11.2652 34.8946 11.5196 34.7071 11.7071C34.5196 11.8946 34.2652 12 34 12C33.7348 12 33.4804 11.8946 33.2929 11.7071C33.1054 11.5196 33 11.2652 33 11C33 10.7348 32.8946 10.4804 32.7071 10.2929C32.5196 10.1054 32.2652 10 32 10C31.7348 10 31.4804 10.1054 31.2929 10.2929C31.1054 10.4804 31 10.7348 31 11C31 11.2652 30.8946 11.5196 30.7071 11.7071C30.5196 11.8946 30.2652 12 30 12C29.7348 12 29.4804 11.8946 29.2929 11.7071C29.1054 11.5196 29 11.2652 29 11ZM25 17C25.2652 17 25.5196 16.8946 25.7071 16.7071C25.8946 16.5196 26 16.2652 26 16C26 15.7348 26.1054 15.4804 26.2929 15.2929C26.4804 15.1054 26.7348 15 27 15C27.2652 15 27.5196 15.1054 27.7071 15.2929C27.8946 15.4804 28 15.7348 28 16C28 16.2652 28.1054 16.5196 28.2929 16.7071C28.4804 16.8946 28.7348 17 29 17C29.2652 17 29.5196 16.8946 29.7071 16.7071C29.8946 16.5196 30 16.2652 30 16C30 15.2044 29.6839 14.4413 29.1213 13.8787C28.5587 13.3161 27.7956 13 27 13C26.2044 13 25.4413 13.3161 24.8787 13.8787C24.3161 14.4413 24 15.2044 24 16C24 16.2652 24.1054 16.5196 24.2929 16.7071C24.4804 16.8946 24.7348 17 25 17ZM34 16C34 16.2652 34.1054 16.5196 34.2929 16.7071C34.4804 16.8946 34.7348 17 35 17C35.2652 17 35.5196 16.8946 35.7071 16.7071C35.8946 16.5196 36 16.2652 36 16C36 15.7348 36.1054 15.4804 36.2929 15.2929C36.4804 15.1054 36.7348 15 37 15C37.2652 15 37.5196 15.1054 37.7071 15.2929C37.8946 15.4804 38 15.7348 38 16C38 16.2652 38.1054 16.5196 38.2929 16.7071C38.4804 16.8946 38.7348 17 39 17C39.2652 17 39.5196 16.8946 39.7071 16.7071C39.8946 16.5196 40 16.2652 40 16C40 15.2044 39.6839 14.4413 39.1213 13.8787C38.5587 13.3161 37.7956 13 37 13C36.2044 13 35.4413 13.3161 34.8787 13.8787C34.3161 14.4413 34 15.2044 34 16ZM54 58H56C56.2652 58 56.5196 58.1054 56.7071 58.2929C56.8946 58.4804 57 58.7348 57 59C57 59.2652 56.8946 59.5196 56.7071 59.7071C56.5196 59.8946 56.2652 60 56 60H8C7.73478 60 7.48043 59.8946 7.29289 59.7071C7.10536 59.5196 7 59.2652 7 59C7 58.7348 7.10536 58.4804 7.29289 58.2929C7.48043 58.1054 7.73478 58 8 58H10V34C9.20435 34 8.44129 33.6839 7.87868 33.1213C7.31607 32.5587 7 31.7956 7 31V29C7 28.2044 7.31607 27.4413 7.87868 26.8787C8.44129 26.3161 9.20435 26 10 26H10.38L13 20.76C13.4156 19.9305 14.0539 19.2331 14.8433 18.7456C15.6327 18.2582 16.5422 18 17.47 18H19.05C19.05 17.67 19 17.34 19 17C19 13.5522 20.3696 10.2456 22.8076 7.80761C25.2456 5.36964 28.5522 4 32 4C35.4478 4 38.7544 5.36964 41.1924 7.80761C43.6304 10.2456 45 13.5522 45 17C45 17.34 45 17.67 45 18H46.58C47.4993 18.0092 48.3982 18.2718 49.178 18.7587C49.9578 19.2456 50.5882 19.9381 51 20.76L53.62 26H54C54.7957 26 55.5587 26.3161 56.1213 26.8787C56.6839 27.4413 57 28.2044 57 29V31C57 31.7956 56.6839 32.5587 56.1213 33.1213C55.5587 33.6839 54.7957 34 54 34V58ZM52 51H45C44.8712 50.9979 44.7433 51.0226 44.6245 51.0725C44.5058 51.1224 44.3987 51.1965 44.31 51.29C44.2137 51.3818 44.1367 51.4918 44.0835 51.6138C44.0302 51.7357 44.0019 51.867 44 52C44 52.2652 44.1054 52.5196 44.2929 52.7071C44.4804 52.8946 44.7348 53 45 53H52V51ZM44.64 20C44.0971 22.2551 42.9652 24.3257 41.36 26H51.36L49.2 21.66C48.9521 21.1634 48.5712 20.7453 48.0999 20.4522C47.6285 20.1592 47.085 20.0026 46.53 20H44.64ZM21 17C21 19.1756 21.6451 21.3023 22.8538 23.1113C24.0625 24.9202 25.7805 26.3301 27.7905 27.1627C29.8005 27.9952 32.0122 28.2131 34.146 27.7886C36.2798 27.3642 38.2398 26.3166 39.7782 24.7782C41.3166 23.2398 42.3642 21.2798 42.7886 19.146C43.2131 17.0122 42.9952 14.8005 42.1627 12.7905C41.3301 10.7805 39.9202 9.06253 38.1113 7.85383C36.3023 6.64514 34.1756 6 32 6C29.0826 6 26.2847 7.15893 24.2218 9.22183C22.1589 11.2847 21 14.0826 21 17ZM12.62 26H22.62C21.0148 24.3257 19.8829 22.2551 19.34 20H17.47C16.9116 19.9989 16.3639 20.1537 15.8886 20.447C15.4134 20.7402 15.0294 21.1604 14.78 21.66L12.62 26ZM10 32H54C54.2652 32 54.5196 31.8946 54.7071 31.7071C54.8946 31.5196 55 31.2652 55 31V29C55 28.7348 54.8946 28.4804 54.7071 28.2929C54.5196 28.1054 54.2652 28 54 28H38.9C36.8358 29.3067 34.443 30.0005 32 30.0005C29.557 30.0005 27.1642 29.3067 25.1 28H10C9.73478 28 9.48043 28.1054 9.29289 28.2929C9.10536 28.4804 9 28.7348 9 29V31C9 31.2652 9.10536 31.5196 9.29289 31.7071C9.48043 31.8946 9.73478 32 10 32ZM12 53H19C19.1288 53.0021 19.2567 52.9774 19.3755 52.9275C19.4942 52.8776 19.6014 52.8035 19.69 52.71C19.7863 52.6182 19.8633 52.5082 19.9165 52.3862C19.9698 52.2643 19.9982 52.133 20 52C20 51.7348 19.8946 51.4804 19.7071 51.2929C19.5196 51.1054 19.2652 51 19 51H12V53ZM52 58V55H45C44.2043 55 43.4413 54.6839 42.8787 54.1213C42.3161 53.5587 42 52.7957 42 52C42 51.2043 42.3161 50.4413 42.8787 49.8787C43.4413 49.3161 44.2043 49 45 49H52V34H12V49H19C19.7956 49 20.5587 49.3161 21.1213 49.8787C21.6839 50.4413 22 51.2043 22 52C22 52.7957 21.6839 53.5587 21.1213 54.1213C20.5587 54.6839 19.7956 55 19 55H12V58H26V53C26 52.2043 26.3161 51.4413 26.8787 50.8787C27.4413 50.3161 28.2044 50 29 50H35C35.7956 50 36.5587 50.3161 37.1213 50.8787C37.6839 51.4413 38 52.2043 38 53V58H52ZM36 41V43C36 43.7957 35.6839 44.5587 35.1213 45.1213C34.5587 45.6839 33.7956 46 33 46H31C30.2044 46 29.4413 45.6839 28.8787 45.1213C28.3161 44.5587 28 43.7957 28 43V41C28 40.2043 28.3161 39.4413 28.8787 38.8787C29.4413 38.3161 30.2044 38 31 38H33C33.7956 38 34.5587 38.3161 35.1213 38.8787C35.6839 39.4413 36 40.2043 36 41ZM24 41V43C24 43.7957 23.6839 44.5587 23.1213 45.1213C22.5587 45.6839 21.7956 46 21 46H19C18.2044 46 17.4413 45.6839 16.8787 45.1213C16.3161 44.5587 16 43.7957 16 43V41C16 40.2043 16.3161 39.4413 16.8787 38.8787C17.4413 38.3161 18.2044 38 19 38H21C21.7956 38 22.5587 38.3161 23.1213 38.8787C23.6839 39.4413 24 40.2043 24 41ZM43 46C42.2043 46 41.4413 45.6839 40.8787 45.1213C40.3161 44.5587 40 43.7957 40 43V41C40 40.2043 40.3161 39.4413 40.8787 38.8787C41.4413 38.3161 42.2043 38 43 38H45C45.7957 38 46.5587 38.3161 47.1213 38.8787C47.6839 39.4413 48 40.2043 48 41V43C48 43.7957 47.6839 44.5587 47.1213 45.1213C46.5587 45.6839 45.7957 46 45 46H43Z" fill="white"/>
</svg>
