<svg width="54" height="54" viewBox="0 0 54 54" fill="none" xmlns="http://www.w3.org/2000/svg">
<path d="M48.8099 20.8988H35.6346V15.5121C35.6347 15.3856 35.6063 15.2607 35.5515 15.1467C35.4967 15.0326 35.417 14.9324 35.3182 14.8534L27.8464 8.8756V7.32057L30.7838 7.33744C31.0077 7.33621 31.2221 7.24707 31.3809 7.08925C31.5396 6.93142 31.63 6.71754 31.6325 6.49369V4.21875C31.6326 4.10794 31.6108 3.99821 31.5684 3.89583C31.526 3.79344 31.4638 3.70042 31.3855 3.62206C31.3071 3.54371 31.2141 3.48156 31.1117 3.43917C31.0093 3.39677 30.8996 3.37497 30.7888 3.375H27.0026C26.8918 3.37497 26.7821 3.39678 26.6797 3.43917C26.5773 3.48156 26.4843 3.54371 26.4059 3.62206C26.3276 3.70042 26.2654 3.79345 26.223 3.89583C26.1806 3.99821 26.1588 4.10794 26.1589 4.21875V8.8756L18.6871 14.8534C18.5883 14.9324 18.5085 15.0326 18.4537 15.1467C18.399 15.2607 18.3706 15.3856 18.3707 15.5121V20.8988H5.19531C5.0845 20.8988 4.97477 20.9206 4.87239 20.963C4.77001 21.0054 4.67698 21.0676 4.59863 21.1459C4.52027 21.2243 4.45812 21.3173 4.41573 21.4197C4.37334 21.5221 4.35153 21.6318 4.35156 21.7426V49.7812C4.35153 49.8921 4.37334 50.0018 4.41573 50.1042C4.45812 50.2066 4.52027 50.2996 4.59862 50.3779C4.67698 50.4563 4.77001 50.5184 4.87239 50.5608C4.97477 50.6032 5.0845 50.625 5.19531 50.625C13.9501 50.5808 48.8099 50.625 48.8099 50.625C48.9207 50.625 49.0305 50.6032 49.1329 50.5608C49.2352 50.5184 49.3283 50.4563 49.4066 50.3779C49.485 50.2996 49.5471 50.2066 49.5895 50.1042C49.6319 50.0018 49.6537 49.8921 49.6537 49.7812V21.7426C49.6537 21.6318 49.6319 21.5221 49.5895 21.4197C49.5471 21.3173 49.485 21.2243 49.4066 21.1459C49.3283 21.0676 49.2352 21.0054 49.1329 20.963C49.0305 20.9206 48.9207 20.8988 48.8099 20.8988ZM27.8464 5.0625H29.945V5.64505L27.8464 5.6331V5.0625ZM6.03906 22.5863H18.3707V48.9375H6.03906V22.5863ZM20.0582 15.9175L27.0026 10.3619L33.9471 15.9175C33.9416 19.4091 33.951 44.815 33.9471 48.9375H30.6265V41.6869C30.6265 41.5761 30.6047 41.4664 30.5623 41.364C30.5199 41.2616 30.4578 41.1686 30.3794 41.0902C30.301 41.0119 30.208 40.9497 30.1056 40.9074C30.0033 40.865 29.8935 40.8432 29.7827 40.8432H24.2225C24.1117 40.8432 24.002 40.865 23.8996 40.9074C23.7972 40.9497 23.7042 41.0119 23.6258 41.0902C23.5475 41.1686 23.4853 41.2616 23.4429 41.364C23.4006 41.4664 23.3788 41.5761 23.3788 41.6869V48.9375H20.0582V15.9175ZM25.0663 48.9375V42.5307H28.939V48.9375H25.0663ZM47.9662 48.9375H35.6346V22.5863H47.9662V48.9375Z" fill="#FF6D1C"/>
<path d="M14.8877 24.793H9.51953C9.40872 24.7929 9.29899 24.8147 9.19661 24.8571C9.09423 24.8995 9.0012 24.9617 8.92285 25.04C8.84449 25.1184 8.78234 25.2114 8.73995 25.3138C8.69756 25.4162 8.67575 25.5259 8.67578 25.6367V30.3095C8.67575 30.4203 8.69756 30.53 8.73995 30.6324C8.78234 30.7348 8.84449 30.8278 8.92285 30.9062C9.0012 30.9845 9.09423 31.0467 9.19661 31.0891C9.29899 31.1314 9.40872 31.1533 9.51953 31.1532H14.8877C14.9985 31.1533 15.1083 31.1314 15.2107 31.0891C15.313 31.0467 15.4061 30.9845 15.4844 30.9062C15.5628 30.8278 15.6249 30.7348 15.6673 30.6324C15.7097 30.53 15.7315 30.4203 15.7315 30.3095V25.6367C15.7315 25.5259 15.7097 25.4162 15.6673 25.3138C15.6249 25.2114 15.5628 25.1184 15.4844 25.04C15.4061 24.9617 15.313 24.8995 15.2107 24.8571C15.1083 24.8147 14.9985 24.7929 14.8877 24.793ZM14.044 29.4657H10.3633V26.4805H14.044V29.4657Z" fill="#FF6D1C"/>
<path d="M14.8877 32.582H9.51953C9.40872 32.582 9.29899 32.6038 9.19661 32.6462C9.09423 32.6886 9.0012 32.7507 8.92285 32.8291C8.84449 32.9075 8.78234 33.0005 8.73995 33.1029C8.69756 33.2052 8.67575 33.315 8.67578 33.4258V38.099C8.67575 38.2098 8.69756 38.3195 8.73995 38.4219C8.78234 38.5243 8.84449 38.6173 8.92285 38.6956C9.0012 38.774 9.09423 38.8361 9.19661 38.8785C9.29899 38.9209 9.40872 38.9427 9.51953 38.9427H14.8877C14.9985 38.9427 15.1083 38.9209 15.2107 38.8785C15.313 38.8361 15.4061 38.774 15.4844 38.6956C15.5628 38.6173 15.6249 38.5243 15.6673 38.4219C15.7097 38.3195 15.7315 38.2098 15.7315 38.099V33.4258C15.7315 33.315 15.7097 33.2052 15.6673 33.1029C15.6249 33.0005 15.5628 32.9075 15.4844 32.8291C15.4061 32.7507 15.313 32.6886 15.2107 32.6462C15.1083 32.6038 14.9985 32.582 14.8877 32.582ZM14.044 37.2552H10.3633V34.2695H14.044V37.2552Z" fill="#FF6D1C"/>
<path d="M14.8877 40.3711H9.51953C9.40872 40.3711 9.29899 40.3929 9.19661 40.4353C9.09423 40.4777 9.0012 40.5398 8.92285 40.6182C8.84449 40.6965 8.78234 40.7895 8.73995 40.8919C8.69756 40.9943 8.67575 41.104 8.67578 41.2148V45.888C8.67575 45.9988 8.69756 46.1086 8.73995 46.2109C8.78234 46.3133 8.84449 46.4064 8.92285 46.4847C9.0012 46.5631 9.09423 46.6252 9.19661 46.6676C9.29899 46.71 9.40872 46.7318 9.51953 46.7318H14.8877C14.9985 46.7318 15.1083 46.71 15.2107 46.6676C15.313 46.6252 15.4061 46.5631 15.4844 46.4847C15.5628 46.4064 15.6249 46.3133 15.6673 46.2109C15.7097 46.1086 15.7315 45.9988 15.7315 45.888V41.2148C15.7315 41.104 15.7097 40.9943 15.6673 40.8919C15.6249 40.7895 15.5628 40.6965 15.4844 40.6182C15.4061 40.5398 15.313 40.4777 15.2107 40.4353C15.1083 40.3929 14.9985 40.3711 14.8877 40.3711ZM14.044 45.0443H10.3633V42.0586H14.044V45.0443Z" fill="#FF6D1C"/>
<path d="M29.6854 24.793H24.3164C24.2056 24.7929 24.0959 24.8147 23.9935 24.8571C23.8911 24.8995 23.7981 24.9617 23.7197 25.04C23.6414 25.1184 23.5792 25.2114 23.5368 25.3138C23.4944 25.4162 23.4726 25.5259 23.4727 25.6367V30.3095C23.4726 30.4203 23.4944 30.53 23.5368 30.6324C23.5792 30.7348 23.6414 30.8278 23.7197 30.9062C23.7981 30.9845 23.8911 31.0467 23.9935 31.0891C24.0959 31.1314 24.2056 31.1533 24.3164 31.1532H29.6854C29.7962 31.1533 29.906 31.1315 30.0083 31.0891C30.1107 31.0467 30.2038 30.9845 30.2821 30.9062C30.3605 30.8278 30.4226 30.7348 30.465 30.6324C30.5074 30.53 30.5292 30.4203 30.5292 30.3095V25.6367C30.5292 25.5259 30.5074 25.4162 30.465 25.3138C30.4226 25.2114 30.3605 25.1184 30.2821 25.04C30.2038 24.9617 30.1107 24.8995 30.0083 24.8571C29.906 24.8147 29.7962 24.7929 29.6854 24.793ZM28.8417 29.4657H25.1602V26.4805H28.8417V29.4657Z" fill="#FF6D1C"/>
<path d="M29.6854 32.582H24.3164C24.2056 32.582 24.0959 32.6038 23.9935 32.6462C23.8911 32.6886 23.7981 32.7507 23.7197 32.8291C23.6414 32.9075 23.5792 33.0005 23.5368 33.1029C23.4944 33.2052 23.4726 33.315 23.4727 33.4258V38.099C23.4726 38.2098 23.4944 38.3195 23.5368 38.4219C23.5792 38.5243 23.6414 38.6173 23.7197 38.6956C23.7981 38.774 23.8911 38.8361 23.9935 38.8785C24.0959 38.9209 24.2056 38.9427 24.3164 38.9427H29.6854C29.7962 38.9427 29.906 38.9209 30.0083 38.8785C30.1107 38.8361 30.2038 38.774 30.2821 38.6956C30.3605 38.6173 30.4226 38.5243 30.465 38.4219C30.5074 38.3195 30.5292 38.2098 30.5292 38.099V33.4258C30.5292 33.315 30.5074 33.2052 30.465 33.1029C30.4226 33.0005 30.3605 32.9075 30.2821 32.8291C30.2038 32.7507 30.1107 32.6886 30.0083 32.6462C29.906 32.6038 29.7962 32.582 29.6854 32.582ZM28.8417 37.2552H25.1602V34.2695H28.8417V37.2552Z" fill="#FF6D1C"/>
<path d="M39.1133 31.1532H44.4815C44.5923 31.1533 44.702 31.1314 44.8044 31.0891C44.9068 31.0467 44.9998 30.9845 45.0782 30.9062C45.1565 30.8278 45.2187 30.7348 45.2611 30.6324C45.3035 30.53 45.3253 30.4203 45.3252 30.3095V25.6367C45.3253 25.5259 45.3035 25.4162 45.2611 25.3138C45.2187 25.2114 45.1565 25.1184 45.0782 25.04C44.9998 24.9617 44.9068 24.8995 44.8044 24.8571C44.702 24.8147 44.5923 24.7929 44.4815 24.793H39.1133C39.0025 24.7929 38.8927 24.8147 38.7904 24.8571C38.688 24.8995 38.595 24.9617 38.5166 25.04C38.4382 25.1184 38.3761 25.2114 38.3337 25.3138C38.2913 25.4162 38.2695 25.5259 38.2695 25.6367V30.3095C38.2695 30.4203 38.2913 30.53 38.3337 30.6324C38.3761 30.7348 38.4382 30.8278 38.5166 30.9062C38.595 30.9845 38.688 31.0467 38.7904 31.0891C38.8927 31.1314 39.0025 31.1533 39.1133 31.1532ZM39.957 26.4805H43.6377V29.4657H39.957V26.4805Z" fill="#FF6D1C"/>
<path d="M39.1133 38.9427H44.4815C44.5923 38.9427 44.702 38.9209 44.8044 38.8785C44.9068 38.8361 44.9998 38.774 45.0782 38.6956C45.1565 38.6173 45.2187 38.5243 45.2611 38.4219C45.3035 38.3195 45.3253 38.2098 45.3252 38.099V33.4258C45.3253 33.315 45.3035 33.2052 45.2611 33.1029C45.2187 33.0005 45.1565 32.9075 45.0782 32.8291C44.9998 32.7507 44.9068 32.6886 44.8044 32.6462C44.702 32.6038 44.5923 32.582 44.4815 32.582H39.1133C39.0025 32.582 38.8927 32.6038 38.7904 32.6462C38.688 32.6886 38.595 32.7507 38.5166 32.8291C38.4382 32.9075 38.3761 33.0005 38.3337 33.1029C38.2913 33.2052 38.2695 33.315 38.2695 33.4258V38.099C38.2695 38.2098 38.2913 38.3195 38.3337 38.4219C38.3761 38.5243 38.4382 38.6173 38.5166 38.6956C38.595 38.774 38.688 38.8361 38.7904 38.8785C38.8927 38.9209 39.0025 38.9427 39.1133 38.9427ZM39.957 34.2695H43.6377V37.2552H39.957V34.2695Z" fill="#FF6D1C"/>
<path d="M39.1133 46.7318H44.4815C44.5923 46.7318 44.702 46.71 44.8044 46.6676C44.9068 46.6252 44.9998 46.5631 45.0782 46.4847C45.1565 46.4064 45.2187 46.3133 45.2611 46.2109C45.3035 46.1086 45.3253 45.9988 45.3252 45.888V41.2148C45.3253 41.104 45.3035 40.9943 45.2611 40.8919C45.2187 40.7895 45.1565 40.6965 45.0782 40.6182C44.9998 40.5398 44.9068 40.4777 44.8044 40.4353C44.702 40.3929 44.5923 40.3711 44.4815 40.3711H39.1133C39.0025 40.3711 38.8927 40.3929 38.7904 40.4353C38.688 40.4777 38.595 40.5398 38.5166 40.6182C38.4382 40.6965 38.3761 40.7895 38.3337 40.8919C38.2913 40.9943 38.2695 41.104 38.2695 41.2148V45.888C38.2695 45.9988 38.2913 46.1086 38.3337 46.2109C38.3761 46.3133 38.4382 46.4064 38.5166 46.4847C38.595 46.5631 38.688 46.6252 38.7904 46.6676C38.8927 46.71 39.0025 46.7318 39.1133 46.7318ZM39.957 42.0586H43.6377V45.0443H39.957V42.0586Z" fill="#FF6D1C"/>
<path d="M27.0025 23.2563C33.1214 23.0617 33.1196 14.19 27.0024 13.9961C20.8841 14.1909 20.8851 23.0627 27.0025 23.2563ZM27.0025 15.6836C27.7772 15.6924 28.5171 16.0063 29.0618 16.5572C29.6064 17.1081 29.9119 17.8516 29.9119 18.6263C29.9119 19.401 29.6064 20.1444 29.0617 20.6953C28.517 21.2462 27.7771 21.56 27.0024 21.5688C26.2278 21.56 25.4879 21.2461 24.9432 20.6952C24.3986 20.1443 24.0931 19.4009 24.0931 18.6262C24.0931 17.8515 24.3986 17.108 24.9433 16.5572C25.488 16.0063 26.2279 15.6924 27.0025 15.6836Z" fill="#FF6D1C"/>
<path d="M25.7259 19.4713H27.0022C27.1131 19.4713 27.2228 19.4495 27.3252 19.4071C27.4275 19.3647 27.5206 19.3026 27.5989 19.2242C27.6773 19.1458 27.7394 19.0528 27.7818 18.9504C27.8242 18.8481 27.846 18.7383 27.846 18.6275V16.7727C27.8417 16.5518 27.7509 16.3414 27.5931 16.1867C27.4353 16.032 27.2232 15.9453 27.0022 15.9453C26.7812 15.9453 26.5691 16.032 26.4113 16.1867C26.2536 16.3414 26.1628 16.5519 26.1585 16.7728V17.7838H25.7259C25.505 17.7881 25.2945 17.8789 25.1398 18.0366C24.9851 18.1944 24.8984 18.4065 24.8984 18.6275C24.8984 18.8485 24.9851 19.0606 25.1398 19.2184C25.2945 19.3762 25.505 19.467 25.7259 19.4713Z" fill="#FF6D1C"/>
</svg>
