<svg width="58" height="44" viewBox="0 0 58 44" fill="none" xmlns="http://www.w3.org/2000/svg">
<path d="M25.5254 0.154697C24.4425 -2.36283e-06 23.5143 0 22.4314 0C21.5032 0 20.4203 -2.36283e-06 19.4921 0.154697C18.7186 0.309396 18.0998 0.4641 17.481 0.618799C17.0169 0.773499 16.5528 1.08289 16.0887 1.54699C15.6246 2.01109 15.3152 2.32049 15.0058 2.78459L5.25977 17.1716C4.33158 18.5639 3.55808 19.9562 2.78459 21.3485C2.16579 22.7408 1.54699 24.1331 1.23759 25.5254C0.773495 27.0724 0.464093 28.6194 0.309394 30.1664C0.154695 31.868 0 33.7244 0 35.4261C0 36.8184 0.154698 38.2107 0.464097 39.603C0.773495 40.5312 1.23759 41.3047 2.01109 41.9235C2.78459 42.5423 3.86748 42.8517 4.79567 43.0064C6.18797 43.1611 7.58026 43.3158 8.97256 43.3158C10.3648 43.3158 11.9118 43.3158 13.3041 43.0064C14.387 42.8517 15.3152 42.5423 16.0887 41.9235C16.8622 41.3047 17.481 40.5312 17.7904 39.603C18.2545 38.2107 18.4092 36.8184 18.4092 35.4261V23.669L27.6912 3.09398C27.8459 2.62989 28.0006 2.16579 28.0006 1.70169C28.0006 1.23759 27.6912 0.928198 27.3818 0.618799C26.763 0.309401 26.1442 0.154697 25.5254 0.154697Z" fill="#FF6D1C"/>
<path d="M57.0849 0.773496C56.6208 0.464098 56.002 0.309396 55.2285 0.154697C54.1456 -2.36283e-06 53.2174 0 52.1345 0C51.0516 0 50.1234 -2.36283e-06 49.0405 0.154697C48.267 0.309396 47.6482 0.4641 47.0294 0.618799C46.5654 0.773499 46.1013 1.08289 45.6372 1.54699C45.1731 2.01109 44.8636 2.32049 44.5543 2.78459L34.9629 17.1716C34.0347 18.5639 33.2612 19.9562 32.4877 21.3485C31.8689 22.7408 31.2501 24.1331 30.9407 25.5254C30.4766 27.0724 30.1672 28.6194 30.0125 30.1664C29.8578 31.868 29.7031 33.7244 29.7031 35.4261C29.7031 36.8184 29.8578 38.2107 30.1672 39.603C30.4766 40.5312 30.9407 41.3047 31.7142 41.9235C32.4877 42.5423 33.5706 42.8517 34.4988 43.0064C35.8911 43.1611 37.2834 43.3158 38.6757 43.3158C40.068 43.3158 41.4603 43.3158 43.0073 43.0064C44.0902 42.8517 45.173 42.5423 46.1012 41.9235C46.8747 41.3047 47.4935 40.5312 47.8029 39.603C48.267 38.2107 48.4217 36.8184 48.4217 35.4261V23.669L57.2396 3.09398C57.3943 2.62989 57.549 2.16579 57.549 1.70169C57.549 1.23759 57.3943 0.928195 57.0849 0.773496Z" fill="#FF6D1C"/>
</svg>
