<svg width="172" height="68" viewBox="0 0 172 68" fill="none" xmlns="http://www.w3.org/2000/svg">
<path d="M34.1055 23.52C34.1855 23.96 33.8655 24.32 33.4255 24.36C30.1855 24.76 27.3055 25.36 24.7455 26.12C21.7055 39.44 18.4655 54.48 17.7055 58C16.6255 63.08 14.4655 66.28 11.6655 66.96C11.2655 67.04 10.8655 67.08 10.5055 67.08C8.66547 67.08 6.86547 66.12 5.30547 64.24C1.98547 60.2 0.625469 50.76 4.18547 42C6.14547 37.12 9.38547 33 13.7455 29.84C16.5455 27.8 19.7855 26.16 23.4255 24.96C24.4655 20.4 25.4655 16.12 26.3055 12.6C27.7055 6.84 26.9855 5.24 26.5855 5.12C25.6655 4.84 23.0655 7.4 21.7855 10.84C21.1455 12.56 20.4255 15.6 22.9855 16.72C23.3455 16.92 23.5455 17.36 23.3455 17.76C23.1855 18.12 22.7455 18.32 22.3455 18.12C19.7055 16.96 18.9455 14.04 20.3055 10.32C21.5455 7.04 24.7055 2.92 27.0255 3.64C28.9455 4.24 29.1855 7.28 27.8255 12.96C27.0255 16.24 26.1055 20.2 25.1455 24.44C27.6655 23.72 30.3855 23.2 33.2655 22.84C33.7055 22.8 34.0655 23.08 34.1055 23.52ZM16.2255 57.68C16.9455 54.24 20.0655 39.76 23.0255 26.68C12.6655 30.36 7.86547 37 5.58547 42.56C3.06547 48.88 2.66547 58.6 6.50547 63.28C7.98547 65.04 9.70547 65.84 11.2655 65.48C13.5055 64.92 15.2655 62.16 16.2255 57.68ZM45.7964 33.32C46.1164 33.56 46.1964 34.04 45.9164 34.4C43.8764 37 40.5164 39.08 37.7164 38.48C36.9564 40.32 35.4764 41.36 34.0764 41.36C32.5964 41.36 31.4764 40.32 30.9964 38.68C30.2764 35.92 31.5964 33.36 33.1964 32.36C33.3964 32.2 33.6364 32.2 33.8364 32.28C34.3164 31.08 35.3164 30.36 36.2764 30.56C37.1164 30.72 38.5164 31.64 38.2364 36.16C38.2364 36.44 38.1964 36.72 38.1564 37C40.2764 37.4 43.0364 35.6 44.7164 33.44C44.9564 33.12 45.4364 33.04 45.7964 33.32ZM34.1164 39.84C34.7964 39.84 35.7564 39.16 36.3164 37.88C34.3964 36.84 33.6364 35.36 33.5564 34C32.4364 35.04 32.1164 36.92 32.5164 38.28C32.6364 38.84 33.0764 39.8 34.0764 39.84C34.0764 39.84 34.0764 39.84 34.1164 39.84ZM36.7164 36.08C36.8764 32.88 36.1964 32.12 35.9964 32.08C35.7964 32.08 35.3964 32.4 35.1964 33.04C34.9164 34.04 35.1564 35.32 36.6764 36.32C36.6764 36.24 36.6764 36.16 36.7164 36.08ZM60.2089 33.08C60.5689 33.32 60.7289 33.76 60.4889 34.16C57.9689 38.56 56.1289 41.08 54.0889 40.84C52.7289 40.68 51.6889 39.28 50.8889 36.52C50.1289 33.88 49.5689 33.72 49.4889 33.72C49.1289 33.72 47.6089 34.36 43.8489 43.72C43.7289 44 43.4489 44.2 43.1289 44.2C43.0489 44.2 43.0089 44.2 42.9289 44.16C42.5689 44.08 42.3289 43.72 42.3689 43.36C42.7689 40.08 44.3289 34.68 45.3689 31.12C45.5289 30.64 45.6489 30.16 45.7689 29.76C45.8889 29.32 46.3289 29.08 46.7289 29.2C47.1289 29.32 47.3689 29.76 47.2489 30.16C47.1289 30.6 47.0089 31.04 46.8489 31.56C46.4489 32.96 45.9289 34.68 45.4489 36.4C47.2889 32.96 48.4889 32.12 49.5689 32.2C51.0489 32.28 51.8089 34.12 52.3689 36.08C53.1689 38.88 53.9689 39.28 54.2489 39.32C55.6889 39.48 58.2089 35.04 59.1689 33.4C59.3689 33 59.8489 32.88 60.2089 33.08ZM109.931 1.04C104.131 23.96 93.1314 31.92 87.0914 34.6C85.4114 35.36 83.7714 35.92 82.2114 36.24C84.2914 38.76 86.2914 42.12 88.3314 45.6C91.9714 51.72 95.6914 58.08 99.7314 58.96C101.051 59.24 102.331 58.92 103.691 58C104.011 57.76 104.491 57.84 104.731 58.2C104.971 58.56 104.891 59.04 104.571 59.28C103.291 60.16 101.971 60.6 100.651 60.6C100.251 60.6 99.8114 60.56 99.4114 60.44C94.7314 59.44 90.8114 52.8 87.0114 46.4C84.9314 42.88 82.8514 39.32 80.6914 36.84C78.4114 46.64 76.2914 56.24 75.7714 60.32C75.8914 60.12 76.0114 59.84 76.1714 59.56C76.3314 59.16 76.7714 58.96 77.1714 59.16C77.5714 59.32 77.7314 59.76 77.5714 60.16C76.5714 62.4 75.9714 63.48 75.2114 63.48C75.0914 63.48 74.9714 63.44 74.8914 63.4C74.0514 63.12 73.8914 62.24 74.6114 57.92C75.0514 55.32 75.7714 51.68 76.8514 46.84C77.5314 43.64 78.3314 40.16 79.1714 36.6C78.7314 36.64 78.2914 36.6 77.8914 36.6C75.7714 36.44 74.0114 35.68 73.1314 34.6C72.5714 33.88 72.5314 33.08 72.9714 32.52C73.6914 31.56 75.4914 31.6 77.8514 32.64C78.5314 32.92 79.1714 33.32 79.8114 33.84C81.0914 28.4 82.4114 22.92 83.5714 18.08C84.7314 13.32 85.7314 9.2 86.4114 6.24C86.4914 5.84 86.9314 5.6 87.3314 5.68C87.7314 5.76 88.0114 6.2 87.9314 6.6C87.2114 9.56 86.2514 13.68 85.0914 18.44C83.9714 23.04 82.5714 28.92 81.1714 34.88C82.9714 34.56 84.8514 33.92 86.4514 33.2C92.2514 30.6 102.771 22.92 108.451 0.68C108.531 0.239999 108.971 -2.86102e-06 109.371 0.119998C109.771 0.199997 110.051 0.639998 109.931 1.04ZM74.9314 34.16C76.0114 34.88 77.4114 35.12 78.9314 35.08C78.3714 34.64 77.8114 34.28 77.2514 34.04C75.3314 33.2 74.4514 33.32 74.2114 33.44C74.2514 33.56 74.4514 33.84 74.9314 34.16ZM114.676 32.92C115.036 33.12 115.156 33.6 114.956 33.96C112.916 37.2 108.316 42.56 105.316 42.56C105.036 42.56 104.756 42.52 104.476 42.4C102.676 41.64 102.476 38.64 103.916 33C104.036 32.6 104.436 32.36 104.876 32.44C105.276 32.56 105.516 32.96 105.436 33.4C103.676 40.16 104.956 40.92 105.116 41C106.476 41.56 110.956 37.48 113.636 33.16C113.876 32.8 114.316 32.68 114.676 32.92ZM105.236 29.68C103.676 29.6 104.756 28.04 105.596 27.8C107.236 27.24 107.276 29.8 105.236 29.68ZM129.993 33.04C130.353 33.28 130.433 33.76 130.233 34.12C125.713 41.44 118.113 44.96 113.993 46.44C113.633 46.56 113.273 46.4 113.073 46.12C112.673 47.16 112.313 48.2 111.953 49.24C111.873 49.6 111.553 49.8 111.233 49.8C111.193 49.8 111.153 49.8 111.113 49.8C110.713 49.72 110.433 49.4 110.473 49C110.513 47.68 114.033 32 116.193 22.72C116.233 22.64 116.233 22.56 116.273 22.48C116.713 20.6 117.073 18.96 117.393 17.84C119.193 10.44 121.873 4.6 123.593 4.28C123.993 4.2 124.393 4.32 124.633 4.68C125.753 6.24 123.033 13.44 117.713 23C116.473 28.36 114.833 35.52 113.633 41C114.393 39.48 115.113 38.2 115.833 37.24C117.913 34.28 119.553 33.04 120.793 33.44C121.233 33.56 121.953 34 121.993 35.52C122.033 37.16 121.193 39.84 119.473 42.2C123.473 39.84 126.793 36.76 128.913 33.32C129.153 32.96 129.633 32.84 129.993 33.04ZM123.313 6.48C122.353 7.84 120.713 11.12 119.193 16.92C121.873 11.52 122.993 8.08 123.313 6.48ZM113.513 44.96C117.633 43.44 119.833 39.2 120.353 36.72C120.593 35.52 120.393 35 120.313 34.92C120.193 34.92 119.233 35.08 117.073 38.12C115.953 39.68 114.673 42.2 113.513 44.96ZM145.712 32.96C146.072 33.12 146.232 33.6 146.072 34C143.472 39.48 137.912 49.32 134.712 49.32C134.512 49.32 134.352 49.28 134.152 49.24C133.032 48.8 132.712 47.24 133.152 44.28C133.512 41.6 134.512 37.72 136.072 32.8C136.032 32.84 136.032 32.84 135.992 32.88C134.352 33.96 131.592 35.76 129.472 34.28C127.392 32.88 127.352 30.12 129.312 27.08C130.272 25.68 132.352 23.24 133.792 24.08C134.712 24.68 135.112 26.24 131.032 33.28C132.312 33.44 133.952 32.36 135.152 31.6C136.272 30.84 136.952 30.4 137.552 30.88C138.192 31.32 137.912 32.16 137.792 32.52C133.272 46.4 134.672 47.76 134.752 47.8C135.712 47.96 140.072 43 144.672 33.32C144.832 32.92 145.312 32.76 145.712 32.96ZM129.552 30.2C129.272 31.32 129.472 32 129.752 32.44C132.312 28 132.752 26.2 132.832 25.56C131.992 26.04 130.112 28.04 129.552 30.2ZM155.575 32.92C155.935 33.12 156.055 33.6 155.855 33.96C153.815 37.2 149.215 42.56 146.215 42.56C145.935 42.56 145.655 42.52 145.375 42.4C143.575 41.64 143.375 38.64 144.815 33C144.935 32.6 145.335 32.36 145.775 32.44C146.175 32.56 146.415 32.96 146.335 33.4C144.575 40.16 145.855 40.92 146.015 41C147.375 41.56 151.855 37.48 154.535 33.16C154.775 32.8 155.215 32.68 155.575 32.92ZM146.135 29.68C144.575 29.6 145.655 28.04 146.495 27.8C148.135 27.24 148.175 29.8 146.135 29.68ZM170.732 33.12C171.132 33.32 171.292 33.76 171.092 34.16C169.132 38.24 166.212 43 163.492 43C163.332 43 163.172 42.96 163.012 42.96C161.212 42.56 160.132 40.28 159.692 35.72C158.812 36.96 157.572 38.56 156.212 40.04C155.892 40.4 154.892 41.48 153.892 41.08C153.252 40.84 152.932 40.12 152.972 39C153.052 36.28 155.132 30.36 158.212 29.28C159.172 28.96 160.612 28.92 162.132 30.68C162.372 31 162.332 31.52 162.012 31.76C161.692 32.04 161.212 32 160.932 31.68C159.692 30.24 158.772 30.6 158.092 31.08C155.732 32.76 154.252 38.12 154.532 39.52C154.652 39.44 154.852 39.28 155.092 39C156.692 37.28 158.012 35.44 159.012 34.08C159.252 33.72 159.492 33.4 159.732 33.12C159.892 32.84 160.252 32.76 160.572 32.84C160.852 32.92 161.092 33.2 161.092 33.52C161.452 40.52 162.892 41.36 163.332 41.44C164.412 41.64 166.692 39.68 169.732 33.48C169.892 33.12 170.372 32.96 170.732 33.12Z" fill="white"/>
</svg>
